<svg xmlns="http://www.w3.org/2000/svg" width="2168.891" height="568.056" viewBox="0 0 2168.891 568.056">
  <path id="Path_37895" data-name="Path 37895" d="M12216.391,569.889s-406.3-196.936-792.266-16.764-820.047,177.2-969.3,94.313-325.078-234.844-325.078-234.844V755.922s517.953,142.984,822.906,33.406,563.547-255.55,695.109-219.439,650.875,363.517,650.875,363.517Z" transform="translate(-10129.75 -412.594)" fill="#00bdda" opacity="0.2" />
  <path id="Path_37896" data-name="Path 37896" d="M12216.391,569.889s-406.3-196.936-792.266-16.764-820.047,177.2-969.3,94.313-325.078-234.844-325.078-234.844V755.922s517.953,142.984,822.906,33.406,563.547-255.55,695.109-219.439,650.875,363.517,650.875,363.517Z" transform="translate(-10129.75 -365.35)" fill="#00bdda" opacity="0.2" />
</svg>
