<svg xmlns="http://www.w3.org/2000/svg" width="568.375" height="341.651" viewBox="0 0 568.375 341.651">
  <g id="Group_36029" data-name="Group 36029" transform="translate(-691 -248.349)">
    <path id="Path_37886" data-name="Path 37886" d="M596.677,246.038V227.847A13.079,13.079,0,0,0,583.6,214.768H547.431a13.079,13.079,0,0,1-13.079-13.079V183.5c0-7.224,15.856-13.079,23.079-13.079h1.458a13.079,13.079,0,0,0,13.079-13.079V139.147a13.079,13.079,0,0,0-13.079-13.079H116.982A13.079,13.079,0,0,0,103.9,139.147v18.191a13.079,13.079,0,0,0,13.079,13.079h0A13.079,13.079,0,0,1,130.061,183.5v18.191a13.079,13.079,0,0,1-13.079,13.079H66.4a13.079,13.079,0,0,0-13.079,13.079v18.191A13.079,13.079,0,0,0,66.4,259.118H86.249A13.079,13.079,0,0,1,99.329,272.2v18.191a13.079,13.079,0,0,1-13.08,13.079H86.2a13.079,13.079,0,0,0-13.079,13.079v18.191A13.079,13.079,0,0,0,86.2,347.818h2.871A13.079,13.079,0,0,1,102.152,360.9v18.191a13.079,13.079,0,0,1-13.079,13.079H71.948a13.079,13.079,0,0,0-13.079,13.079v18.191a13.079,13.079,0,0,0,13.079,13.079H555.911a13.08,13.08,0,0,0,13.079-13.079V405.248a13.079,13.079,0,0,0-13.08-13.079h-11.34a13.079,13.079,0,0,1-13.079-13.079V360.9a13.079,13.079,0,0,1,13.079-13.079h26.74a13.08,13.08,0,0,0,13.08-13.079V316.547a13.079,13.079,0,0,0-13.079-13.079H563.2a13.079,13.079,0,0,1-13.079-13.079V272.2A13.079,13.079,0,0,1,563.2,259.118h20.4a13.079,13.079,0,0,0,13.079-13.079Z" transform="translate(637.677 130.522)" fill="#f2f2f2" />
    <path id="Path_37888" data-name="Path 37888" d="M384.28,361.08,365.7,333.46a80,80,0,1,0-23.114,14.348l18.111,26.8A13.594,13.594,0,1,0,384.28,361.08Z" transform="translate(637.677 130.522)" fill="#00bdda" />
    <circle id="Ellipse_75" data-name="Ellipse 75" cx="57.048" cy="57.048" r="57.048" transform="translate(893.361 346.988)" fill="#fff" />
    <path id="Path_37889" data-name="Path 37889" d="M312.733,216.465a57.46,57.46,0,0,0-8.139.588,57.043,57.043,0,0,1,0,112.921,57.046,57.046,0,1,0,8.139-113.508Z" transform="translate(637.677 130.522)" fill="#f2f2f2" />
    <path id="Path_37892" data-name="Path 37892" d="M203.269,332.512v23.165c0,20.119,1.219,21.643,22.861,23.776v8.536H154.8v-8.536c22.861-2.133,24.385-3.962,24.385-24.081v-22.86H98.716v-9.145c28.958-41.151,60.354-85.654,90.836-128.024h13.717V317.879h29.872v14.633ZM179.188,227.35c-19.2,28.043-40.541,59.134-61.573,90.53h61.573Z" transform="translate(637.677 130.522)" fill="#00bdda" />
    <path id="Path_37893" data-name="Path 37893" d="M504.426,332.512v23.165c0,20.119,1.22,21.643,22.862,23.776v8.536H455.96v-8.536c22.861-2.133,24.385-3.962,24.385-24.081v-22.86H399.874v-9.145c28.957-41.151,60.354-85.654,90.836-128.024h13.716V317.879H534.3v14.633ZM480.345,227.35c-19.2,28.043-40.541,59.134-61.572,90.53h61.572Z" transform="translate(637.677 130.522)" fill="#00bdda" />
    <line id="Line_42" data-name="Line 42" x2="32.303" transform="translate(756.901 249.849)" fill="none" stroke="#b9d4db" stroke-linecap="round" stroke-miterlimit="10" stroke-width="3" />
    <line id="Line_43" data-name="Line 43" x2="32.303" transform="translate(756.901 259.159)" fill="none" stroke="#b9d4db" stroke-linecap="round" stroke-miterlimit="10" stroke-width="3" />
    <line id="Line_44" data-name="Line 44" x2="32.303" transform="translate(756.901 268.47)" fill="none" stroke="#b9d4db" stroke-linecap="round" stroke-miterlimit="10" stroke-width="3" />
    <line id="Line_45" data-name="Line 45" x2="32.303" transform="translate(911.271 525.78)" fill="none" stroke="#b9d4db" stroke-linecap="round" stroke-miterlimit="10" stroke-width="3" />
    <line id="Line_46" data-name="Line 46" x2="32.303" transform="translate(911.271 535.09)" fill="none" stroke="#b9d4db" stroke-linecap="round" stroke-miterlimit="10" stroke-width="3" />
    <line id="Line_47" data-name="Line 47" x2="32.303" transform="translate(911.271 544.401)" fill="none" stroke="#b9d4db" stroke-linecap="round" stroke-miterlimit="10" stroke-width="3" />
    <line id="Line_48" data-name="Line 48" x2="32.303" transform="translate(1173.791 402.505)" fill="none" stroke="#b9d4db" stroke-linecap="round" stroke-miterlimit="10" stroke-width="3" />
    <line id="Line_49" data-name="Line 49" x2="32.303" transform="translate(1173.791 411.815)" fill="none" stroke="#b9d4db" stroke-linecap="round" stroke-miterlimit="10" stroke-width="3" />
    <line id="Line_50" data-name="Line 50" x2="32.303" transform="translate(1173.791 421.126)" fill="none" stroke="#b9d4db" stroke-linecap="round" stroke-miterlimit="10" stroke-width="3" />
    <circle id="Ellipse_83" data-name="Ellipse 83" cx="16.428" cy="16.428" r="16.428" transform="translate(702.162 513.723)" fill="#b9d4db" />
    <circle id="Ellipse_84" data-name="Ellipse 84" cx="8.557" cy="8.557" r="8.557" transform="translate(730.708 495.233)" fill="#b9d4db" />
    <circle id="Ellipse_85" data-name="Ellipse 85" cx="7.406" cy="7.406" r="7.406" transform="translate(774.391 534.652)" fill="#b9d4db" />
    <circle id="Ellipse_86" data-name="Ellipse 86" cx="4.936" cy="4.936" r="4.936" transform="translate(759.661 515.169)" fill="#b9d4db" />
    <circle id="Ellipse_87" data-name="Ellipse 87" cx="11.833" cy="11.833" r="11.833" transform="translate(741.146 533.249)" fill="#b9d4db" />
    <circle id="Ellipse_88" data-name="Ellipse 88" cx="16.428" cy="16.428" r="16.428" transform="translate(929.53 276.384)" fill="#b9d4db" />
    <circle id="Ellipse_89" data-name="Ellipse 89" cx="7.406" cy="7.406" r="7.406" transform="translate(905.965 301.834)" fill="#b9d4db" />
    <circle id="Ellipse_90" data-name="Ellipse 90" cx="11.833" cy="11.833" r="11.833" transform="translate(892.459 269.146)" fill="#b9d4db" />
    <g id="Group_35894" data-name="Group 35894" transform="translate(-498.824 220.361)">
      <circle id="Ellipse_91" data-name="Ellipse 91" cx="64.188" cy="64.188" r="64.188" transform="translate(1629.824 241.263)" fill="#2f3a3e" />
      <path id="Path_37894" data-name="Path 37894" d="M482.9,184.745H449.151a3.712,3.712,0,0,1-3.214-5.568l16.876-29.23,16.876-29.23a3.712,3.712,0,0,1,6.429,0l16.876,29.23,16.876,29.23a3.712,3.712,0,0,1-3.214,5.568Z" transform="translate(1212.966 145.845)" fill="#fff" />
      <rect id="Rectangle_2233" data-name="Rectangle 2233" width="3.714" height="31.394" rx="1.857" transform="translate(1694.012 280.398)" fill="#2f3a3e" />
      <circle id="Ellipse_92" data-name="Ellipse 92" cx="4.442" cy="4.442" r="4.442" transform="translate(1691.011 324.651) rotate(-84.345)" fill="#2f3a3e" />
    </g>
  </g>
</svg>
