<svg xmlns="http://www.w3.org/2000/svg" width="637.86" height="357.29" viewBox="0 0 637.86 357.29">
  <g id="Group_35890" data-name="Group 35890" transform="translate(-41.096 -98.555)">
    <path id="Path_37871" data-name="Path 37871" d="M678.956,240.928V220.492A14.693,14.693,0,0,0,664.263,205.8H612.4a14.693,14.693,0,0,1-14.693-14.693V170.671A14.693,14.693,0,0,1,612.4,155.978h1.637a14.693,14.693,0,0,0,14.693-14.693V120.849a14.693,14.693,0,0,0-14.693-14.693H140.08a14.693,14.693,0,0,0-14.693,14.693v20.435a14.693,14.693,0,0,0,14.693,14.693h0a14.693,14.693,0,0,1,14.693,14.693v20.435A14.693,14.693,0,0,1,140.08,205.8H83.26a14.693,14.693,0,0,0-14.693,14.693v20.435A14.693,14.693,0,0,0,83.26,255.621h22.3a14.693,14.693,0,0,1,14.693,14.693v20.436a14.693,14.693,0,0,1-14.693,14.693H105.5a14.693,14.693,0,0,0-14.693,14.693v20.435A14.693,14.693,0,0,0,105.5,355.264h3.226a14.693,14.693,0,0,1,14.693,14.693v20.436a14.693,14.693,0,0,1-14.693,14.693H55.789A14.693,14.693,0,0,0,41.1,419.779v20.435a14.693,14.693,0,0,0,14.693,14.693H621.927a14.693,14.693,0,0,0,14.693-14.693V419.779a14.693,14.693,0,0,0-14.693-14.693h-12.74a14.693,14.693,0,0,1-14.693-14.693V369.957a14.693,14.693,0,0,1,14.693-14.693h30.039a14.693,14.693,0,0,0,14.693-14.693V320.136a14.693,14.693,0,0,0-14.693-14.693h-9.112a14.693,14.693,0,0,1-14.693-14.693V270.314a14.693,14.693,0,0,1,14.693-14.693h34.149A14.693,14.693,0,0,0,678.956,240.928Z" transform="translate(0 0.938)" fill="#f2f2f2" />
    <line id="Line_20" data-name="Line 20" x2="36.288" transform="translate(507.449 254.67)" fill="none" stroke="#b9d4db" stroke-linecap="round" stroke-miterlimit="10" stroke-width="3" />
    <line id="Line_21" data-name="Line 21" x2="36.288" transform="translate(507.449 265.129)" fill="none" stroke="#b9d4db" stroke-linecap="round" stroke-miterlimit="10" stroke-width="3" />
    <line id="Line_22" data-name="Line 22" x2="36.288" transform="translate(507.449 275.588)" fill="none" stroke="#b9d4db" stroke-linecap="round" stroke-miterlimit="10" stroke-width="3" />
    <rect id="Rectangle_2226" data-name="Rectangle 2226" width="319.083" height="247.501" rx="13" transform="translate(142.613 165.88)" fill="#00bdda" />
    <rect id="Rectangle_2227" data-name="Rectangle 2227" width="272.159" height="200.994" rx="8.997" transform="translate(166.075 189.134)" fill="#fcfcfc" />
    <rect id="Rectangle_2228" data-name="Rectangle 2228" width="73.379" height="54.191" rx="6.16" transform="translate(198.332 217.241)" fill="#f2f2f2" />
    <rect id="Rectangle_2229" data-name="Rectangle 2229" width="73.379" height="54.191" rx="6.16" transform="translate(336.844 310.256)" fill="#f2f2f2" />
    <path id="Path_37872" data-name="Path 37872" d="M325.632,254.966v12.29a9.953,9.953,0,0,1-9.953,9.953h-109.1a9.953,9.953,0,0,0-9.953,9.953h0a9.953,9.953,0,0,0,9.953,9.953h48.844a9.953,9.953,0,0,1,9.953,9.953V308.1a9.953,9.953,0,0,0,9.953,9.953h42.329" transform="translate(19.188 19.297)" fill="none" stroke="#f2f2f2" stroke-miterlimit="10" stroke-width="2" />
    <path id="Path_37873" data-name="Path 37873" d="M415.5,271.286h26.377a9.953,9.953,0,0,1,9.953,9.953v1.034a9.953,9.953,0,0,0,9.953,9.953h19.861" transform="translate(46.191 21.31)" fill="none" stroke="#00bdda" stroke-miterlimit="10" stroke-width="2" />
    <path id="Path_37874" data-name="Path 37874" d="M246.384,225.446H309.54a9.953,9.953,0,0,1,9.953,9.953v9.054" transform="translate(25.327 15.655)" fill="none" stroke="#f2f2f2" stroke-miterlimit="10" stroke-width="2" />
    <line id="Line_23" data-name="Line 23" x2="15.66" transform="translate(336.844 260.109)" fill="none" stroke="#f2f2f2" stroke-miterlimit="10" stroke-width="2" />
    <line id="Line_24" data-name="Line 24" x2="15.66" transform="translate(336.844 274.263)" fill="none" stroke="#f2f2f2" stroke-miterlimit="10" stroke-width="2" />
    <line id="Line_25" data-name="Line 25" x2="11.203" transform="translate(542.969 318.165)" fill="none" stroke="#409cb5" stroke-miterlimit="10" stroke-width="4" />
    <line id="Line_26" data-name="Line 26" x2="11.203" transform="translate(542.969 306.931)" fill="none" stroke="#409cb5" stroke-miterlimit="10" stroke-width="4" />
    <rect id="Rectangle_2230" data-name="Rectangle 2230" width="66.863" height="86.545" rx="2" transform="translate(562.485 268.332)" fill="#2f3a3e" />
    <circle id="Ellipse_45" data-name="Ellipse 45" cx="13.75" cy="13.75" r="13.75" transform="translate(581.088 296.102)" fill="#00bdda" />
    <path id="Path_37875" data-name="Path 37875" d="M541.509,275.8a13.737,13.737,0,0,1-16.515,21.437A13.741,13.741,0,1,0,541.509,275.8Z" transform="translate(59.699 21.868)" fill="#00a4be" />
    <path id="Path_37876" data-name="Path 37876" d="M335.459,421.27H224.219a2.247,2.247,0,0,1-1.543-3.88l2.93-2.769a49.276,49.276,0,0,0,15.431-35.814h77.6a49.276,49.276,0,0,0,15.431,35.814L337,417.39a2.247,2.247,0,0,1-1.543,3.88Z" transform="translate(22.315 34.575)" fill="#00a4be" />
    <path id="Path_37877" data-name="Path 37877" d="M485.056,277.766h4.7V303.11h-4.7a12.672,12.672,0,0,1-12.672-12.672h0a12.672,12.672,0,0,1,12.672-12.672Z" transform="translate(53.209 22.11)" fill="#00bdda" />
    <circle id="Ellipse_46" data-name="Ellipse 46" cx="2.983" cy="2.983" r="2.983" transform="translate(597.554 306.869)" fill="#fff" />
    <circle id="Ellipse_47" data-name="Ellipse 47" cx="2.983" cy="2.983" r="2.983" transform="translate(586.157 306.869)" fill="#fff" />
    <line id="Line_27" data-name="Line 27" x2="36.288" transform="translate(60.547 397.726)" fill="none" stroke="#b9d4db" stroke-linecap="round" stroke-miterlimit="10" stroke-width="3" />
    <line id="Line_28" data-name="Line 28" x2="36.288" transform="translate(60.547 408.186)" fill="none" stroke="#b9d4db" stroke-linecap="round" stroke-miterlimit="10" stroke-width="3" />
    <line id="Line_29" data-name="Line 29" x2="36.288" transform="translate(60.547 418.645)" fill="none" stroke="#b9d4db" stroke-linecap="round" stroke-miterlimit="10" stroke-width="3" />
    <line id="Line_30" data-name="Line 30" x2="36.288" transform="translate(341.882 122.107)" fill="none" stroke="#b9d4db" stroke-linecap="round" stroke-miterlimit="10" stroke-width="3" />
    <line id="Line_31" data-name="Line 31" x2="36.288" transform="translate(341.882 132.566)" fill="none" stroke="#b9d4db" stroke-linecap="round" stroke-miterlimit="10" stroke-width="3" />
    <line id="Line_32" data-name="Line 32" x2="36.288" transform="translate(341.882 143.026)" fill="none" stroke="#b9d4db" stroke-linecap="round" stroke-miterlimit="10" stroke-width="3" />
    <circle id="Ellipse_48" data-name="Ellipse 48" cx="18.455" cy="18.455" r="18.455" transform="translate(96.839 127.34)" fill="#b9d4db" />
    <circle id="Ellipse_49" data-name="Ellipse 49" cx="9.613" cy="9.613" r="9.613" transform="translate(106.43 98.555)" fill="#b9d4db" />
    <circle id="Ellipse_50" data-name="Ellipse 50" cx="8.32" cy="8.32" r="8.32" transform="translate(171.75 105.465)" fill="#b9d4db" />
    <circle id="Ellipse_51" data-name="Ellipse 51" cx="5.545" cy="5.545" r="5.545" transform="translate(144.257 100.155)" fill="#b9d4db" />
    <circle id="Ellipse_52" data-name="Ellipse 52" cx="13.292" cy="13.292" r="13.292" transform="translate(142.953 122.674)" fill="#b9d4db" />
    <circle id="Ellipse_53" data-name="Ellipse 53" cx="18.455" cy="18.455" r="18.455" transform="translate(557.226 179.596)" fill="#b9d4db" />
    <circle id="Ellipse_54" data-name="Ellipse 54" cx="9.613" cy="9.613" r="9.613" transform="translate(527.007 197.533)" fill="#b9d4db" />
    <circle id="Ellipse_55" data-name="Ellipse 55" cx="13.292" cy="13.292" r="13.292" transform="translate(523.327 154.94)" fill="#b9d4db" />
    <circle id="Ellipse_56" data-name="Ellipse 56" cx="18.455" cy="18.455" r="18.455" transform="translate(562.633 408.487)" fill="#b9d4db" />
    <circle id="Ellipse_57" data-name="Ellipse 57" cx="8.32" cy="8.32" r="8.32" transform="translate(536.16 437.077)" fill="#b9d4db" />
    <circle id="Ellipse_58" data-name="Ellipse 58" cx="13.292" cy="13.292" r="13.292" transform="translate(520.988 400.357)" fill="#b9d4db" />
    <circle id="Ellipse_59" data-name="Ellipse 59" cx="40.107" cy="40.107" r="40.107" transform="translate(421.589 131.654)" fill="#2f3a3e" />
    <rect id="Rectangle_2231" data-name="Rectangle 2231" width="4.178" height="37.098" rx="1.859" transform="translate(459.607 147.331)" fill="#fff" />
    <path id="Path_37878" data-name="Path 37878" d="M415.92,187.984c5.04,0,5.049-7.833,0-7.833S410.871,187.984,415.92,187.984Z" transform="translate(45.776 10.067)" fill="#fff" />
  </g>
</svg>
