<svg xmlns="http://www.w3.org/2000/svg" width="667.257" height="1186.312" viewBox="0 0 667.257 1186.312">
  <g id="Group_35912" data-name="Group 35912" transform="translate(0 0)" opacity="0.2">
    <path id="Path_37925" data-name="Path 37925" d="M385.328,427.094q.308-8.866.616-17.732a20.017,20.017,0,0,0-.374-4.216,9.6,9.6,0,0,0-13.714-7.06,13.5,13.5,0,0,0-7.888,14.21c.184,1.716.442,3.425.669,5.137a8.232,8.232,0,0,1-3.7,8.269,5.255,5.255,0,0,1-7.246-.751c-3.359-3.556-4.806-8.044-5.8-12.68-1.794-8.361.967-15.562,5.9-22.152,6.366-8.5,14.763-13.357,25.453-13.765,15.381-.587,23.687,10.024,26.146,20.174,1.732,7.149.742,14.138-1.137,21.079-.956,3.53-2.043,7.024-2.982,10.558a25.91,25.91,0,0,0,.838,15.736c.988,2.755,1.927,5.528,2.836,8.31a5.166,5.166,0,0,1-1.252,5.783c-1.684,1.587-3.663,1.572-5.722.9-4.349-1.417-7.027-4.587-8.864-8.578-2.311-5.022-3.118-10.4-3.484-15.851-.164-2.447-.028-4.915-.028-7.373Z" transform="translate(13.329 -52.245)" fill="#fff"/>
    <path id="Path_38051" data-name="Path 38051" d="M37.991,50.763q.308-8.866.616-17.732a20.017,20.017,0,0,0-.374-4.216,9.6,9.6,0,0,0-13.714-7.06,13.5,13.5,0,0,0-7.888,14.21c.184,1.716.442,3.425.669,5.137a8.232,8.232,0,0,1-3.7,8.269A5.255,5.255,0,0,1,6.35,48.62C2.991,45.063,1.544,40.575.55,35.94c-1.794-8.361.967-15.563,5.9-22.152C12.818,5.291,21.215.432,31.9.023,47.286-.564,55.592,10.047,58.051,20.2c1.732,7.149.742,14.138-1.137,21.079-.956,3.53-2.043,7.024-2.982,10.558a25.91,25.91,0,0,0,.838,15.736c.988,2.755,1.927,5.528,2.836,8.31a5.166,5.166,0,0,1-1.252,5.783c-1.684,1.587-3.663,1.572-5.722.9-4.349-1.417-7.027-4.587-8.864-8.578-2.311-5.022-3.118-10.4-3.484-15.851-.164-2.447-.028-4.915-.028-7.373Z" transform="matrix(0.891, 0.454, -0.454, 0.891, 563.925, 118.104)" fill="#fff"/>
    <path id="Path_37930" data-name="Path 37930" d="M-74.9,657.5c-6.125-.032-11.16.758-15.544,4.039a16.219,16.219,0,0,1-4.944,2.683c-2.632.8-4.409-.245-5-2.939a9.063,9.063,0,0,1,.195-4.349c1.747-6.508,6.1-10.245,12.508-11.89,4.41-1.132,8.98-1.493,13.337-2.847a20.037,20.037,0,0,0,7.642-3.861c2.994-2.663,5.32-5.816,4.117-10a11.268,11.268,0,0,0-8.757-8.13,14.9,14.9,0,0,0-9.5,1.066c-1.682.72-3.357,1.459-5.043,2.169a13.368,13.368,0,0,1-8.168.513c-4.417-.938-5.381-5.685-2.549-8.562,8.2-8.329,17.763-12.1,29.458-9.241a44.93,44.93,0,0,1,13.943,5.9c8.677,5.636,11.848,13.614,10.417,23.746-1.489,10.537-11.591,20.1-19.207,21.6a32.921,32.921,0,0,1-8.589.431C-72.312,657.715-74.032,657.57-74.9,657.5Z" transform="translate(298.943 -209.156)" fill="#fff"/>
    <path id="Path_37931" data-name="Path 37931" d="M-42.371-512.853c.343,11.609-8.34,21.253-16.345,24.772-4.48,1.969-9.174,1.715-13.894,1.3-6.569-.579-12.851.113-18.333,4.292a13.762,13.762,0,0,1-4.282,2.268c-2.692.827-4.634-.255-5.054-3.043-.689-4.57,1.309-8.289,4.221-11.534,2.789-3.109,6.67-4.18,10.575-5.07,3.567-.813,7.229-1.178,10.748-2.211A20.577,20.577,0,0,0-67-505.762c3.212-2.716,5.649-5.9,4.52-10.454-1.035-4.171-5.489-7.641-9.965-8.23a17.17,17.17,0,0,0-9.272,1.693c-2.435,1.061-4.782,2.364-7.51,2.626a13.652,13.652,0,0,1-5.715-.673c-3.513-1.173-4-5.629-1.9-7.837,5.124-5.385,11.063-9.355,18.537-10.356,6.765-.906,13.2.746,19.379,3.449a33.542,33.542,0,0,1,10.32,6.758A20.757,20.757,0,0,1-42.371-512.853Z" transform="translate(298.834 575.45)" fill="#fff"/>
    <path id="Path_37932" data-name="Path 37932" d="M1000.646-538.909a40.311,40.311,0,0,1,24.266,8.556c7.21,5.638,9.536,13.255,7.9,21.971-2,10.621-8.3,17.843-18.57,21.376-3.636,1.251-7.456.774-11.215.451-6.634-.571-12.959.119-18.471,4.353a17.32,17.32,0,0,1-2.848,1.649c-1.589.793-3.323,1.41-4.9.225a4.968,4.968,0,0,1-1.658-4.978c.96-6.295,4.251-10.8,10.355-13.039a68.366,68.366,0,0,1,11.148-2.538,34.783,34.783,0,0,0,8.531-2.581c3.74-1.766,6.647-4.349,7.89-8.446a7.353,7.353,0,0,0-1.016-6.44,12.554,12.554,0,0,0-15.19-5.283c-2.523.837-4.931,2.015-7.411,2.988a13.182,13.182,0,0,1-8.167.31,4.961,4.961,0,0,1-2.3-8.387c5.118-5.151,10.925-8.9,18.2-10.07a6.66,6.66,0,0,1,.934-.11C998.972-538.919,999.809-538.909,1000.646-538.909Z" transform="translate(-438.487 575.222)" fill="#fff"/>
    <path id="Path_37933" data-name="Path 37933" d="M1033.312,631.78c.369,12.933-10.54,23.3-18.525,25.518a27.25,27.25,0,0,1-9.962.665,38.709,38.709,0,0,0-13.4.709c-2.457.629-4.444,2.046-6.52,3.344a18.582,18.582,0,0,1-4.721,2.438c-2.421.68-4.122-.313-4.762-2.724a8.728,8.728,0,0,1,.152-4.648,15.705,15.705,0,0,1,11.481-11.551c3.929-1.143,8.006-1.563,11.968-2.523,4.31-1.045,8.472-2.441,11.515-5.939,5.2-5.98,2.731-14.1-4.95-16.387a15.127,15.127,0,0,0-10.715.777c-1.675.735-3.34,1.5-5.035,2.184a13.393,13.393,0,0,1-8.476.406,4.915,4.915,0,0,1-2.388-8.27c5.8-5.907,12.448-10.345,20.964-10.315,11.289.039,21.279,3.768,28.914,12.446C1032.2,621.719,1033.358,626.447,1033.312,631.78Z" transform="translate(-438.559 -209.332)" fill="#fff"/>
    <path id="Path_37934" data-name="Path 37934" d="M-288.321,279.475c-.024,1.772.236,3.555-.3,5.306a6.453,6.453,0,0,1-10.862,2.941,17.49,17.49,0,0,1-5.343-15.579c1.466-11.449,8.207-18.845,18.822-22.289,9.928-3.221,20.587-.427,27.065,7.3a23.481,23.481,0,0,1,5.3,16.657c-.235,5.4-1.56,10.671-1.688,16.074a33.9,33.9,0,0,0,2.832,14.822,18.717,18.717,0,0,1,1.614,4.571c.656,4.035-2.365,6.671-6.325,5.52a15.068,15.068,0,0,1-7.839-5.747c-3.875-5.128-5.575-11.082-6.276-17.349-.529-4.73-.844-9.484-1.271-14.226a14.173,14.173,0,0,0-.991-3.943c-1.562-3.942-4.825-6-8.55-5.407-3.292.52-5.923,3.785-6.177,7.739C-288.386,277.063-288.321,278.271-288.321,279.475Z" transform="translate(439.095 35.367)" fill="#fff"/>
    <path id="Path_37935" data-name="Path 37935" d="M787.525,280.044a13.966,13.966,0,0,1-.576,5.633A6.421,6.421,0,0,1,776.5,288.1c-5.32-5.017-6.53-11.254-5.177-18.152,2.528-12.885,15.72-22.413,28.809-20.934,7.246.819,13.441,3.611,17.752,9.67,3.962,5.568,4.854,11.909,4.074,18.578-.552,4.726-1.533,9.407-1.481,14.2a33.906,33.906,0,0,0,3,13.854,21.616,21.616,0,0,1,1.5,4.28c.884,3.986-2.756,6.506-6.3,5.449a15.518,15.518,0,0,1-8.24-6.217c-3.568-4.986-5.233-10.679-5.907-16.675-.537-4.782-.835-9.59-1.286-14.383a13.964,13.964,0,0,0-1.163-4.381c-1.643-3.692-4.762-5.585-8.32-5.045-3.213.488-5.855,3.569-6.206,7.369C787.424,277.005,787.525,278.323,787.525,280.044Z" transform="translate(-298.456 35.146)" fill="#fff"/>
    <path id="Path_38054" data-name="Path 38054" d="M642.52,559.011c1.141-12.486,6.2-20.051,17.15-24.151a23.928,23.928,0,0,1,15.216-.935c7.279,2.032,13.93,11.633,13.411,17.658-.322,3.736-2.271,6.553-4.476,9.3-1.407,1.755-2.888,3.45-4.311,5.192-3.434,4.206-3.938,8.961-2.619,14.062.955,3.694,2.586,7.178,3.346,10.936a4.032,4.032,0,0,1-1.248,4.261,3.866,3.866,0,0,1-4.276.425,12.9,12.9,0,0,1-6.653-5.932c-2.565-4.763-4.332-9.754-4.255-15.237a37.085,37.085,0,0,1,1.631-9.4,62.584,62.584,0,0,0,1.614-7.5c.008-.052.024-.1.031-.154.4-2.981-.9-5.511-3.165-6.13-2.4-.658-4.944.757-6.058,3.563-.789,1.987-1.335,4.068-2.029,6.094a7.6,7.6,0,0,1-6.433,5.487,3.719,3.719,0,0,1-3.835-1.265C644.125,563.128,642.441,560.987,642.52,559.011Z" transform="translate(-642.518 -200.33)" fill="#fff"/>
    <path id="Path_37940" data-name="Path 37940" d="M667.706,938.106a27.516,27.516,0,0,0-.708-7.784c-.994-3.8-4.465-6.01-7.791-4.948a4.4,4.4,0,0,0-3.261,4.9,14.282,14.282,0,0,0,.987,3.779c.392,1.081.828,2.148,1.163,3.246,1.112,3.646-1.356,6.619-5.14,6.085a6.061,6.061,0,0,1-4.561-2.468c-3.367-5.334-5.464-10.991-3.505-17.383,2.6-8.482,11.514-14.2,20.5-13.253,11.371,1.2,18.369,10.274,16.871,21.62-.528,4-1.356,7.938-1.841,11.938a20.275,20.275,0,0,0,.912,9.282,20.213,20.213,0,0,1,1.21,4.376,4.028,4.028,0,0,1-1.348,3.96,3.935,3.935,0,0,1-4.3.283,11.736,11.736,0,0,1-4.159-3.521c-3.65-4.535-4.8-9.894-5.013-15.543C667.665,941.364,667.706,940.053,667.706,938.106Z" transform="translate(-211.61 -418.235)" fill="#fff"/>
    <path id="Path_37941" data-name="Path 37941" d="M-408.049-205.578a30.01,30.01,0,0,0-.709-8.413,6.685,6.685,0,0,0-6.054-5.3c-3.5-.068-5.726,2.817-4.808,6.412.489,1.918,1.237,3.772,1.9,5.641.675,1.89.567,3.666-.975,5.052a5.115,5.115,0,0,1-5.415.917,7.263,7.263,0,0,1-4.432-3.941c-2.78-5.66-4.4-11.414-1.615-17.621,3.3-7.352,11.437-11.969,20.045-11.25a18.122,18.122,0,0,1,16.28,13.929c1.016,4.127.307,8.222-.307,12.309-.3,2.016-.72,4.016-1.055,6.028a21.181,21.181,0,0,0,1.1,11.57,12.121,12.121,0,0,1,.882,3.489c.125,1.52-.068,2.975-1.439,3.925a3.979,3.979,0,0,1-4.33.147c-3.181-1.7-5.175-4.5-6.664-7.693C-407.891-195.206-408.155-200.365-408.049-205.578Z" transform="translate(525.883 366.285)" fill="#fff"/>
    <path id="Path_37942" data-name="Path 37942" d="M-408.082,938.755a28.858,28.858,0,0,0-.667-8.258,6.881,6.881,0,0,0-3.313-4.565,5.365,5.365,0,0,0-5.936.226c-1.944,1.316-2.151,3.292-1.633,5.325.489,1.919,1.21,3.782,1.89,5.647.689,1.889.586,3.646-.913,5.071-1.608,1.527-3.507,1.593-5.562.916a6.948,6.948,0,0,1-4.227-3.725c-2.447-5.022-4.221-10.129-2.438-15.845,2.975-9.537,12.553-13.914,20.4-13.191,11.541,1.064,18.536,10.314,16.954,21.82-.549,3.991-1.369,7.934-1.841,11.937a20.124,20.124,0,0,0,.91,8.969,20.751,20.751,0,0,1,1.234,4.528,3.975,3.975,0,0,1-1.379,3.948,3.987,3.987,0,0,1-4.454.146,14.268,14.268,0,0,1-5.454-5.515c-2.665-4.333-3.415-9.162-3.564-14.135C-408.11,940.955-408.082,939.855-408.082,938.755Z" transform="translate(525.89 -418.306)" fill="#fff"/>
    <path id="Path_37943" data-name="Path 37943" d="M667.777-206.186a26.729,26.729,0,0,0-.741-7.947c-1.031-3.7-4.262-5.8-7.541-4.916a4.429,4.429,0,0,0-3.486,4.892,19.353,19.353,0,0,0,1.391,4.966c.29.84.646,1.662.871,2.519a4.584,4.584,0,0,1-5.791,5.627,7.565,7.565,0,0,1-5.2-4.16c-2.724-5.624-4.36-11.3-1.675-17.478,3.74-8.6,14.178-13.4,23.645-10.755,9.038,2.525,14.406,11.255,13.089,20.914-.551,4.045-1.373,8.041-1.867,12.093a19.988,19.988,0,0,0,.907,9.129,20.479,20.479,0,0,1,1.256,4.682c.329,3.305-2.2,5.3-5.335,4.118a11.7,11.7,0,0,1-5.137-4.476c-3.181-4.357-4.179-9.4-4.383-14.653C667.734-202.94,667.777-204.251,667.777-206.186Z" transform="translate(-211.682 366.296)" fill="#fff"/>
    <path id="Path_37944" data-name="Path 37944" d="M278.165,1040.872a38.29,38.29,0,0,1-.59,5.023c-1.461,6.927-7.57,9.574-13.37,10.06-3.75.314-7.526.284-11.253.935a10.019,10.019,0,0,0-6.083,3.274c-1.034,1.18-2.147,2.3-3.281,3.381a7.7,7.7,0,0,1-4.686,2.328c-2.455.222-3.919-.841-4.3-3.3-.692-4.439,1.372-7.817,4.4-10.713,3.133-3,7.021-4.662,11.1-5.947a43.277,43.277,0,0,0,7.347-2.7c3.636-1.922,4.275-4.641,1.946-8.018a4.435,4.435,0,0,0-3.719-1.985,16.092,16.092,0,0,0-5.21,1.012,12.974,12.974,0,0,1-7.415.384c-2.55-.712-3.431-2.483-2.39-4.923a4.667,4.667,0,0,1,.871-1.479c3.785-3.789,7.6-7.512,13.315-8.221a17.047,17.047,0,0,1,9.931,1.537,38.854,38.854,0,0,1,7.447,4.928c3.688,3.066,5.265,7.185,5.788,11.807C278.1,1039.088,278.111,1039.927,278.165,1040.872Z" transform="translate(69.248 -493.408)" fill="#fff"/>
    <path id="Path_37945" data-name="Path 37945" d="M43.621,19.467a24.55,24.55,0,0,1-.524,6.6c-1.351,6.224-6.256,9.019-12.127,9.92-3.623.556-7.305.371-10.954.807a12.487,12.487,0,0,0-8.814,4.8A17.551,17.551,0,0,1,8.277,44.43a7.711,7.711,0,0,1-2.318,1.3C2.46,46.914.082,45.326,0,41.633-.1,36.755,2.629,33.391,6.237,30.6a30.341,30.341,0,0,1,9.721-4.635c1.645-.515,3.29-1.04,4.9-1.653a17.189,17.189,0,0,0,2.95-1.441c2.149-1.335,2.884-3.087,2.28-5.148-.841-2.873-2.629-4.362-5.216-4.371a18.489,18.489,0,0,0-5.192,1.119,12.8,12.8,0,0,1-6.8.4C5.946,14.141,5.007,12.136,6.4,9.422a4.48,4.48,0,0,1,.746-1.193C11.257,4.231,15.4.3,21.639.023a17.142,17.142,0,0,1,9.512,2.11c1.9,1.09,3.724,2.336,5.511,3.612C41.487,9.192,43.336,14.137,43.621,19.467Z" transform="matrix(0.839, -0.545, 0.545, 0.839, 329.088, 203.226)" fill="#fff"/>
    <path id="Path_38056" data-name="Path 38056" d="M915.839,1231.973c-.014-9.156,7.279-18.656,15.419-20.315,8.6-1.753,18.781,4.438,20.631,12.513.792,3.455.354,6.887-.256,10.277-.954,5.3.636,9.668,4.315,13.448,1.729,1.777,2.045,3.26,1.209,4.762a4.7,4.7,0,0,1-5.322,2.034c-6.739-1.82-10.627-6.333-12.06-13.057-.5-2.347-.838-4.729-1.3-7.086a11.212,11.212,0,0,0-1.21-3.383q-2.027-3.6-6.186-2.053c-2.122.788-2.977,2.658-2.345,5.275.452,1.877,1.077,3.718,1.452,5.608a6.651,6.651,0,0,1-4.209,7.4,4.27,4.27,0,0,1-4.351-.963c-3.326-2.79-4.814-6.49-5.469-10.633A17.78,17.78,0,0,1,915.839,1231.973Z" transform="translate(-505.004 -1173.937)" fill="#fff"/>
    <path id="Path_37983" data-name="Path 37983" d="M-129.978,473.979a5.487,5.487,0,0,1,5.663-6.058c3.472.027,6.623,3.756,6.55,7.671-.058,3.113-2.658,5.885-5.428,5.788A7.22,7.22,0,0,1-129.978,473.979Z" transform="translate(319.105 -115.036)" fill="#fff"/>
    <path id="Path_37984" data-name="Path 37984" d="M945.887,474a5.468,5.468,0,0,1,5.605-6.093c3.444.028,6.69,3.806,6.607,7.648-.066,3.043-2.562,5.8-5.268,5.817A7.149,7.149,0,0,1,945.887,474Z" transform="translate(-418.472 -115.024)" fill="#fff"/>
    <path id="Path_37987" data-name="Path 37987" d="M536.575,658.344a6.345,6.345,0,0,1-6.305,6.278c-3.428-.031-6.352-3.237-6.3-6.909.047-3.554,2.63-5.9,6.429-5.846A6.591,6.591,0,0,1,536.575,658.344Z" transform="translate(-107.763 -241.144)" fill="#fff"/>
    <path id="Path_38050" data-name="Path 38050" d="M12.609,6.479A6.345,6.345,0,0,1,6.3,12.757C2.876,12.725-.048,9.52,0,5.847.048,2.294,2.631-.055,6.429,0A6.591,6.591,0,0,1,12.609,6.479Z" transform="matrix(0.891, 0.454, -0.454, 0.891, 574.077, 220.51)" fill="#fff"/>
    <path id="Path_38055" data-name="Path 38055" d="M758.2,751.49c5.247.054,8.165,3.988,6.568,8.335a5.534,5.534,0,0,1-4.817,3.938,5.649,5.649,0,0,1-5.837-2.872,6.063,6.063,0,0,1-.141-6.535C755.02,752.536,756.164,751.033,758.2,751.49Z" transform="translate(-718.323 -350.003)" fill="#fff"/>
    <path id="Path_37999" data-name="Path 37999" d="M212.614,1188.245c-.054,3.434-2.678,6.236-5.787,6.182a5.794,5.794,0,0,1-5.661-5.753c.02-3.023,2.706-5.881,5.464-5.816C210,1182.938,212.66,1185.333,212.614,1188.245Z" transform="translate(92.078 -605.179)" fill="#fff"/>
    <path id="Path_38001" data-name="Path 38001" d="M5.831,11.441A5.693,5.693,0,0,1,0,5.757C.018,2.769,2.565-.257,5.281.017,8.3.323,11.445,1.558,11.457,5.139,11.47,8.528,8.939,11.419,5.831,11.441Z" transform="matrix(0.839, -0.545, 0.545, 0.839, 348.261, 251.974)" fill="#fff"/>
    <path id="Path_38003" data-name="Path 38003" d="M-123.3,819.012c-3.381-.033-5.731-2.256-5.671-5.364a6.153,6.153,0,0,1,5.738-5.641,5.267,5.267,0,0,1,5.433,5.446A5.331,5.331,0,0,1-123.3,819.012Z" transform="translate(318.409 -348.19)" fill="#fff"/>
    <path id="Path_38004" data-name="Path 38004" d="M952.609-336.192c3.363.02,5.408,2.125,5.367,5.524a5.254,5.254,0,0,1-5.382,5.48c-3.338-.053-5.7-2.3-5.671-5.4A5.958,5.958,0,0,1,952.609-336.192Z" transform="translate(-419.195 436.243)" fill="#fff"/>
    <path id="Path_38005" data-name="Path 38005" d="M957.977,813.476c-.013,3.3-2.15,5.539-5.279,5.534-3.432-.005-5.777-2.131-5.775-5.235a5.992,5.992,0,0,1,5.577-5.77A5.093,5.093,0,0,1,957.977,813.476Z" transform="translate(-419.195 -348.19)" fill="#fff"/>
    <path id="Path_38006" data-name="Path 38006" d="M-123.166-325.281c-3.316,0-5.8-2.268-5.8-5.294a6.179,6.179,0,0,1,5.461-5.742,5.2,5.2,0,0,1,5.686,5.456A5.341,5.341,0,0,1-123.166-325.281Z" transform="translate(318.408 436.336)" fill="#fff"/>
    <path id="Path_38057" data-name="Path 38057" d="M1066.5,1352.16a4.418,4.418,0,0,1-4.227,4.7,5.25,5.25,0,0,1-5.1-5.275,4.441,4.441,0,0,1,4.547-4.721C1064.432,1346.855,1066.5,1349.145,1066.5,1352.16Z" transform="translate(-601.908 -1266.839)" fill="#fff"/>
    <path id="Path_38014" data-name="Path 38014" d="M766.482-59.6c.027-1.768,1.875-3.313,3.944-3.3a5.746,5.746,0,0,1,5.249,5.287,4.976,4.976,0,0,1-4.618,4.669C768.481-52.976,766.427-55.966,766.482-59.6Z" transform="translate(-295.488 248.882)" fill="#fff"/>
    <path id="Path_38015" data-name="Path 38015" d="M-309.117-59.393c-.022-2.112.941-3.13,3.327-3.516,2.286-.37,5,1.678,5.626,4.25a4.677,4.677,0,0,1-3.134,5.419,3.73,3.73,0,0,1-4.487-1.563A8.557,8.557,0,0,1-309.117-59.393Z" transform="translate(441.914 248.916)" fill="#fff"/>
    <path id="Path_38016" data-name="Path 38016" d="M766.581,1085.1c-.091-1.855.961-3.013,3.09-3.412a5.4,5.4,0,0,1,5.577,3.215,4.524,4.524,0,0,1-1.545,5.7,3.909,3.909,0,0,1-6.01-1.289A9.546,9.546,0,0,1,766.581,1085.1Z" transform="translate(-295.553 -535.769)" fill="#fff"/>
    <path id="Path_38017" data-name="Path 38017" d="M-309.112,1084.944c0-1.867.79-2.752,2.9-3.257,2.175-.521,4.836,1,5.807,3.323a4.571,4.571,0,0,1-1.988,5.821,3.842,3.842,0,0,1-5.54-1.388A8.59,8.59,0,0,1-309.112,1084.944Z" transform="translate(441.912 -535.748)" fill="#fff"/>
    <path id="Path_37925-2" data-name="Path 37925" d="M385.328,427.094q.308-8.866.616-17.732a20.017,20.017,0,0,0-.374-4.216,9.6,9.6,0,0,0-13.714-7.06,13.5,13.5,0,0,0-7.888,14.21c.184,1.716.442,3.425.669,5.137a8.232,8.232,0,0,1-3.7,8.269,5.255,5.255,0,0,1-7.246-.751c-3.359-3.556-4.806-8.044-5.8-12.68-1.794-8.361.967-15.562,5.9-22.152,6.366-8.5,14.763-13.357,25.453-13.765,15.381-.587,23.687,10.024,26.146,20.174,1.732,7.149.742,14.138-1.137,21.079-.956,3.53-2.043,7.024-2.982,10.558a25.91,25.91,0,0,0,.838,15.736c.988,2.755,1.927,5.528,2.836,8.31a5.166,5.166,0,0,1-1.252,5.783c-1.684,1.587-3.663,1.572-5.722.9-4.349-1.417-7.027-4.587-8.864-8.578-2.311-5.022-3.118-10.4-3.484-15.851-.164-2.447-.028-4.915-.028-7.373Z" transform="translate(-8.134 569.535)" fill="#fff"/>
    <path id="Path_38051-2" data-name="Path 38051" d="M37.991,50.763q.308-8.866.616-17.732a20.017,20.017,0,0,0-.374-4.216,9.6,9.6,0,0,0-13.714-7.06,13.5,13.5,0,0,0-7.888,14.21c.184,1.716.442,3.425.669,5.137a8.232,8.232,0,0,1-3.7,8.269A5.255,5.255,0,0,1,6.35,48.62C2.991,45.063,1.544,40.575.55,35.94c-1.794-8.361.967-15.563,5.9-22.152C12.818,5.291,21.215.432,31.9.023,47.286-.564,55.592,10.047,58.051,20.2c1.732,7.149.742,14.138-1.137,21.079-.956,3.53-2.043,7.024-2.982,10.558a25.91,25.91,0,0,0,.838,15.736c.988,2.755,1.927,5.528,2.836,8.31a5.166,5.166,0,0,1-1.252,5.783c-1.684,1.587-3.663,1.572-5.722.9-4.349-1.417-7.027-4.587-8.864-8.578-2.311-5.022-3.118-10.4-3.484-15.851-.164-2.447-.028-4.915-.028-7.373Z" transform="matrix(0.891, 0.454, -0.454, 0.891, 563.925, 739.884)" fill="#fff"/>
    <path id="Path_37930-2" data-name="Path 37930" d="M-74.9,657.5c-6.125-.032-11.16.758-15.544,4.039a16.219,16.219,0,0,1-4.944,2.683c-2.632.8-4.409-.245-5-2.939a9.063,9.063,0,0,1,.195-4.349c1.747-6.508,6.1-10.245,12.508-11.89,4.41-1.132,8.98-1.493,13.337-2.847a20.037,20.037,0,0,0,7.642-3.861c2.994-2.663,5.32-5.816,4.117-10a11.268,11.268,0,0,0-8.757-8.13,14.9,14.9,0,0,0-9.5,1.066c-1.682.72-3.357,1.459-5.043,2.169a13.368,13.368,0,0,1-8.168.513c-4.417-.938-5.381-5.685-2.549-8.562,8.2-8.329,17.763-12.1,29.458-9.241a44.93,44.93,0,0,1,13.943,5.9c8.677,5.636,11.848,13.614,10.417,23.746-1.489,10.537-11.591,20.1-19.207,21.6a32.921,32.921,0,0,1-8.589.431C-72.312,657.715-74.032,657.57-74.9,657.5Z" transform="translate(298.943 412.625)" fill="#fff"/>
    <path id="Path_37931-2" data-name="Path 37931" d="M-42.371-512.853c.343,11.609-8.34,21.253-16.345,24.772-4.48,1.969-9.174,1.715-13.894,1.3-6.569-.579-12.851.113-18.333,4.292a13.762,13.762,0,0,1-4.282,2.268c-2.692.827-4.634-.255-5.054-3.043-.689-4.57,1.309-8.289,4.221-11.534,2.789-3.109,6.67-4.18,10.575-5.07,3.567-.813,7.229-1.178,10.748-2.211A20.577,20.577,0,0,0-67-505.762c3.212-2.716,5.649-5.9,4.52-10.454-1.035-4.171-5.489-7.641-9.965-8.23a17.17,17.17,0,0,0-9.272,1.693c-2.435,1.061-4.782,2.364-7.51,2.626a13.652,13.652,0,0,1-5.715-.673c-3.513-1.173-4-5.629-1.9-7.837,5.124-5.385,11.063-9.355,18.537-10.356,6.765-.906,13.2.746,19.379,3.449a33.542,33.542,0,0,1,10.32,6.758A20.757,20.757,0,0,1-42.371-512.853Z" transform="translate(298.834 1197.23)" fill="#fff"/>
    <path id="Path_37932-2" data-name="Path 37932" d="M1000.646-538.909a40.311,40.311,0,0,1,24.266,8.556c7.21,5.638,9.536,13.255,7.9,21.971-2,10.621-8.3,17.843-18.57,21.376-3.636,1.251-7.456.774-11.215.451-6.634-.571-12.959.119-18.471,4.353a17.32,17.32,0,0,1-2.848,1.649c-1.589.793-3.323,1.41-4.9.225a4.968,4.968,0,0,1-1.658-4.978c.96-6.295,4.251-10.8,10.355-13.039a68.366,68.366,0,0,1,11.148-2.538,34.783,34.783,0,0,0,8.531-2.581c3.74-1.766,6.647-4.349,7.89-8.446a7.353,7.353,0,0,0-1.016-6.44,12.554,12.554,0,0,0-15.19-5.283c-2.523.837-4.931,2.015-7.411,2.988a13.182,13.182,0,0,1-8.167.31,4.961,4.961,0,0,1-2.3-8.387c5.118-5.151,10.925-8.9,18.2-10.07a6.66,6.66,0,0,1,.934-.11C998.972-538.919,999.809-538.909,1000.646-538.909Z" transform="translate(-438.487 1197.002)" fill="#fff"/>
    <path id="Path_37933-2" data-name="Path 37933" d="M1033.312,631.78c.369,12.933-10.54,23.3-18.525,25.518a27.25,27.25,0,0,1-9.962.665,38.709,38.709,0,0,0-13.4.709c-2.457.629-4.444,2.046-6.52,3.344a18.582,18.582,0,0,1-4.721,2.438c-2.421.68-4.122-.313-4.762-2.724a8.728,8.728,0,0,1,.152-4.648,15.705,15.705,0,0,1,11.481-11.551c3.929-1.143,8.006-1.563,11.968-2.523,4.31-1.045,8.472-2.441,11.515-5.939,5.2-5.98,2.731-14.1-4.95-16.387a15.127,15.127,0,0,0-10.715.777c-1.675.735-3.34,1.5-5.035,2.184a13.393,13.393,0,0,1-8.476.406,4.915,4.915,0,0,1-2.388-8.27c5.8-5.907,12.448-10.345,20.964-10.315,11.289.039,21.279,3.768,28.914,12.446C1032.2,621.719,1033.358,626.447,1033.312,631.78Z" transform="translate(-438.559 412.448)" fill="#fff"/>
    <path id="Path_37934-2" data-name="Path 37934" d="M-288.321,279.475c-.024,1.772.236,3.555-.3,5.306a6.453,6.453,0,0,1-10.862,2.941,17.49,17.49,0,0,1-5.343-15.579c1.466-11.449,8.207-18.845,18.822-22.289,9.928-3.221,20.587-.427,27.065,7.3a23.481,23.481,0,0,1,5.3,16.657c-.235,5.4-1.56,10.671-1.688,16.074a33.9,33.9,0,0,0,2.832,14.822,18.717,18.717,0,0,1,1.614,4.571c.656,4.035-2.365,6.671-6.325,5.52a15.068,15.068,0,0,1-7.839-5.747c-3.875-5.128-5.575-11.082-6.276-17.349-.529-4.73-.844-9.484-1.271-14.226a14.173,14.173,0,0,0-.991-3.943c-1.562-3.942-4.825-6-8.55-5.407-3.292.52-5.923,3.785-6.177,7.739C-288.386,277.063-288.321,278.271-288.321,279.475Z" transform="translate(439.095 657.147)" fill="#fff"/>
    <path id="Path_37935-2" data-name="Path 37935" d="M787.525,280.044a13.966,13.966,0,0,1-.576,5.633A6.421,6.421,0,0,1,776.5,288.1c-5.32-5.017-6.53-11.254-5.177-18.152,2.528-12.885,15.72-22.413,28.809-20.934,7.246.819,13.441,3.611,17.752,9.67,3.962,5.568,4.854,11.909,4.074,18.578-.552,4.726-1.533,9.407-1.481,14.2a33.906,33.906,0,0,0,3,13.854,21.616,21.616,0,0,1,1.5,4.28c.884,3.986-2.756,6.506-6.3,5.449a15.518,15.518,0,0,1-8.24-6.217c-3.568-4.986-5.233-10.679-5.907-16.675-.537-4.782-.835-9.59-1.286-14.383a13.964,13.964,0,0,0-1.163-4.381c-1.643-3.692-4.762-5.585-8.32-5.045-3.213.488-5.855,3.569-6.206,7.369C787.424,277.005,787.525,278.323,787.525,280.044Z" transform="translate(-298.456 656.927)" fill="#fff"/>
    <path id="Path_38054-2" data-name="Path 38054" d="M642.52,559.011c1.141-12.486,6.2-20.051,17.15-24.151a23.928,23.928,0,0,1,15.216-.935c7.279,2.032,13.93,11.633,13.411,17.658-.322,3.736-2.271,6.553-4.476,9.3-1.407,1.755-2.888,3.45-4.311,5.192-3.434,4.206-3.938,8.961-2.619,14.062.955,3.694,2.586,7.178,3.346,10.936a4.032,4.032,0,0,1-1.248,4.261,3.866,3.866,0,0,1-4.276.425,12.9,12.9,0,0,1-6.653-5.932c-2.565-4.763-4.332-9.754-4.255-15.237a37.085,37.085,0,0,1,1.631-9.4,62.584,62.584,0,0,0,1.614-7.5c.008-.052.024-.1.031-.154.4-2.981-.9-5.511-3.165-6.13-2.4-.658-4.944.757-6.058,3.563-.789,1.987-1.335,4.068-2.029,6.094a7.6,7.6,0,0,1-6.433,5.487,3.719,3.719,0,0,1-3.835-1.265C644.125,563.128,642.441,560.987,642.52,559.011Z" transform="translate(-642.518 421.45)" fill="#fff"/>
    <path id="Path_37941-2" data-name="Path 37941" d="M-408.049-205.578a30.01,30.01,0,0,0-.709-8.413,6.685,6.685,0,0,0-6.054-5.3c-3.5-.068-5.726,2.817-4.808,6.412.489,1.918,1.237,3.772,1.9,5.641.675,1.89.567,3.666-.975,5.052a5.115,5.115,0,0,1-5.415.917,7.263,7.263,0,0,1-4.432-3.941c-2.78-5.66-4.4-11.414-1.615-17.621,3.3-7.352,11.437-11.969,20.045-11.25a18.122,18.122,0,0,1,16.28,13.929c1.016,4.127.307,8.222-.307,12.309-.3,2.016-.72,4.016-1.055,6.028a21.181,21.181,0,0,0,1.1,11.57,12.121,12.121,0,0,1,.882,3.489c.125,1.52-.068,2.975-1.439,3.925a3.979,3.979,0,0,1-4.33.147c-3.181-1.7-5.175-4.5-6.664-7.693C-407.891-195.206-408.155-200.365-408.049-205.578Z" transform="translate(539.325 984.236)" fill="#fff"/>
    <path id="Path_37943-2" data-name="Path 37943" d="M667.777-206.186a26.729,26.729,0,0,0-.741-7.947c-1.031-3.7-4.262-5.8-7.541-4.916a4.429,4.429,0,0,0-3.486,4.892,19.353,19.353,0,0,0,1.391,4.966c.29.84.646,1.662.871,2.519a4.584,4.584,0,0,1-5.791,5.627,7.565,7.565,0,0,1-5.2-4.16c-2.724-5.624-4.36-11.3-1.675-17.478,3.74-8.6,14.178-13.4,23.645-10.755,9.038,2.525,14.406,11.255,13.089,20.914-.551,4.045-1.373,8.041-1.867,12.093a19.988,19.988,0,0,0,.907,9.129,20.479,20.479,0,0,1,1.256,4.682c.329,3.305-2.2,5.3-5.335,4.118a11.7,11.7,0,0,1-5.137-4.476c-3.181-4.357-4.179-9.4-4.383-14.653C667.734-202.94,667.777-204.251,667.777-206.186Z" transform="translate(-211.682 988.076)" fill="#fff"/>
    <path id="Path_37945-2" data-name="Path 37945" d="M278.086-105.075a24.55,24.55,0,0,1-.524,6.6c-1.351,6.224-6.256,9.019-12.127,9.92-3.623.556-7.305.371-10.954.807a12.487,12.487,0,0,0-8.814,4.8,17.551,17.551,0,0,1-2.924,2.838,7.711,7.711,0,0,1-2.318,1.3c-3.5,1.189-5.877-.4-5.956-4.093-.105-4.878,2.626-8.242,6.234-11.028a30.341,30.341,0,0,1,9.721-4.635c1.645-.515,3.29-1.04,4.9-1.653a17.188,17.188,0,0,0,2.95-1.441c2.149-1.335,2.884-3.087,2.28-5.148-.841-2.873-2.629-4.362-5.216-4.371a18.488,18.488,0,0,0-5.192,1.119,12.8,12.8,0,0,1-6.8.4c-2.933-.734-3.872-2.739-2.479-5.453a4.48,4.48,0,0,1,.746-1.193c4.111-4,8.249-7.925,14.493-8.206a17.142,17.142,0,0,1,9.512,2.11c1.9,1.09,3.724,2.336,5.511,3.612C275.953-115.35,277.8-110.4,278.086-105.075Z" transform="translate(69.248 912.921)" fill="#fff"/>
    <path id="Path_38058" data-name="Path 38058" d="M43.621,19.467a24.549,24.549,0,0,1-.524,6.6c-1.351,6.224-6.256,9.019-12.127,9.919-3.623.556-7.305.371-10.954.807a12.487,12.487,0,0,0-8.814,4.8A17.551,17.551,0,0,1,8.277,44.43a7.711,7.711,0,0,1-2.318,1.3C2.46,46.914.082,45.326,0,41.633-.1,36.755,2.629,33.391,6.237,30.6a30.341,30.341,0,0,1,9.721-4.635c1.645-.515,3.29-1.04,4.9-1.653a17.189,17.189,0,0,0,2.95-1.441c2.149-1.335,2.884-3.087,2.28-5.148-.841-2.873-2.629-4.362-5.216-4.371a18.489,18.489,0,0,0-5.192,1.119,12.8,12.8,0,0,1-6.8.4C5.946,14.141,5.007,12.136,6.4,9.422a4.48,4.48,0,0,1,.746-1.193C11.257,4.231,15.4.3,21.64.023a17.142,17.142,0,0,1,9.512,2.11c1.9,1.09,3.724,2.336,5.511,3.612C41.487,9.192,43.336,14.137,43.621,19.467Z" transform="matrix(0.848, -0.53, 0.53, 0.848, 84.107, 641.38)" fill="#fff"/>
    <path id="Path_38060" data-name="Path 38060" d="M43.621,19.467a24.55,24.55,0,0,1-.524,6.6c-1.351,6.224-6.256,9.019-12.127,9.919-3.623.556-7.305.371-10.954.807a12.487,12.487,0,0,0-8.814,4.8A17.551,17.551,0,0,1,8.277,44.43a7.712,7.712,0,0,1-2.318,1.3C2.46,46.914.082,45.326,0,41.633-.1,36.755,2.629,33.391,6.237,30.6a30.341,30.341,0,0,1,9.721-4.635c1.645-.515,3.29-1.04,4.9-1.653a17.189,17.189,0,0,0,2.95-1.441c2.149-1.335,2.884-3.087,2.28-5.148-.841-2.873-2.629-4.362-5.216-4.371a18.489,18.489,0,0,0-5.192,1.119,12.8,12.8,0,0,1-6.8.4C5.946,14.141,5.007,12.136,6.4,9.422a4.48,4.48,0,0,1,.746-1.193C11.257,4.231,15.4.3,21.64.023a17.142,17.142,0,0,1,9.512,2.11c1.9,1.09,3.724,2.336,5.511,3.612C41.487,9.192,43.336,14.137,43.621,19.467Z" transform="matrix(0.656, -0.755, 0.755, 0.656, 90.418, 32.946)" fill="#fff"/>
    <path id="Path_38056-2" data-name="Path 38056" d="M915.839,1231.973c-.014-9.156,7.279-18.656,15.419-20.315,8.6-1.753,18.781,4.438,20.631,12.513.792,3.455.354,6.887-.256,10.277-.954,5.3.636,9.668,4.315,13.448,1.729,1.777,2.045,3.26,1.209,4.762a4.7,4.7,0,0,1-5.322,2.034c-6.739-1.82-10.627-6.333-12.06-13.057-.5-2.347-.838-4.729-1.3-7.086a11.212,11.212,0,0,0-1.21-3.383q-2.027-3.6-6.186-2.053c-2.122.788-2.977,2.658-2.345,5.275.452,1.877,1.077,3.718,1.452,5.608a6.651,6.651,0,0,1-4.209,7.4,4.27,4.27,0,0,1-4.351-.963c-3.326-2.79-4.814-6.49-5.469-10.633A17.78,17.78,0,0,1,915.839,1231.973Z" transform="translate(-475.004 -552.157)" fill="#fff"/>
    <path id="Path_37983-2" data-name="Path 37983" d="M-129.978,473.979a5.487,5.487,0,0,1,5.663-6.058c3.472.027,6.623,3.756,6.55,7.671-.058,3.113-2.658,5.885-5.428,5.788A7.22,7.22,0,0,1-129.978,473.979Z" transform="translate(319.105 506.744)" fill="#fff"/>
    <path id="Path_37984-2" data-name="Path 37984" d="M945.887,474a5.468,5.468,0,0,1,5.605-6.093c3.444.028,6.69,3.806,6.607,7.648-.066,3.043-2.562,5.8-5.268,5.817A7.149,7.149,0,0,1,945.887,474Z" transform="translate(-418.472 506.756)" fill="#fff"/>
    <path id="Path_37987-2" data-name="Path 37987" d="M536.575,658.344a6.345,6.345,0,0,1-6.305,6.278c-3.428-.031-6.352-3.237-6.3-6.909.047-3.554,2.63-5.9,6.429-5.846A6.591,6.591,0,0,1,536.575,658.344Z" transform="translate(-129.226 380.636)" fill="#fff"/>
    <path id="Path_38050-2" data-name="Path 38050" d="M12.609,6.479A6.345,6.345,0,0,1,6.3,12.757C2.876,12.725-.048,9.52,0,5.847.048,2.294,2.631-.055,6.429,0A6.591,6.591,0,0,1,12.609,6.479Z" transform="matrix(0.891, 0.454, -0.454, 0.891, 574.077, 842.289)" fill="#fff"/>
    <path id="Path_38055-2" data-name="Path 38055" d="M758.2,751.49c5.247.054,8.165,3.988,6.568,8.335a5.534,5.534,0,0,1-4.817,3.938,5.649,5.649,0,0,1-5.837-2.872,6.063,6.063,0,0,1-.141-6.535C755.02,752.536,756.164,751.033,758.2,751.49Z" transform="translate(-718.323 271.777)" fill="#fff"/>
    <path id="Path_38001-2" data-name="Path 38001" d="M207,50.135a5.693,5.693,0,0,1-5.831-5.684c.018-2.988,2.565-6.015,5.281-5.74,3.018.305,6.163,1.541,6.176,5.122C212.636,47.223,210.106,50.114,207,50.135Z" transform="translate(92.077 801.01)" fill="#fff"/>
    <path id="Path_38059" data-name="Path 38059" d="M5.831,11.441A5.693,5.693,0,0,1,0,5.757C.018,2.769,2.565-.257,5.281.017,8.3.323,11.445,1.558,11.457,5.139,11.47,8.528,8.939,11.419,5.831,11.441Z" transform="matrix(0.848, -0.53, 0.53, 0.848, 102.427, 690.455)" fill="#fff"/>
    <path id="Path_38061" data-name="Path 38061" d="M5.831,11.441A5.693,5.693,0,0,1,0,5.757C.018,2.769,2.565-.257,5.281.017,8.3.323,11.445,1.558,11.457,5.139,11.47,8.528,8.939,11.419,5.831,11.441Z" transform="matrix(0.656, -0.755, 0.755, 0.656, 122.285, 74.521)" fill="#fff"/>
    <path id="Path_38003-2" data-name="Path 38003" d="M-123.3,819.012c-3.381-.033-5.731-2.256-5.671-5.364a6.153,6.153,0,0,1,5.738-5.641,5.267,5.267,0,0,1,5.433,5.446A5.331,5.331,0,0,1-123.3,819.012Z" transform="translate(318.409 273.59)" fill="#fff"/>
    <path id="Path_38004-2" data-name="Path 38004" d="M952.609-336.192c3.363.02,5.408,2.125,5.367,5.524a5.254,5.254,0,0,1-5.382,5.48c-3.338-.053-5.7-2.3-5.671-5.4A5.958,5.958,0,0,1,952.609-336.192Z" transform="translate(-419.195 1058.023)" fill="#fff"/>
    <path id="Path_38005-2" data-name="Path 38005" d="M957.977,813.476c-.013,3.3-2.15,5.539-5.279,5.534-3.432-.005-5.777-2.131-5.775-5.235a5.992,5.992,0,0,1,5.577-5.77A5.093,5.093,0,0,1,957.977,813.476Z" transform="translate(-419.195 273.59)" fill="#fff"/>
    <path id="Path_38006-2" data-name="Path 38006" d="M-123.166-325.281c-3.316,0-5.8-2.268-5.8-5.294a6.179,6.179,0,0,1,5.461-5.742,5.2,5.2,0,0,1,5.686,5.456A5.341,5.341,0,0,1-123.166-325.281Z" transform="translate(318.408 1058.116)" fill="#fff"/>
    <path id="Path_38057-2" data-name="Path 38057" d="M1066.5,1352.16a4.418,4.418,0,0,1-4.227,4.7,5.25,5.25,0,0,1-5.1-5.275,4.441,4.441,0,0,1,4.547-4.721C1064.432,1346.855,1066.5,1349.145,1066.5,1352.16Z" transform="translate(-571.908 -645.059)" fill="#fff"/>
    <path id="Path_38014-2" data-name="Path 38014" d="M766.482-59.6c.027-1.768,1.875-3.313,3.944-3.3a5.746,5.746,0,0,1,5.249,5.287,4.976,4.976,0,0,1-4.618,4.669C768.481-52.976,766.427-55.966,766.482-59.6Z" transform="translate(-295.488 870.662)" fill="#fff"/>
    <path id="Path_38015-2" data-name="Path 38015" d="M-309.117-59.393c-.022-2.112.941-3.13,3.327-3.516,2.286-.37,5,1.678,5.626,4.25a4.677,4.677,0,0,1-3.134,5.419,3.73,3.73,0,0,1-4.487-1.563A8.557,8.557,0,0,1-309.117-59.393Z" transform="translate(455.356 866.867)" fill="#fff"/>
    <path id="Path_37914" data-name="Path 37914" d="M-620.813,1396.172c-3.37-2.7-3.623-6.943-.579-9.729,2.843-2.6,6.6-1.881,8.326,1.6,1.512,3.055.73,5.7-2.4,8.131Z" transform="translate(657.459 -743.679)" fill="#fff" opacity="0.6"/>
    <path id="Path_37920" data-name="Path 37920" d="M121.847,139.565c11.332.654,21.5,4.208,29.671,12.384,4.842,4.844,7.532,10.888,8.805,17.56a40.1,40.1,0,0,1-2.37,23.367c-2.405,5.793-6.823,9.639-12,12.849-5.979,3.71-12.59,5.921-19.2,8.074A37.6,37.6,0,0,0,108.3,227.028a34.828,34.828,0,0,1-3.322,3.551,4.569,4.569,0,0,1-4.877,1.337,5.188,5.188,0,0,1-3.462-4.468,18.97,18.97,0,0,1,.575-7.438c2.284-9.758,8.285-16.577,16.841-21.412,4.92-2.78,10.047-5.192,14.752-8.35a25.416,25.416,0,0,0,7.965-7.682c4.843-7.983,1.638-14.389-6.488-18.309-5.078-2.45-10.084-1.469-15,.7a60.145,60.145,0,0,1-8.71,3.547c-3.847,1.015-7.733,1.483-11.5-.379a8.219,8.219,0,0,1-4.124-9.974c1.122-3.57,3.7-6.032,6.32-8.429a38.522,38.522,0,0,1,20.47-9.881C119.1,139.625,120.46,139.684,121.847,139.565Z" transform="translate(167.915 110.076)" fill="#fff" opacity="0.6"/>
    <path id="Path_38049" data-name="Path 38049" d="M121.847,139.565c11.332.654,21.5,4.208,29.671,12.384,4.842,4.844,7.532,10.888,8.805,17.56a40.1,40.1,0,0,1-2.37,23.367c-2.405,5.793-6.823,9.639-12,12.849-5.979,3.71-12.59,5.921-19.2,8.074A37.6,37.6,0,0,0,108.3,227.028a34.828,34.828,0,0,1-3.322,3.551,4.569,4.569,0,0,1-4.877,1.337,5.188,5.188,0,0,1-3.462-4.468,18.97,18.97,0,0,1,.575-7.438c2.284-9.758,8.285-16.577,16.841-21.412,4.92-2.78,10.047-5.192,14.752-8.35a25.416,25.416,0,0,0,7.965-7.682c4.843-7.983,1.638-14.389-6.488-18.309-5.078-2.45-10.084-1.469-15,.7a60.145,60.145,0,0,1-8.71,3.547c-3.847,1.015-7.733,1.483-11.5-.379a8.219,8.219,0,0,1-4.124-9.974c1.122-3.57,3.7-6.032,6.32-8.429a38.522,38.522,0,0,1,20.47-9.881C119.1,139.625,120.46,139.684,121.847,139.565Z" transform="translate(506.171 110.076)" fill="#fff" opacity="0.6"/>
    <path id="Path_37922" data-name="Path 37922" d="M-47.913-214.3c-.214-7.967,1.609-15.479,3.614-22.967A48.858,48.858,0,0,0-42.333-250.4a19.046,19.046,0,0,0-1.274-7.221c-1.651-3.947-4.91-5.662-8.92-6.284A14.858,14.858,0,0,0-69.679-249.28a45.266,45.266,0,0,1-.8,9.2c-1.235,5.179-8.159,8.989-13.169,7.213a5.7,5.7,0,0,1-2.434-1.655A17.234,17.234,0,0,1-90.26-242.9c-1.534-8.335-.991-16.282,3.984-23.458a32.883,32.883,0,0,1,15.8-11.932c9.77-3.734,19.86-4.728,29.835-1.538,10.748,3.437,18.022,10.765,20.187,22.151,1.44,7.57-.266,14.846-3.449,21.812-2.476,5.42-5.329,10.674-7.235,16.349a36.967,36.967,0,0,0-1.489,17.327c.621,4.279-1.284,7.262-5.136,7.965-2.527.461-5.439-1.255-7.129-4.191a24.264,24.264,0,0,1-2.7-9.115A37.089,37.089,0,0,1-47.913-214.3Z" transform="translate(292.391 398.916)" fill="#fff" opacity="0.6"/>
    <path id="Path_37923" data-name="Path 37923" d="M-47.931,930.442c-.177-7.923,1.49-15.307,3.493-22.637a52.308,52.308,0,0,0,2.1-13.592,21.169,21.169,0,0,0-.658-5.28c-1.317-5.2-5.173-8.135-10.947-8.4-8.495-.385-15.181,5.732-15.7,14.34-.16,2.659-.225,5.336-.6,7.967-.735,5.139-3.981,8.287-9.1,9.152-3.307.56-5.6-.531-7.813-3.256-2.7-3.318-3.206-7.088-3.65-10.918-1.164-10.044,1.894-18.587,9.678-25.246a38.673,38.673,0,0,1,18.445-8.541c7.906-1.468,15.888-1.75,23.509,1.189,8.847,3.411,15.307,9.585,18.062,18.795,2.21,7.389,1.256,14.838-1.7,21.927-2.23,5.357-4.812,10.566-7.128,15.888a39.935,39.935,0,0,0-3.129,12.42,39.654,39.654,0,0,0,.394,7.506c.268,2.659.421,5.3-1.965,7.207-3.225,2.576-7.509,1.577-9.941-2.241a22.282,22.282,0,0,1-3-9.489A33.824,33.824,0,0,1-47.931,930.442Z" transform="translate(292.407 -385.864)" fill="#fff" opacity="0.6"/>
    <path id="Path_37924" data-name="Path 37924" d="M1027.874,929.826c-.208-7.713,1.649-15.166,3.626-22.6a53.162,53.162,0,0,0,1.945-11.412,22.491,22.491,0,0,0-.98-8.055c-1.466-4.434-5.189-6.988-10.506-7.282a14.874,14.874,0,0,0-15.808,14.077c-.2,2.761-.153,5.534-.549,8.29a10.46,10.46,0,0,1-9.351,9.1c-3.148.367-5.376-.549-7.541-3.193-2.972-3.63-3.423-7.787-3.808-11.979-.847-9.251,2.02-17.263,8.971-23.587a38.6,38.6,0,0,1,18.828-9.145c8.062-1.612,16.213-1.881,23.959,1.14,9.318,3.634,16.077,10.182,18.356,20.168,1.753,7.682.491,15.272-2.773,22.51-2.322,5.147-5,10.132-6.993,15.429a37.576,37.576,0,0,0-2.082,19.261c.734,4.781-2.19,8.138-6.753,7.711-2.32-.217-3.877-1.718-5.126-3.536-1.954-2.844-2.583-6.146-3.051-9.469A40.941,40.941,0,0,1,1027.874,929.826Z" transform="translate(-445.134 -385.796)" fill="#fff" opacity="0.6"/>
    <path id="Path_37926" data-name="Path 37926" d="M-635.888-290.889c-.125-5.128.843-9.715,1.142-14.359.226-3.511.349-7-.757-10.414a8.229,8.229,0,0,0-6.473-5.938,9.024,9.024,0,0,0-9.552,3.151c-2.62,3.122-3.052,6.9-3.524,10.7A12.717,12.717,0,0,1-656.989-302c-2.4,3.515-6.512,3.8-9.744,1.262-2.332-1.834-2.405-4.3-2.833-6.641-1.247-6.842-.946-13.651,2.453-19.865,4.522-8.264,11.914-12.983,20.882-15.052,13.955-3.22,28.1,6.051,30.992,20.744a17.215,17.215,0,0,1-1.371,10.132c-1.819,4.285-3.637,8.572-5.332,12.906a26.636,26.636,0,0,0-.294,19.615,31.054,31.054,0,0,1,1.324,4.344c.784,3.678-1.821,6.018-5.473,4.986a10.58,10.58,0,0,1-6.568-5.7,27.251,27.251,0,0,1-2.557-9.493A38.982,38.982,0,0,1-635.888-290.889Z" transform="translate(689.491 440.868)" fill="#fff" opacity="0.6"/>
    <path id="Path_37927" data-name="Path 37927" d="M-635.8,853.076c-.078-4.673.855-9.261,1.165-13.9a28.854,28.854,0,0,0-.511-9.513c-.983-3.666-3.209-6.059-7.037-6.734-3.878-.685-7.126.324-9.567,3.582-2.275,3.036-2.75,6.6-3.187,10.2A12.8,12.8,0,0,1-657,842.724c-2.347,3.329-6.456,3.58-9.637,1.074-2.365-1.863-2.438-4.394-2.873-6.805a32.032,32.032,0,0,1,1.671-18.027,24.561,24.561,0,0,1,8.406-10.35c5.607-4.226,11.734-7.085,18.94-6.878,10.393.3,17.975,5.19,22.917,14.254a19.469,19.469,0,0,1,.788,17.951c-1.808,4.172-3.717,8.3-5.248,12.6a26.938,26.938,0,0,0,.095,19.614,14.646,14.646,0,0,1,1.261,4.994,3.9,3.9,0,0,1-5.011,4c-4.487-1.042-6.8-4.254-8.2-8.312A43.173,43.173,0,0,1-635.8,853.076Z" transform="translate(689.391 -343.885)" fill="#fff" opacity="0.6"/>
    <path id="Path_37928" data-name="Path 37928" d="M439.915,853.277c-.089-4.674.744-9.271,1.151-13.9a28.8,28.8,0,0,0-.564-9.975,8.377,8.377,0,0,0-7.168-6.6,9.18,9.18,0,0,0-9.767,4.161c-1.974,2.893-2.349,6.208-2.781,9.528a12.674,12.674,0,0,1-2.476,6.668,6.517,6.517,0,0,1-9.171.662c-2.3-1.807-2.49-4.257-2.911-6.63-1.147-6.453-1.011-12.922,1.948-18.885,4.557-9.185,12.437-14.354,22.245-16.224a25.815,25.815,0,0,1,30.1,20.815c.747,3.86-.206,7.461-1.636,11-1.663,4.122-3.6,8.125-5.128,12.308a27.233,27.233,0,0,0,.18,20.354,14.291,14.291,0,0,1,1.072,4.241,3.9,3.9,0,0,1-5.034,4.264,10.615,10.615,0,0,1-7.477-6.587C440.371,863.631,440,858.475,439.915,853.277Z" transform="translate(-48.05 -343.81)" fill="#fff" opacity="0.6"/>
    <path id="Path_37929" data-name="Path 37929" d="M439.931-291.651c-.14-4.17.8-8.655,1.142-13.188a30.368,30.368,0,0,0-.493-9.828c-.887-3.521-2.94-5.954-6.631-6.77-4.144-.916-7.515.186-10.09,3.657-2.2,2.961-2.634,6.428-3.06,9.915a14.13,14.13,0,0,1-1.752,5.647c-2.254,3.781-6.54,4.241-9.994,1.571-2.365-1.828-2.416-4.31-2.815-6.655-1.325-7.8-.939-15.543,3.888-22.118,6.251-8.515,14.818-13.436,25.574-13.3,12.115.147,22.511,9.216,24.8,21.079a16.316,16.316,0,0,1-.958,9.391c-1.791,4.41-3.68,8.78-5.433,13.2-2.7,6.82-3.133,13.7-.38,20.646a23.963,23.963,0,0,1,1.2,4.055c.73,3.609-1.838,5.95-5.4,4.944-3.806-1.075-6.03-3.806-7.38-7.347C440.374-281.418,439.96-286.306,439.931-291.651Z" transform="translate(-48.064 440.723)" fill="#fff" opacity="0.6"/>
    <path id="Path_38052" data-name="Path 38052" d="M34.351,51.076c-.14-4.17.8-8.655,1.142-13.188A30.368,30.368,0,0,0,35,28.061c-.887-3.521-2.94-5.954-6.631-6.77-4.144-.916-7.515.186-10.09,3.657-2.2,2.961-2.634,6.428-3.06,9.915a14.13,14.13,0,0,1-1.752,5.647c-2.254,3.781-6.54,4.241-9.994,1.571C1.108,40.253,1.056,37.77.658,35.426c-1.325-7.8-.939-15.543,3.888-22.118C10.8,4.793,19.364-.128,30.12,0c12.115.147,22.511,9.216,24.8,21.079a16.316,16.316,0,0,1-.958,9.391c-1.791,4.41-3.68,8.78-5.433,13.2-2.7,6.82-3.133,13.7-.38,20.646a23.963,23.963,0,0,1,1.2,4.055c.73,3.609-1.838,5.95-5.4,4.944-3.806-1.075-6.03-3.806-7.38-7.347C34.794,61.309,34.38,56.422,34.351,51.076Z" transform="matrix(0.656, -0.755, 0.755, 0.656, 333.163, 609.055)" fill="#fff" opacity="0.6"/>
    <path id="Path_37936" data-name="Path 37936" d="M-433.428,558.576c1.346-13.212,7.2-21.226,20.04-24.811,5.941-1.659,11.772-1.365,16.993,2.272a21.177,21.177,0,0,1,8.268,11.342c1.536,4.957-.458,9-3.486,12.731-1.221,1.5-2.456,3-3.76,4.427-4.313,4.735-5.286,10.141-3.436,16.189,1.009,3.3,2.335,6.494,3.075,9.878.371,1.7.31,3.263-1.084,4.465-1.447,1.246-3.044,1.1-4.7.365a12.815,12.815,0,0,1-6.2-5.556,31.7,31.7,0,0,1-4.4-14.256,34.315,34.315,0,0,1,1.613-10.494,56.466,56.466,0,0,0,1.638-7.658,9.469,9.469,0,0,0,.08-1.409c-.052-2.593-1.316-4.408-3.384-4.888a4.962,4.962,0,0,0-5.458,2.787,23.937,23.937,0,0,0-1.847,5.157c-.989,3.5-2.626,6.4-6.6,7.184-1.737.343-3.472.115-4.394-1.333C-431.864,562.785-433.693,560.669-433.428,558.576Z" transform="translate(527.156 -159.513)" fill="#fff" opacity="0.6"/>
    <path id="Path_37937" data-name="Path 37937" d="M0,25.922C1.144,13.435,6.2,5.871,17.152,1.771A23.928,23.928,0,0,1,32.369.836C39.647,2.867,46.3,12.468,45.779,18.493c-.322,3.736-2.271,6.553-4.476,9.3-1.407,1.755-2.888,3.45-4.311,5.192-3.434,4.206-3.938,8.961-2.619,14.062.955,3.694,2.586,7.178,3.346,10.936a4.032,4.032,0,0,1-1.248,4.261,3.866,3.866,0,0,1-4.276.425,12.9,12.9,0,0,1-6.653-5.932c-2.565-4.763-4.332-9.754-4.255-15.237a37.085,37.085,0,0,1,1.631-9.4,62.584,62.584,0,0,0,1.614-7.5c.008-.052.024-.1.031-.154.4-2.981-.9-5.511-3.165-6.13-2.4-.658-4.944.757-6.058,3.563-.789,1.987-1.335,4.068-2.029,6.094a7.6,7.6,0,0,1-6.433,5.487A3.719,3.719,0,0,1,3.043,32.2C1.607,30.039-.076,27.9,0,25.922Z" transform="translate(45.338 909.264) rotate(25)" fill="#fff" opacity="0.6"/>
    <path id="Path_37938" data-name="Path 37938" d="M213.756,586.832c10.332-.025,18.406,7.771,18,17.849-.289,7.269-4.352,12.471-10.418,16.175-1.916,1.17-3.912,2.225-5.928,3.216a27.526,27.526,0,0,0-11.93,11.663,14.411,14.411,0,0,1-3.108,4.112c-2.884,2.435-6.165,1.459-7.157-2.178a13.509,13.509,0,0,1,.488-8.171c2.331-6.643,7.062-11.108,13.1-14.37,2.672-1.442,5.383-2.82,7.286-5.321,1.628-2.139,1.979-4.673.8-6.079-1.215-1.454-4.181-1.709-6.419-.412-1.626.942-3.153,2.055-4.711,3.11a8.21,8.21,0,0,1-2.434,1.057,4.6,4.6,0,0,1-5.861-5.422A18.239,18.239,0,0,1,213.756,586.832Z" transform="translate(97.817 -196.559)" fill="#fff" opacity="0.6"/>
    <path id="Path_37939" data-name="Path 37939" d="M231.9-539.274c-.528,6.492-4.171,11.868-10.283,15.648-2.175,1.345-4.473,2.5-6.749,3.674a26.578,26.578,0,0,0-11.02,10.859,21.141,21.141,0,0,1-2.783,3.98c-1.322,1.429-2.948,2.3-4.906,1.78-1.817-.482-2.565-2.035-2.95-3.744-.9-4,.164-7.662,2.042-11.158,2.644-4.923,6.716-8.355,11.558-10.962a24.04,24.04,0,0,0,6.7-4.585,6.626,6.626,0,0,0,2.123-4.9,2.99,2.99,0,0,0-2.316-2.972,6.03,6.03,0,0,0-5.108.777c-1.2.736-2.335,1.589-3.5,2.392a10.207,10.207,0,0,1-3.372,1.611,4.578,4.578,0,0,1-5.763-5.644c2.083-9.2,8.751-14.947,18.139-15C223.807-557.574,231.692-550.474,231.9-539.274Z" transform="translate(97.757 587.976)" fill="#fff" opacity="0.6"/>
    <path id="Path_37946" data-name="Path 37946" d="M-160.057,1231.793c-.007-8.946,7.506-18.568,15.516-20.161,8.538-1.7,18.678,4.464,20.535,12.452.878,3.774.205,7.492-.336,11.211a13.4,13.4,0,0,0,3.348,11.335c.416.47.847.927,1.251,1.407,1.61,1.915,1.874,3.173.995,4.664a4.862,4.862,0,0,1-5.21,2.029,15.591,15.591,0,0,1-7.341-4.021c-3.195-3.033-4.553-6.924-5.17-11.161a33.491,33.491,0,0,0-1.628-7.326c-1.031-2.669-2.56-3.687-5.092-3.472-3.007.255-4.609,2.3-3.991,5.254.395,1.887,1.042,3.72,1.447,5.6a6.616,6.616,0,0,1-4.385,7.84,4.167,4.167,0,0,1-4.07-.962c-3.323-2.775-4.842-6.481-5.513-10.611A18.413,18.413,0,0,1-160.057,1231.793Z" transform="translate(339.738 -624.711)" fill="#fff" opacity="0.6"/>
    <path id="Path_37947" data-name="Path 37947" d="M915.839,1231.973c-.014-9.156,7.279-18.656,15.419-20.315,8.6-1.753,18.781,4.438,20.631,12.513.792,3.455.354,6.887-.256,10.277-.954,5.3.636,9.668,4.315,13.448,1.729,1.777,2.045,3.26,1.209,4.762a4.7,4.7,0,0,1-5.322,2.034c-6.739-1.82-10.627-6.333-12.06-13.057-.5-2.347-.838-4.729-1.3-7.086a11.212,11.212,0,0,0-1.21-3.383q-2.027-3.6-6.186-2.053c-2.122.788-2.977,2.658-2.345,5.275.452,1.877,1.077,3.718,1.452,5.608a6.651,6.651,0,0,1-4.209,7.4,4.27,4.27,0,0,1-4.351-.963c-3.326-2.79-4.814-6.49-5.469-10.633A17.78,17.78,0,0,1,915.839,1231.973Z" transform="translate(-397.871 -624.718)" fill="#fff" opacity="0.6"/>
    <path id="Path_37948" data-name="Path 37948" d="M-159.923,87.288c-.078-8.323,6.994-17.882,14.6-19.788,8.679-2.175,19.178,3.71,21.329,11.978a20.349,20.349,0,0,1,.043,9.178c-1.1,5.533-.284,10.481,3.9,14.609,2.073,2.048,2.37,3.564,1.312,5.258a4.952,4.952,0,0,1-5.75,1.7c-6.514-2.043-10.243-6.572-11.55-13.186-.465-2.356-.849-4.727-1.3-7.085a11.086,11.086,0,0,0-1.229-3.214c-1.257-2.292-3.356-2.991-6.048-2.02-2.059.743-3.016,2.67-2.447,5.107.439,1.88,1.065,3.719,1.446,5.609.818,4.053-2.09,7.871-5.816,7.794a4.3,4.3,0,0,1-2.8-1.2c-4.006-3.426-5.18-8.068-5.67-13.012C-159.971,88.444-159.923,87.863-159.923,87.288Z" transform="translate(339.644 159.794)" fill="#fff" opacity="0.6"/>
    <path id="Path_37949" data-name="Path 37949" d="M915.305,85.3c-.367-4.171,5.469-14.44,12.982-17.272,6.374-2.4,12.143-.7,17.405,3.14,5.1,3.725,6.782,8.892,6.09,15.042-.354,3.149-1.164,6.271-.561,9.5a14.37,14.37,0,0,0,3.588,6.854c.172.2.35.39.528.581,2,2.144,2.359,3.573,1.337,5.275a4.914,4.914,0,0,1-5.741,1.714c-6.522-2.032-10.26-6.548-11.559-13.176-.532-2.714-.813-5.479-1.6-8.143-.921-3.12-2.494-4.616-4.818-4.591-3.505.038-5.387,2.39-4.576,5.79.436,1.828,1.078,3.611,1.443,5.45.781,3.941-2.156,7.725-5.819,7.671a4.391,4.391,0,0,1-2.932-1.285C916.64,97.953,915.712,92.727,915.305,85.3Z" transform="translate(-397.507 159.88)" fill="#fff" opacity="0.6"/>
    <path id="Path_37950" data-name="Path 37950" d="M-572.971,59.712a18.147,18.147,0,0,1,9.633,2.577c3.713,2.149,5.508,5.526,6.041,9.595a22.891,22.891,0,0,1-.349,7.651c-1.106,5.318-4.464,8.712-9.109,11.117-3.261,1.689-6.751,2.828-10.083,4.344a22.942,22.942,0,0,0-11.469,10.486,12.127,12.127,0,0,1-3.414,4.446,4.12,4.12,0,0,1-4.425.665c-1.53-.74-1.917-2.232-2.016-3.822-.373-5.985,2.325-10.674,6.17-14.931,3.261-3.611,7.4-5.928,11.578-8.245,2.743-1.522,5.5-3.074,7.4-5.707a4.459,4.459,0,0,0,.145-5.535,3.832,3.832,0,0,0-5.285-1.012,19.644,19.644,0,0,0-3.13,2.848,11.834,11.834,0,0,1-2.969,2.29c-1.6.784-3.254,1.044-4.754-.076a4.672,4.672,0,0,1-1.7-4.637c.562-4.037,3.06-6.8,6.321-8.927A19.806,19.806,0,0,1-572.971,59.712Z" transform="translate(640.1 164.825)" fill="#fff" opacity="0.6"/>
    <path id="Path_37951" data-name="Path 37951" d="M502.505,59.75a17.152,17.152,0,0,1,6.285.961c5.189,1.756,8.667,5.094,9.4,10.672.914,6.993-.359,13.283-6.595,17.644a37.912,37.912,0,0,1-7.557,3.8,52.227,52.227,0,0,0-9.078,4.252,20.91,20.91,0,0,0-7.234,7.691,23.858,23.858,0,0,1-2.561,3.946c-1.589,1.931-3.9,2.733-5.676,1.94-1.408-.629-2.333-3.029-2.159-5.218.71-8.92,6.142-14.6,13.166-19.135,3.378-2.183,7.145-3.742,10.247-6.377a8.578,8.578,0,0,0,2.59-3.486,4.235,4.235,0,0,0-1.565-5,3.714,3.714,0,0,0-4.768.24c-1.446,1.2-2.763,2.558-4.161,3.821a5.887,5.887,0,0,1-1.286.889c-1.674.841-3.422,1.228-5.03-.029a4.707,4.707,0,0,1-1.615-4.82c.82-4.412,3.688-7.32,7.456-9.377A19.209,19.209,0,0,1,502.505,59.75Z" transform="translate(-66.68 164.807)" fill="#fff" opacity="0.6"/>
    <path id="Path_37952" data-name="Path 37952" d="M-557.169,1221c-.005,6.437-3.582,11.412-12.377,15.106a98.623,98.623,0,0,0-9.354,4.047,21.6,21.6,0,0,0-8.823,8.474,21.268,21.268,0,0,1-3.257,4.79,4.431,4.431,0,0,1-4.993,1.333c-1.794-.709-2.1-2.432-2.181-4.184-.254-5.239,1.883-9.539,5.147-13.432,3.363-4.012,7.63-6.792,12.2-9.211a25.344,25.344,0,0,0,7.135-5.066c1.939-2.126,2.231-4.423.8-6.4a3.7,3.7,0,0,0-5.248-1.019,21.021,21.021,0,0,0-3.49,3.151,9.909,9.909,0,0,1-2.6,2c-1.6.777-3.24,1.089-4.747-.066a4.726,4.726,0,0,1-1.723-4.781c.744-4.375,3.529-7.362,7.245-9.347,5.994-3.2,12.256-3.683,18.565-.811C-559.224,1208.163-557.085,1212.843-557.169,1221Z" transform="translate(640.085 -619.461)" fill="#fff" opacity="0.6"/>
    <path id="Path_37980" data-name="Path 37980" d="M75.9,1168.561c.035-4.633,3.965-8.773,8.3-8.741,4.155.031,7.719,3.992,7.677,8.532-.04,4.288-4.145,8.457-8.314,8.441C79.615,1176.778,75.872,1172.756,75.9,1168.561Z" transform="translate(177.953 -589.384)" fill="#fff" opacity="0.6"/>
    <path id="Path_37981" data-name="Path 37981" d="M84.187,15.2c3.248.054,6.24,2.615,7.289,6.132,1.99,6.677-4.576,11.587-8.844,10.795a8.454,8.454,0,0,1-6.7-9.058C76.287,19.022,80.364,15.137,84.187,15.2Z" transform="translate(177.958 195.338)" fill="#fff" opacity="0.6"/>
    <path id="Path_37982" data-name="Path 37982" d="M1159.9,1159.819c5.272-.027,9.157,5.949,7.291,11.216-1.291,3.644-5.717,6.409-9,5.625a8.453,8.453,0,0,1-6.414-9.034C1152.177,1163.522,1156.012,1159.839,1159.9,1159.819Z" transform="translate(-559.606 -589.384)" fill="#fff" opacity="0.6"/>
    <path id="Path_37989" data-name="Path 37989" d="M567.724-87.1c.033,3.629-2.746,7.082-5.744,7.138-3.348.063-6.705-3.431-6.741-7.015-.03-2.992,3.148-6.171,6.186-6.187S567.7-90.072,567.724-87.1Z" transform="translate(-150.666 269.631)" fill="#fff" opacity="0.6"/>
    <path id="Path_38053" data-name="Path 38053" d="M12.485,6.064c.033,3.629-2.746,7.082-5.744,7.138C3.393,13.265.036,9.771,0,6.187-.03,3.2,3.148.016,6.186,0S12.458,3.094,12.485,6.064Z" transform="matrix(0.656, -0.755, 0.755, 0.656, 423.256, 625.02)" fill="#fff" opacity="0.6"/>
    <path id="Path_37990" data-name="Path 37990" d="M-508.111,1057.187c-.016,3.829-2.735,7-5.973,6.961-3.355-.038-6.462-3.407-6.492-7.036-.023-2.76,3.524-6.232,6.3-6.166C-511.238,1051.021-508.1,1054.2-508.111,1057.187Z" transform="translate(586.885 -514.743)" fill="#fff" opacity="0.6"/>
    <path id="Path_37991" data-name="Path 37991" d="M-508.116-86.9c-.035,3.655-2.886,6.987-5.927,6.928-3.268-.064-6.564-3.624-6.541-7.066.02-3.068,3.282-6.194,6.4-6.136A6.778,6.778,0,0,1-508.116-86.9Z" transform="translate(586.89 269.633)" fill="#fff" opacity="0.6"/>
    <path id="Path_37992" data-name="Path 37992" d="M567.721,1057.362c-.083,3.644-2.918,6.838-6.024,6.788-3.409-.055-6.6-3.627-6.454-7.218.114-2.75,3.589-6.049,6.3-5.983C564.643,1051.023,567.791,1054.292,567.721,1057.362Z" transform="translate(-150.665 -514.745)" fill="#fff" opacity="0.6"/>
    <path id="Path_37993" data-name="Path 37993" d="M91.6,467.052c-3.43-.031-5.623-2.309-5.585-5.8.041-3.7,3.148-7.063,6.485-7.015a6.405,6.405,0,0,1,6,6.145A6.745,6.745,0,0,1,91.6,467.052Z" transform="translate(171.025 -105.655)" fill="#fff" opacity="0.6"/>
    <path id="Path_38048" data-name="Path 38048" d="M91.6,467.052c-3.43-.031-5.623-2.309-5.585-5.8.041-3.7,3.148-7.063,6.485-7.015a6.405,6.405,0,0,1,6,6.145A6.745,6.745,0,0,1,91.6,467.052Z" transform="translate(509.28 -105.655)" fill="#fff" opacity="0.6"/>
    <path id="Path_37995" data-name="Path 37995" d="M-317.413,751.553c5.476.08,8.407,4.515,6.293,8.969a5.864,5.864,0,0,1-8.112,2.685,6.575,6.575,0,0,1-2.458-8.846C-320.6,752.492-319.369,751.212-317.413,751.553Z" transform="translate(451.095 -309.45)" fill="#fff" opacity="0.6"/>
    <path id="Path_37997" data-name="Path 37997" d="M5.114.083c5.247.054,8.165,3.988,6.568,8.335a5.534,5.534,0,0,1-4.817,3.938A5.649,5.649,0,0,1,1.029,9.484,6.063,6.063,0,0,1,.889,2.949C1.93,1.128,3.074-.374,5.114.083Z" transform="translate(47.837 986.171) rotate(25)" fill="#fff" opacity="0.6"/>
    <path id="Path_38000" data-name="Path 38000" d="M457.57,252.175a5.3,5.3,0,0,1-5.365-5.522c-.033-3.269,2.84-6.358,5.913-6.358,2.692,0,5.261,2.994,5.308,6.186A5.779,5.779,0,0,1,457.57,252.175Z" transform="translate(-49.471 41.019)" fill="#fff" opacity="0.6"/>
    <path id="Path_38002" data-name="Path 38002" d="M-618.335,252.173a5.378,5.378,0,0,1-5.277-5.625c.077-3.288,2.814-6.213,5.852-6.255,2.783-.039,5.393,3.024,5.348,6.276A5.725,5.725,0,0,1-618.335,252.173Z" transform="translate(657.525 41.02)" fill="#fff" opacity="0.6"/>
    <path id="Path_38007" data-name="Path 38007" d="M189.161-369c2.917,0,4.958,2.281,4.915,5.5a5.231,5.231,0,0,1-5.179,5.05,5.206,5.206,0,0,1-4.766-5.282C184.242-366.925,186.8-369.468,189.161-369Z" transform="translate(103.758 458.772)" fill="#fff" opacity="0.6"/>
    <path id="Path_38008" data-name="Path 38008" d="M189.1,775.785c2.941-.007,4.974,2.214,4.943,5.4a4.989,4.989,0,1,1-4.943-5.4Z" transform="translate(103.788 -326.1)" fill="#fff" opacity="0.6"/>
    <path id="Path_38010" data-name="Path 38010" d="M-14.153,1346.869a4.947,4.947,0,0,1,4.8,5.279,4.465,4.465,0,0,1-4.229,4.721,5.288,5.288,0,0,1-5.129-5.276A4.473,4.473,0,0,1-14.153,1346.869Z" transform="translate(242.819 -717.62)" fill="#fff" opacity="0.6"/>
    <path id="Path_38011" data-name="Path 38011" d="M1066.5,1352.16a4.418,4.418,0,0,1-4.227,4.7,5.25,5.25,0,0,1-5.1-5.275,4.441,4.441,0,0,1,4.547-4.721C1064.432,1346.855,1066.5,1349.145,1066.5,1352.16Z" transform="translate(-494.775 -717.62)" fill="#fff" opacity="0.6"/>
    <path id="Path_38012" data-name="Path 38012" d="M1061.714,202.736c2.8.006,4.758,2.1,4.769,5.108.01,2.853-1.718,4.741-4.32,4.724a5.038,5.038,0,0,1-5.017-5.161A4.395,4.395,0,0,1,1061.714,202.736Z" transform="translate(-494.759 66.768)" fill="#fff" opacity="0.6"/>
    <path id="Path_38013" data-name="Path 38013" d="M-14.159,202.74c2.881-.006,4.845,2.118,4.824,5.219-.018,2.75-1.74,4.6-4.286,4.615a5.055,5.055,0,0,1-5.065-5.275A4.375,4.375,0,0,1-14.159,202.74Z" transform="translate(242.803 66.765)" fill="#fff" opacity="0.6"/>
    <path id="Path_38039" data-name="Path 38039" d="M-252.195,127.592a.427.427,0,0,1-.106-.065c-.014-.015,0-.056,0-.085l.1.152Z" transform="translate(402.966 118.387)" fill="#fff" opacity="0.6"/>
    <path id="Path_38043" data-name="Path 38043" d="M-189.229,699.7l-.125-.075.123.075Z" transform="translate(359.808 -273.888)" fill="#fff" opacity="0.6"/>
    <path id="Path_38045" data-name="Path 38045" d="M886.663,699.567a.359.359,0,0,1-.109-.051c-.016-.016-.006-.059-.008-.09l.124.133Z" transform="translate(-377.801 -273.75)" fill="#fff" opacity="0.6"/>
    <path id="Path_37920-2" data-name="Path 37920" d="M121.847,139.565c11.332.654,21.5,4.208,29.671,12.384,4.842,4.844,7.532,10.888,8.805,17.56a40.1,40.1,0,0,1-2.37,23.367c-2.405,5.793-6.823,9.639-12,12.849-5.979,3.71-12.59,5.921-19.2,8.074A37.6,37.6,0,0,0,108.3,227.028a34.828,34.828,0,0,1-3.322,3.551,4.569,4.569,0,0,1-4.877,1.337,5.188,5.188,0,0,1-3.462-4.468,18.97,18.97,0,0,1,.575-7.438c2.284-9.758,8.285-16.577,16.841-21.412,4.92-2.78,10.047-5.192,14.752-8.35a25.416,25.416,0,0,0,7.965-7.682c4.843-7.983,1.638-14.389-6.488-18.309-5.078-2.45-10.084-1.469-15,.7a60.145,60.145,0,0,1-8.71,3.547c-3.847,1.015-7.733,1.483-11.5-.379a8.219,8.219,0,0,1-4.124-9.974c1.122-3.57,3.7-6.032,6.32-8.429a38.522,38.522,0,0,1,20.47-9.881C119.1,139.625,120.46,139.684,121.847,139.565Z" transform="translate(167.915 731.856)" fill="#fff" opacity="0.6"/>
    <path id="Path_38049-2" data-name="Path 38049" d="M121.847,139.565c11.332.654,21.5,4.208,29.671,12.384,4.842,4.844,7.532,10.888,8.805,17.56a40.1,40.1,0,0,1-2.37,23.367c-2.405,5.793-6.823,9.639-12,12.849-5.979,3.71-12.59,5.921-19.2,8.074A37.6,37.6,0,0,0,108.3,227.028a34.828,34.828,0,0,1-3.322,3.551,4.569,4.569,0,0,1-4.877,1.337,5.188,5.188,0,0,1-3.462-4.468,18.97,18.97,0,0,1,.575-7.438c2.284-9.758,8.285-16.577,16.841-21.412,4.92-2.78,10.047-5.192,14.752-8.35a25.416,25.416,0,0,0,7.965-7.682c4.843-7.983,1.638-14.389-6.488-18.309-5.078-2.45-10.084-1.469-15,.7a60.145,60.145,0,0,1-8.71,3.547c-3.847,1.015-7.733,1.483-11.5-.379a8.219,8.219,0,0,1-4.124-9.974c1.122-3.57,3.7-6.032,6.32-8.429a38.522,38.522,0,0,1,20.47-9.881C119.1,139.625,120.46,139.684,121.847,139.565Z" transform="translate(506.171 731.856)" fill="#fff" opacity="0.6"/>
    <path id="Path_37922-2" data-name="Path 37922" d="M-47.913-214.3c-.214-7.967,1.609-15.479,3.614-22.967A48.858,48.858,0,0,0-42.333-250.4a19.046,19.046,0,0,0-1.274-7.221c-1.651-3.947-4.91-5.662-8.92-6.284A14.858,14.858,0,0,0-69.679-249.28a45.266,45.266,0,0,1-.8,9.2c-1.235,5.179-8.159,8.989-13.169,7.213a5.7,5.7,0,0,1-2.434-1.655A17.234,17.234,0,0,1-90.26-242.9c-1.534-8.335-.991-16.282,3.984-23.458a32.883,32.883,0,0,1,15.8-11.932c9.77-3.734,19.86-4.728,29.835-1.538,10.748,3.437,18.022,10.765,20.187,22.151,1.44,7.57-.266,14.846-3.449,21.812-2.476,5.42-5.329,10.674-7.235,16.349a36.967,36.967,0,0,0-1.489,17.327c.621,4.279-1.284,7.262-5.136,7.965-2.527.461-5.439-1.255-7.129-4.191a24.264,24.264,0,0,1-2.7-9.115A37.089,37.089,0,0,1-47.913-214.3Z" transform="translate(292.391 1020.696)" fill="#fff" opacity="0.6"/>
    <path id="Path_37923-2" data-name="Path 37923" d="M-47.931,930.442c-.177-7.923,1.49-15.307,3.493-22.637a52.308,52.308,0,0,0,2.1-13.592,21.169,21.169,0,0,0-.658-5.28c-1.317-5.2-5.173-8.135-10.947-8.4-8.495-.385-15.181,5.732-15.7,14.34-.16,2.659-.225,5.336-.6,7.967-.735,5.139-3.981,8.287-9.1,9.152-3.307.56-5.6-.531-7.813-3.256-2.7-3.318-3.206-7.088-3.65-10.918-1.164-10.044,1.894-18.587,9.678-25.246a38.673,38.673,0,0,1,18.445-8.541c7.906-1.468,15.888-1.75,23.509,1.189,8.847,3.411,15.307,9.585,18.062,18.795,2.21,7.389,1.256,14.838-1.7,21.927-2.23,5.357-4.812,10.566-7.128,15.888a39.935,39.935,0,0,0-3.129,12.42,39.654,39.654,0,0,0,.394,7.506c.268,2.659.421,5.3-1.965,7.207-3.225,2.576-7.509,1.577-9.941-2.241a22.282,22.282,0,0,1-3-9.489A33.824,33.824,0,0,1-47.931,930.442Z" transform="translate(292.407 235.916)" fill="#fff" opacity="0.6"/>
    <path id="Path_37924-2" data-name="Path 37924" d="M1027.874,929.826c-.208-7.713,1.649-15.166,3.626-22.6a53.162,53.162,0,0,0,1.945-11.412,22.491,22.491,0,0,0-.98-8.055c-1.466-4.434-5.189-6.988-10.506-7.282a14.874,14.874,0,0,0-15.808,14.077c-.2,2.761-.153,5.534-.549,8.29a10.46,10.46,0,0,1-9.351,9.1c-3.148.367-5.376-.549-7.541-3.193-2.972-3.63-3.423-7.787-3.808-11.979-.847-9.251,2.02-17.263,8.971-23.587a38.6,38.6,0,0,1,18.828-9.145c8.062-1.612,16.213-1.881,23.959,1.14,9.318,3.634,16.077,10.182,18.356,20.168,1.753,7.682.491,15.272-2.773,22.51-2.322,5.147-5,10.132-6.993,15.429a37.576,37.576,0,0,0-2.082,19.261c.734,4.781-2.19,8.138-6.753,7.711-2.32-.217-3.877-1.718-5.126-3.536-1.954-2.844-2.583-6.146-3.051-9.469A40.941,40.941,0,0,1,1027.874,929.826Z" transform="translate(-445.134 235.984)" fill="#fff" opacity="0.6"/>
    <path id="Path_37926-2" data-name="Path 37926" d="M-635.888-290.889c-.125-5.128.843-9.715,1.142-14.359.226-3.511.349-7-.757-10.414a8.229,8.229,0,0,0-6.473-5.938,9.024,9.024,0,0,0-9.552,3.151c-2.62,3.122-3.052,6.9-3.524,10.7A12.717,12.717,0,0,1-656.989-302c-2.4,3.515-6.512,3.8-9.744,1.262-2.332-1.834-2.405-4.3-2.833-6.641-1.247-6.842-.946-13.651,2.453-19.865,4.522-8.264,11.914-12.983,20.882-15.052,13.955-3.22,28.1,6.051,30.992,20.744a17.215,17.215,0,0,1-1.371,10.132c-1.819,4.285-3.637,8.572-5.332,12.906a26.636,26.636,0,0,0-.294,19.615,31.054,31.054,0,0,1,1.324,4.344c.784,3.678-1.821,6.018-5.473,4.986a10.58,10.58,0,0,1-6.568-5.7,27.251,27.251,0,0,1-2.557-9.493A38.982,38.982,0,0,1-635.888-290.889Z" transform="translate(689.491 1062.648)" fill="#fff" opacity="0.6"/>
    <path id="Path_37927-2" data-name="Path 37927" d="M-635.8,853.076c-.078-4.673.855-9.261,1.165-13.9a28.854,28.854,0,0,0-.511-9.513c-.983-3.666-3.209-6.059-7.037-6.734-3.878-.685-7.126.324-9.567,3.582-2.275,3.036-2.75,6.6-3.187,10.2A12.8,12.8,0,0,1-657,842.724c-2.347,3.329-6.456,3.58-9.637,1.074-2.365-1.863-2.438-4.394-2.873-6.805a32.032,32.032,0,0,1,1.671-18.027,24.561,24.561,0,0,1,8.406-10.35c5.607-4.226,11.734-7.085,18.94-6.878,10.393.3,17.975,5.19,22.917,14.254a19.469,19.469,0,0,1,.788,17.951c-1.808,4.172-3.717,8.3-5.248,12.6a26.938,26.938,0,0,0,.095,19.614,14.646,14.646,0,0,1,1.261,4.994,3.9,3.9,0,0,1-5.011,4c-4.487-1.042-6.8-4.254-8.2-8.312A43.173,43.173,0,0,1-635.8,853.076Z" transform="translate(689.391 277.895)" fill="#fff" opacity="0.6"/>
    <path id="Path_37928-2" data-name="Path 37928" d="M439.915,853.277c-.089-4.674.744-9.271,1.151-13.9a28.8,28.8,0,0,0-.564-9.975,8.377,8.377,0,0,0-7.168-6.6,9.18,9.18,0,0,0-9.767,4.161c-1.974,2.893-2.349,6.208-2.781,9.528a12.674,12.674,0,0,1-2.476,6.668,6.517,6.517,0,0,1-9.171.662c-2.3-1.807-2.49-4.257-2.911-6.63-1.147-6.453-1.011-12.922,1.948-18.885,4.557-9.185,12.437-14.354,22.245-16.224a25.815,25.815,0,0,1,30.1,20.815c.747,3.86-.206,7.461-1.636,11-1.663,4.122-3.6,8.125-5.128,12.308a27.233,27.233,0,0,0,.18,20.354,14.291,14.291,0,0,1,1.072,4.241,3.9,3.9,0,0,1-5.034,4.264,10.615,10.615,0,0,1-7.477-6.587C440.371,863.631,440,858.475,439.915,853.277Z" transform="translate(-48.05 277.97)" fill="#fff" opacity="0.6"/>
    <path id="Path_37929-2" data-name="Path 37929" d="M439.931-291.651c-.14-4.17.8-8.655,1.142-13.188a30.368,30.368,0,0,0-.493-9.828c-.887-3.521-2.94-5.954-6.631-6.77-4.144-.916-7.515.186-10.09,3.657-2.2,2.961-2.634,6.428-3.06,9.915a14.13,14.13,0,0,1-1.752,5.647c-2.254,3.781-6.54,4.241-9.994,1.571-2.365-1.828-2.416-4.31-2.815-6.655-1.325-7.8-.939-15.543,3.888-22.118,6.251-8.515,14.818-13.436,25.574-13.3,12.115.147,22.511,9.216,24.8,21.079a16.316,16.316,0,0,1-.958,9.391c-1.791,4.41-3.68,8.78-5.433,13.2-2.7,6.82-3.133,13.7-.38,20.646a23.963,23.963,0,0,1,1.2,4.055c.73,3.609-1.838,5.95-5.4,4.944-3.806-1.075-6.03-3.806-7.38-7.347C440.374-281.418,439.96-286.306,439.931-291.651Z" transform="translate(-48.064 1062.503)" fill="#fff" opacity="0.6"/>
    <path id="Path_37936-2" data-name="Path 37936" d="M-433.428,558.576c1.346-13.212,7.2-21.226,20.04-24.811,5.941-1.659,11.772-1.365,16.993,2.272a21.177,21.177,0,0,1,8.268,11.342c1.536,4.957-.458,9-3.486,12.731-1.221,1.5-2.456,3-3.76,4.427-4.313,4.735-5.286,10.141-3.436,16.189,1.009,3.3,2.335,6.494,3.075,9.878.371,1.7.31,3.263-1.084,4.465-1.447,1.246-3.044,1.1-4.7.365a12.815,12.815,0,0,1-6.2-5.556,31.7,31.7,0,0,1-4.4-14.256,34.315,34.315,0,0,1,1.613-10.494,56.466,56.466,0,0,0,1.638-7.658,9.469,9.469,0,0,0,.08-1.409c-.052-2.593-1.316-4.408-3.384-4.888a4.962,4.962,0,0,0-5.458,2.787,23.937,23.937,0,0,0-1.847,5.157c-.989,3.5-2.626,6.4-6.6,7.184-1.737.343-3.472.115-4.394-1.333C-431.864,562.785-433.693,560.669-433.428,558.576Z" transform="translate(527.156 462.267)" fill="#fff" opacity="0.6"/>
    <path id="Path_37937-2" data-name="Path 37937" d="M642.52,559.011c1.141-12.486,6.2-20.051,17.15-24.151a23.928,23.928,0,0,1,15.216-.935c7.279,2.032,13.93,11.633,13.411,17.658-.322,3.736-2.271,6.553-4.476,9.3-1.407,1.755-2.888,3.45-4.311,5.192-3.434,4.206-3.938,8.961-2.619,14.062.955,3.694,2.586,7.178,3.346,10.936a4.032,4.032,0,0,1-1.248,4.261,3.866,3.866,0,0,1-4.276.425,12.9,12.9,0,0,1-6.653-5.932c-2.565-4.763-4.332-9.754-4.255-15.237a37.085,37.085,0,0,1,1.631-9.4,62.584,62.584,0,0,0,1.614-7.5c.008-.052.024-.1.031-.154.4-2.981-.9-5.511-3.165-6.13-2.4-.658-4.944.757-6.058,3.563-.789,1.987-1.335,4.068-2.029,6.094a7.6,7.6,0,0,1-6.433,5.487,3.719,3.719,0,0,1-3.835-1.265C644.125,563.128,642.441,560.987,642.52,559.011Z" transform="translate(-210.502 462.066)" fill="#fff" opacity="0.6"/>
    <path id="Path_37938-2" data-name="Path 37938" d="M213.756,586.832c10.332-.025,18.406,7.771,18,17.849-.289,7.269-4.352,12.471-10.418,16.175-1.916,1.17-3.912,2.225-5.928,3.216a27.526,27.526,0,0,0-11.93,11.663,14.411,14.411,0,0,1-3.108,4.112c-2.884,2.435-6.165,1.459-7.157-2.178a13.509,13.509,0,0,1,.488-8.171c2.331-6.643,7.062-11.108,13.1-14.37,2.672-1.442,5.383-2.82,7.286-5.321,1.628-2.139,1.979-4.673.8-6.079-1.215-1.454-4.181-1.709-6.419-.412-1.626.942-3.153,2.055-4.711,3.11a8.21,8.21,0,0,1-2.434,1.057,4.6,4.6,0,0,1-5.861-5.422A18.239,18.239,0,0,1,213.756,586.832Z" transform="translate(97.817 425.221)" fill="#fff" opacity="0.6"/>
    <path id="Path_37939-2" data-name="Path 37939" d="M231.9-539.274c-.528,6.492-4.171,11.868-10.283,15.648-2.175,1.345-4.473,2.5-6.749,3.674a26.578,26.578,0,0,0-11.02,10.859,21.141,21.141,0,0,1-2.783,3.98c-1.322,1.429-2.948,2.3-4.906,1.78-1.817-.482-2.565-2.035-2.95-3.744-.9-4,.164-7.662,2.042-11.158,2.644-4.923,6.716-8.355,11.558-10.962a24.04,24.04,0,0,0,6.7-4.585,6.626,6.626,0,0,0,2.123-4.9,2.99,2.99,0,0,0-2.316-2.972,6.03,6.03,0,0,0-5.108.777c-1.2.736-2.335,1.589-3.5,2.392a10.207,10.207,0,0,1-3.372,1.611,4.578,4.578,0,0,1-5.763-5.644c2.083-9.2,8.751-14.947,18.139-15C223.807-557.574,231.692-550.474,231.9-539.274Z" transform="translate(117.757 1219.756)" fill="#fff" opacity="0.6"/>
    <path id="Path_37948-2" data-name="Path 37948" d="M-159.923,87.288c-.078-8.323,6.994-17.882,14.6-19.788,8.679-2.175,19.178,3.71,21.329,11.978a20.349,20.349,0,0,1,.043,9.178c-1.1,5.533-.284,10.481,3.9,14.609,2.073,2.048,2.37,3.564,1.312,5.258a4.952,4.952,0,0,1-5.75,1.7c-6.514-2.043-10.243-6.572-11.55-13.186-.465-2.356-.849-4.727-1.3-7.085a11.086,11.086,0,0,0-1.229-3.214c-1.257-2.292-3.356-2.991-6.048-2.02-2.059.743-3.016,2.67-2.447,5.107.439,1.88,1.065,3.719,1.446,5.609.818,4.053-2.09,7.871-5.816,7.794a4.3,4.3,0,0,1-2.8-1.2c-4.006-3.426-5.18-8.068-5.67-13.012C-159.971,88.444-159.923,87.863-159.923,87.288Z" transform="translate(339.644 781.574)" fill="#fff" opacity="0.6"/>
    <path id="Path_38065" data-name="Path 38065" d="M.02,20.243C-.058,11.92,7.013,2.362,14.619.455,23.3-1.72,33.8,4.165,35.948,12.433a20.349,20.349,0,0,1,.043,9.178c-1.1,5.533-.284,10.481,3.9,14.609,2.073,2.048,2.37,3.564,1.312,5.258a4.952,4.952,0,0,1-5.75,1.7c-6.514-2.043-10.243-6.572-11.55-13.186-.465-2.356-.849-4.727-1.3-7.085a11.086,11.086,0,0,0-1.229-3.214c-1.257-2.292-3.356-2.991-6.048-2.02-2.059.743-3.016,2.67-2.447,5.107.439,1.88,1.065,3.719,1.446,5.609.818,4.053-2.09,7.871-5.816,7.794a4.3,4.3,0,0,1-2.8-1.2C1.691,31.556.517,26.914.027,21.97-.029,21.4.02,20.819.02,20.243Z" transform="translate(154.152 832.291) rotate(81)" fill="#fff" opacity="0.6"/>
    <path id="Path_37949-2" data-name="Path 37949" d="M915.305,85.3c-.367-4.171,5.469-14.44,12.982-17.272,6.374-2.4,12.143-.7,17.405,3.14,5.1,3.725,6.782,8.892,6.09,15.042-.354,3.149-1.164,6.271-.561,9.5a14.37,14.37,0,0,0,3.588,6.854c.172.2.35.39.528.581,2,2.144,2.359,3.573,1.337,5.275a4.914,4.914,0,0,1-5.741,1.714c-6.522-2.032-10.26-6.548-11.559-13.176-.532-2.714-.813-5.479-1.6-8.143-.921-3.12-2.494-4.616-4.818-4.591-3.505.038-5.387,2.39-4.576,5.79.436,1.828,1.078,3.611,1.443,5.45.781,3.941-2.156,7.725-5.819,7.671a4.391,4.391,0,0,1-2.932-1.285C916.64,97.953,915.712,92.727,915.305,85.3Z" transform="translate(-397.507 781.66)" fill="#fff" opacity="0.6"/>
    <path id="Path_38063" data-name="Path 38063" d="M915.305,85.3c-.367-4.171,5.469-14.44,12.982-17.272,6.374-2.4,12.143-.7,17.405,3.14,5.1,3.725,6.782,8.892,6.09,15.042-.354,3.149-1.164,6.271-.561,9.5a14.37,14.37,0,0,0,3.588,6.854c.172.2.35.39.528.581,2,2.144,2.359,3.573,1.337,5.275a4.914,4.914,0,0,1-5.741,1.714c-6.522-2.032-10.26-6.548-11.559-13.176-.532-2.714-.813-5.479-1.6-8.143-.921-3.12-2.494-4.616-4.818-4.591-3.505.038-5.387,2.39-4.576,5.79.436,1.828,1.078,3.611,1.443,5.45.781,3.941-2.156,7.725-5.819,7.671a4.391,4.391,0,0,1-2.932-1.285C916.64,97.953,915.712,92.727,915.305,85.3Z" transform="translate(-465.665 322.594)" fill="#fff" opacity="0.6"/>
    <path id="Path_37950-2" data-name="Path 37950" d="M-572.971,59.712a18.147,18.147,0,0,1,9.633,2.577c3.713,2.149,5.508,5.526,6.041,9.595a22.891,22.891,0,0,1-.349,7.651c-1.106,5.318-4.464,8.712-9.109,11.117-3.261,1.689-6.751,2.828-10.083,4.344a22.942,22.942,0,0,0-11.469,10.486,12.127,12.127,0,0,1-3.414,4.446,4.12,4.12,0,0,1-4.425.665c-1.53-.74-1.917-2.232-2.016-3.822-.373-5.985,2.325-10.674,6.17-14.931,3.261-3.611,7.4-5.928,11.578-8.245,2.743-1.522,5.5-3.074,7.4-5.707a4.459,4.459,0,0,0,.145-5.535,3.832,3.832,0,0,0-5.285-1.012,19.644,19.644,0,0,0-3.13,2.848,11.834,11.834,0,0,1-2.969,2.29c-1.6.784-3.254,1.044-4.754-.076a4.672,4.672,0,0,1-1.7-4.637c.562-4.037,3.06-6.8,6.321-8.927A19.806,19.806,0,0,1-572.971,59.712Z" transform="translate(640.1 786.605)" fill="#fff" opacity="0.6"/>
    <path id="Path_37951-2" data-name="Path 37951" d="M502.505,59.75a17.152,17.152,0,0,1,6.285.961c5.189,1.756,8.667,5.094,9.4,10.672.914,6.993-.359,13.283-6.595,17.644a37.912,37.912,0,0,1-7.557,3.8,52.227,52.227,0,0,0-9.078,4.252,20.91,20.91,0,0,0-7.234,7.691,23.858,23.858,0,0,1-2.561,3.946c-1.589,1.931-3.9,2.733-5.676,1.94-1.408-.629-2.333-3.029-2.159-5.218.71-8.92,6.142-14.6,13.166-19.135,3.378-2.183,7.145-3.742,10.247-6.377a8.578,8.578,0,0,0,2.59-3.486,4.235,4.235,0,0,0-1.565-5,3.714,3.714,0,0,0-4.768.24c-1.446,1.2-2.763,2.558-4.161,3.821a5.887,5.887,0,0,1-1.286.889c-1.674.841-3.422,1.228-5.03-.029a4.707,4.707,0,0,1-1.615-4.82c.82-4.412,3.688-7.32,7.456-9.377A19.209,19.209,0,0,1,502.505,59.75Z" transform="translate(-97.237 786.587)" fill="#fff" opacity="0.6"/>
    <path id="Path_37981-2" data-name="Path 37981" d="M84.187,15.2c3.248.054,6.24,2.615,7.289,6.132,1.99,6.677-4.576,11.587-8.844,10.795a8.454,8.454,0,0,1-6.7-9.058C76.287,19.022,80.364,15.137,84.187,15.2Z" transform="translate(177.958 817.118)" fill="#fff" opacity="0.6"/>
    <path id="Path_37989-2" data-name="Path 37989" d="M567.724-87.1c.033,3.629-2.746,7.082-5.744,7.138-3.348.063-6.705-3.431-6.741-7.015-.03-2.992,3.148-6.171,6.186-6.187S567.7-90.072,567.724-87.1Z" transform="translate(-150.666 891.411)" fill="#fff" opacity="0.6"/>
    <path id="Path_37991-2" data-name="Path 37991" d="M-508.116-86.9c-.035,3.655-2.886,6.987-5.927,6.928-3.268-.064-6.564-3.624-6.541-7.066.02-3.068,3.282-6.194,6.4-6.136A6.778,6.778,0,0,1-508.116-86.9Z" transform="translate(586.89 891.413)" fill="#fff" opacity="0.6"/>
    <path id="Path_37993-2" data-name="Path 37993" d="M91.6,467.052c-3.43-.031-5.623-2.309-5.585-5.8.041-3.7,3.148-7.063,6.485-7.015a6.405,6.405,0,0,1,6,6.145A6.745,6.745,0,0,1,91.6,467.052Z" transform="translate(171.025 516.125)" fill="#fff" opacity="0.6"/>
    <path id="Path_38048-2" data-name="Path 38048" d="M91.6,467.052c-3.43-.031-5.623-2.309-5.585-5.8.041-3.7,3.148-7.063,6.485-7.015a6.405,6.405,0,0,1,6,6.145A6.745,6.745,0,0,1,91.6,467.052Z" transform="translate(509.28 516.125)" fill="#fff" opacity="0.6"/>
    <path id="Path_37995-2" data-name="Path 37995" d="M-317.413,751.553c5.476.08,8.407,4.515,6.293,8.969a5.864,5.864,0,0,1-8.112,2.685,6.575,6.575,0,0,1-2.458-8.846C-320.6,752.492-319.369,751.212-317.413,751.553Z" transform="translate(451.095 312.33)" fill="#fff" opacity="0.6"/>
    <path id="Path_37997-2" data-name="Path 37997" d="M758.2,751.49c5.247.054,8.165,3.988,6.568,8.335a5.534,5.534,0,0,1-4.817,3.938,5.649,5.649,0,0,1-5.837-2.872,6.063,6.063,0,0,1-.141-6.535C755.02,752.536,756.164,751.033,758.2,751.49Z" transform="translate(-286.308 312.392)" fill="#fff" opacity="0.6"/>
    <path id="Path_38000-2" data-name="Path 38000" d="M457.57,252.175a5.3,5.3,0,0,1-5.365-5.522c-.033-3.269,2.84-6.358,5.913-6.358,2.692,0,5.261,2.994,5.308,6.186A5.779,5.779,0,0,1,457.57,252.175Z" transform="translate(-80.028 662.799)" fill="#fff" opacity="0.6"/>
    <path id="Path_38002-2" data-name="Path 38002" d="M-618.335,252.173a5.378,5.378,0,0,1-5.277-5.625c.077-3.288,2.814-6.213,5.852-6.255,2.783-.039,5.393,3.024,5.348,6.276A5.725,5.725,0,0,1-618.335,252.173Z" transform="translate(657.525 662.8)" fill="#fff" opacity="0.6"/>
    <path id="Path_38007-2" data-name="Path 38007" d="M189.161-369c2.917,0,4.958,2.281,4.915,5.5a5.231,5.231,0,0,1-5.179,5.05,5.206,5.206,0,0,1-4.766-5.282C184.242-366.925,186.8-369.468,189.161-369Z" transform="translate(123.758 1090.552)" fill="#fff" opacity="0.6"/>
    <path id="Path_38008-2" data-name="Path 38008" d="M189.1,775.785c2.941-.007,4.974,2.214,4.943,5.4a4.989,4.989,0,1,1-4.943-5.4Z" transform="translate(103.788 295.68)" fill="#fff" opacity="0.6"/>
    <path id="Path_38012-2" data-name="Path 38012" d="M1061.714,202.736c2.8.006,4.758,2.1,4.769,5.108.01,2.853-1.718,4.741-4.32,4.724a5.038,5.038,0,0,1-5.017-5.161A4.395,4.395,0,0,1,1061.714,202.736Z" transform="translate(-494.759 688.548)" fill="#fff" opacity="0.6"/>
    <path id="Path_38062" data-name="Path 38062" d="M1061.714,202.736c2.8.006,4.758,2.1,4.769,5.108.01,2.853-1.718,4.741-4.32,4.724a5.038,5.038,0,0,1-5.017-5.161A4.395,4.395,0,0,1,1061.714,202.736Z" transform="translate(-562.917 229.481)" fill="#fff" opacity="0.6"/>
    <path id="Path_38013-2" data-name="Path 38013" d="M-14.159,202.74c2.881-.006,4.845,2.118,4.824,5.219-.018,2.75-1.74,4.6-4.286,4.615a5.055,5.055,0,0,1-5.065-5.275A4.375,4.375,0,0,1-14.159,202.74Z" transform="translate(242.803 688.545)" fill="#fff" opacity="0.6"/>
    <path id="Path_38064" data-name="Path 38064" d="M4.528,0C7.408-.006,9.372,2.118,9.352,5.219c-.018,2.75-1.74,4.6-4.286,4.615A5.055,5.055,0,0,1,0,4.558,4.375,4.375,0,0,1,4.528,0Z" transform="translate(118.959 882.833) rotate(81)" fill="#fff" opacity="0.6"/>
    <path id="Path_38039-2" data-name="Path 38039" d="M-252.195,127.592a.427.427,0,0,1-.106-.065c-.014-.015,0-.056,0-.085l.1.152Z" transform="translate(402.966 740.167)" fill="#fff" opacity="0.6"/>
    <path id="Path_38043-2" data-name="Path 38043" d="M-189.229,699.7l-.125-.075.123.075Z" transform="translate(359.808 347.892)" fill="#fff" opacity="0.6"/>
    <path id="Path_38045-2" data-name="Path 38045" d="M886.663,699.567a.359.359,0,0,1-.109-.051c-.016-.016-.006-.059-.008-.09l.124.133Z" transform="translate(-377.801 348.03)" fill="#fff" opacity="0.6"/>
  </g>
</svg>
