<svg xmlns="http://www.w3.org/2000/svg" width="60" height="60" viewBox="0 0 60 60">
  <g id="Group_35898" data-name="Group 35898" transform="translate(-1680 -164)">
    <g id="Ellipse_95" data-name="Ellipse 95" transform="translate(1685 169)" fill="#fff" stroke="#707070" stroke-width="1">
      <circle cx="25" cy="25" r="25" stroke="none" />
      <circle cx="25" cy="25" r="24.5" fill="none" />
    </g>
    <path id="Path_37897" data-name="Path 37897" d="M32,2A30,30,0,1,0,62,32,30.088,30.088,0,0,0,32,2ZM43.1,38.9a2.97,2.97,0,0,1-4.2,4.2L32,36.2l-6.9,6.9a2.97,2.97,0,0,1-4.2-4.2L27.8,32l-6.9-6.9a2.97,2.97,0,0,1,4.2-4.2L32,27.8l6.9-6.9a2.97,2.97,0,0,1,4.2,4.2L36.2,32Z" transform="translate(1678 162)" fill="#e84f3f" />
  </g>
</svg>
