<svg id="upgrade" xmlns="http://www.w3.org/2000/svg" width="80" height="80" viewBox="0 0 80 80">
  <rect id="Rectangle_3" data-name="Rectangle 3" width="80" height="80" rx="20" fill="#fff" />
  <path id="crown" d="M55.133,30.524a5.656,5.656,0,1,0-11.311,0,5.312,5.312,0,0,0,.679,2.658l-6,4.581-5.938-7.8a5.649,5.649,0,1,0-9.728-3.9,5.547,5.547,0,0,0,1.47,3.789l-6.391,7.918L12.376,33.3a5.788,5.788,0,0,0,.735-2.771A5.656,5.656,0,1,0,7,36.179L9.152,47.434v5.882a1.666,1.666,0,0,0,1.7,1.7H46.028a1.666,1.666,0,0,0,1.7-1.7V47.434l2.149-11.255A5.715,5.715,0,0,0,55.133,30.524Zm-5.656-2.262a2.262,2.262,0,1,1-2.262,2.262A2.269,2.269,0,0,1,49.478,28.261ZM28.495,23.793a2.262,2.262,0,1,1-2.262,2.262A2.269,2.269,0,0,1,28.495,23.793ZM18.2,41.892h.17A1.747,1.747,0,0,0,19.5,41.27L27.251,31.6a8.438,8.438,0,0,0,1.188.113,6.93,6.93,0,0,0,1.075-.113l7.239,9.615a1.821,1.821,0,0,0,1.131.679h.226a1.579,1.579,0,0,0,1.018-.339L46.48,35.9l-1.866,9.671H12.32l-1.81-9.445,6.674,5.429A1.476,1.476,0,0,0,18.2,41.892ZM5.25,30.524a2.262,2.262,0,1,1,2.262,2.262A2.269,2.269,0,0,1,5.25,30.524ZM12.6,51.62V48.961H44.387V51.62Z" transform="translate(11.533 2.267)" fill="#00bdda" />
</svg>
