<svg xmlns="http://www.w3.org/2000/svg" width="235.347" height="404.609" viewBox="0 0 235.347 404.609">
  <g id="Group_35851" data-name="Group 35851" transform="translate(6786.348 -883) rotate(90)" opacity="0.4">
    <g id="Group_35647" data-name="Group 35647" transform="translate(883 6551.001)">
      <path id="Path_37525" data-name="Path 37525" d="M889.211,330.829a4.83,4.83,0,0,0-7.531,4h0v0a4.83,4.83,0,1,0,9.661,0v0h0A4.824,4.824,0,0,0,889.211,330.829Z" transform="translate(-881.68 -217.161)" fill="#00bdda" />
      <path id="Path_37526" data-name="Path 37526" d="M900.033,330.829a4.83,4.83,0,0,0-7.531,4h0v0a4.83,4.83,0,1,0,9.661,0v0h0A4.825,4.825,0,0,0,900.033,330.829Z" transform="translate(-864.291 -217.161)" fill="#00bdda" />
      <path id="Path_37527" data-name="Path 37527" d="M910.855,330.829a4.831,4.831,0,0,0-7.531,4h0v0a4.831,4.831,0,1,0,9.661,0v0h0A4.825,4.825,0,0,0,910.855,330.829Z" transform="translate(-846.902 -217.161)" fill="#00bdda" />
      <path id="Path_37528" data-name="Path 37528" d="M921.677,330.829a4.831,4.831,0,0,0-7.531,4h0v0a4.83,4.83,0,0,0,9.661,0v0h0A4.825,4.825,0,0,0,921.677,330.829Z" transform="translate(-829.512 -217.161)" fill="#00bdda" />
      <path id="Path_37529" data-name="Path 37529" d="M932.5,330.829a4.832,4.832,0,0,0-7.534,4h0v0a4.832,4.832,0,0,0,9.664,0v0h0A4.831,4.831,0,0,0,932.5,330.829Z" transform="translate(-812.125 -217.161)" fill="#00bdda" />
      <path id="Path_37530" data-name="Path 37530" d="M943.32,330.829a4.83,4.83,0,0,0-7.531,4h0v0a4.83,4.83,0,1,0,9.661,0v0h0A4.824,4.824,0,0,0,943.32,330.829Z" transform="translate(-794.736 -217.161)" fill="#00bdda" />
      <path id="Path_37531" data-name="Path 37531" d="M954.142,330.829a4.83,4.83,0,0,0-7.531,4h0v0a4.83,4.83,0,1,0,9.661,0v0h0A4.825,4.825,0,0,0,954.142,330.829Z" transform="translate(-777.347 -217.161)" fill="#00bdda" />
      <path id="Path_37532" data-name="Path 37532" d="M886.51,340.825a4.83,4.83,0,1,0,4.83,4.83A4.832,4.832,0,0,0,886.51,340.825Z" transform="translate(-881.68 -199.772)" fill="#00bdda" />
      <path id="Path_37533" data-name="Path 37533" d="M897.332,340.825a4.83,4.83,0,1,0,4.831,4.83A4.832,4.832,0,0,0,897.332,340.825Z" transform="translate(-864.291 -199.772)" fill="#00bdda" />
      <path id="Path_37534" data-name="Path 37534" d="M908.155,340.825a4.83,4.83,0,1,0,4.831,4.83A4.832,4.832,0,0,0,908.155,340.825Z" transform="translate(-846.902 -199.772)" fill="#00bdda" />
      <path id="Path_37535" data-name="Path 37535" d="M918.976,340.825a4.83,4.83,0,1,0,4.83,4.83A4.83,4.83,0,0,0,918.976,340.825Z" transform="translate(-829.512 -199.772)" fill="#00bdda" />
      <path id="Path_37536" data-name="Path 37536" d="M929.8,340.825a4.83,4.83,0,1,0,4.831,4.83A4.832,4.832,0,0,0,929.8,340.825Z" transform="translate(-812.125 -199.772)" fill="#00bdda" />
      <path id="Path_37537" data-name="Path 37537" d="M940.619,340.825a4.83,4.83,0,1,0,4.83,4.83A4.832,4.832,0,0,0,940.619,340.825Z" transform="translate(-794.736 -199.772)" fill="#00bdda" />
      <path id="Path_37538" data-name="Path 37538" d="M951.441,340.825a4.83,4.83,0,1,0,4.831,4.83A4.831,4.831,0,0,0,951.441,340.825Z" transform="translate(-777.347 -199.772)" fill="#00bdda" />
      <path id="Path_37539" data-name="Path 37539" d="M886.51,351.647a4.83,4.83,0,1,0,4.83,4.83A4.832,4.832,0,0,0,886.51,351.647Z" transform="translate(-881.68 -182.383)" fill="#00bdda" />
      <path id="Path_37540" data-name="Path 37540" d="M897.332,351.647a4.83,4.83,0,1,0,4.831,4.83A4.832,4.832,0,0,0,897.332,351.647Z" transform="translate(-864.291 -182.383)" fill="#00bdda" />
      <path id="Path_37541" data-name="Path 37541" d="M908.155,351.647a4.83,4.83,0,1,0,4.831,4.83A4.832,4.832,0,0,0,908.155,351.647Z" transform="translate(-846.902 -182.383)" fill="#00bdda" />
      <path id="Path_37542" data-name="Path 37542" d="M918.976,351.647a4.83,4.83,0,1,0,4.83,4.83A4.83,4.83,0,0,0,918.976,351.647Z" transform="translate(-829.512 -182.383)" fill="#00bdda" />
      <path id="Path_37543" data-name="Path 37543" d="M929.8,351.647a4.83,4.83,0,1,0,4.831,4.83A4.832,4.832,0,0,0,929.8,351.647Z" transform="translate(-812.125 -182.383)" fill="#00bdda" />
      <path id="Path_37544" data-name="Path 37544" d="M940.619,351.647a4.83,4.83,0,1,0,4.83,4.83A4.832,4.832,0,0,0,940.619,351.647Z" transform="translate(-794.736 -182.383)" fill="#00bdda" />
      <path id="Path_37545" data-name="Path 37545" d="M951.441,351.647a4.83,4.83,0,1,0,4.831,4.83A4.831,4.831,0,0,0,951.441,351.647Z" transform="translate(-777.347 -182.383)" fill="#00bdda" />
      <path id="Path_37546" data-name="Path 37546" d="M886.51,362.469a4.83,4.83,0,1,0,4.83,4.831A4.83,4.83,0,0,0,886.51,362.469Z" transform="translate(-881.68 -164.994)" fill="#00bdda" />
      <path id="Path_37547" data-name="Path 37547" d="M897.332,362.469a4.83,4.83,0,1,0,4.831,4.831A4.83,4.83,0,0,0,897.332,362.469Z" transform="translate(-864.291 -164.994)" fill="#00bdda" />
      <path id="Path_37548" data-name="Path 37548" d="M908.155,362.469a4.83,4.83,0,1,0,4.831,4.831A4.83,4.83,0,0,0,908.155,362.469Z" transform="translate(-846.902 -164.994)" fill="#00bdda" />
      <path id="Path_37549" data-name="Path 37549" d="M918.976,362.469a4.83,4.83,0,1,0,4.83,4.831A4.828,4.828,0,0,0,918.976,362.469Z" transform="translate(-829.512 -164.994)" fill="#00bdda" />
      <path id="Path_37550" data-name="Path 37550" d="M929.8,362.469a4.83,4.83,0,1,0,4.831,4.831A4.831,4.831,0,0,0,929.8,362.469Z" transform="translate(-812.125 -164.994)" fill="#00bdda" />
      <path id="Path_37551" data-name="Path 37551" d="M940.619,362.469a4.83,4.83,0,1,0,4.83,4.831A4.83,4.83,0,0,0,940.619,362.469Z" transform="translate(-794.736 -164.994)" fill="#00bdda" />
      <path id="Path_37552" data-name="Path 37552" d="M951.441,362.469a4.83,4.83,0,1,0,4.831,4.831A4.83,4.83,0,0,0,951.441,362.469Z" transform="translate(-777.347 -164.994)" fill="#00bdda" />
      <path id="Path_37553" data-name="Path 37553" d="M886.51,373.29a4.832,4.832,0,1,0,4.83,4.833A4.832,4.832,0,0,0,886.51,373.29Z" transform="translate(-881.68 -147.606)" fill="#00bdda" />
      <path id="Path_37554" data-name="Path 37554" d="M897.332,373.29a4.832,4.832,0,1,0,4.831,4.833A4.832,4.832,0,0,0,897.332,373.29Z" transform="translate(-864.291 -147.606)" fill="#00bdda" />
      <path id="Path_37555" data-name="Path 37555" d="M908.155,373.29a4.832,4.832,0,1,0,4.831,4.833A4.832,4.832,0,0,0,908.155,373.29Z" transform="translate(-846.902 -147.606)" fill="#00bdda" />
      <path id="Path_37556" data-name="Path 37556" d="M918.976,373.29a4.832,4.832,0,1,0,4.83,4.833A4.831,4.831,0,0,0,918.976,373.29Z" transform="translate(-829.512 -147.606)" fill="#00bdda" />
      <path id="Path_37557" data-name="Path 37557" d="M929.8,373.29a4.832,4.832,0,1,0,4.831,4.833A4.833,4.833,0,0,0,929.8,373.29Z" transform="translate(-812.125 -147.606)" fill="#00bdda" />
      <path id="Path_37558" data-name="Path 37558" d="M940.619,373.29a4.832,4.832,0,1,0,4.83,4.833A4.832,4.832,0,0,0,940.619,373.29Z" transform="translate(-794.736 -147.606)" fill="#00bdda" />
      <path id="Path_37559" data-name="Path 37559" d="M951.441,373.29a4.832,4.832,0,1,0,4.831,4.833A4.832,4.832,0,0,0,951.441,373.29Z" transform="translate(-777.347 -147.606)" fill="#00bdda" />
      <path id="Path_37560" data-name="Path 37560" d="M886.51,286.716a4.83,4.83,0,1,0,4.83,4.831A4.832,4.832,0,0,0,886.51,286.716Z" transform="translate(-881.68 -286.716)" fill="#00bdda" />
      <path id="Path_37561" data-name="Path 37561" d="M897.332,286.716a4.83,4.83,0,1,0,4.831,4.831A4.832,4.832,0,0,0,897.332,286.716Z" transform="translate(-864.291 -286.716)" fill="#00bdda" />
      <path id="Path_37562" data-name="Path 37562" d="M908.155,286.716a4.83,4.83,0,1,0,4.831,4.831A4.832,4.832,0,0,0,908.155,286.716Z" transform="translate(-846.902 -286.716)" fill="#00bdda" />
      <path id="Path_37563" data-name="Path 37563" d="M918.976,286.716a4.83,4.83,0,1,0,4.83,4.831A4.83,4.83,0,0,0,918.976,286.716Z" transform="translate(-829.512 -286.716)" fill="#00bdda" />
      <path id="Path_37564" data-name="Path 37564" d="M929.8,286.716a4.83,4.83,0,1,0,4.831,4.831A4.832,4.832,0,0,0,929.8,286.716Z" transform="translate(-812.125 -286.716)" fill="#00bdda" />
      <path id="Path_37565" data-name="Path 37565" d="M940.619,286.716a4.83,4.83,0,1,0,4.83,4.831A4.832,4.832,0,0,0,940.619,286.716Z" transform="translate(-794.736 -286.716)" fill="#00bdda" />
      <path id="Path_37566" data-name="Path 37566" d="M951.441,286.716a4.83,4.83,0,1,0,4.831,4.831A4.832,4.832,0,0,0,951.441,286.716Z" transform="translate(-777.347 -286.716)" fill="#00bdda" />
      <path id="Path_37567" data-name="Path 37567" d="M886.51,297.538a4.83,4.83,0,1,0,4.83,4.83A4.832,4.832,0,0,0,886.51,297.538Z" transform="translate(-881.68 -269.327)" fill="#00bdda" />
      <path id="Path_37568" data-name="Path 37568" d="M897.332,297.538a4.83,4.83,0,1,0,4.831,4.83A4.832,4.832,0,0,0,897.332,297.538Z" transform="translate(-864.291 -269.327)" fill="#00bdda" />
      <path id="Path_37569" data-name="Path 37569" d="M908.155,297.538a4.83,4.83,0,1,0,4.831,4.83A4.832,4.832,0,0,0,908.155,297.538Z" transform="translate(-846.902 -269.327)" fill="#00bdda" />
      <path id="Path_37570" data-name="Path 37570" d="M918.976,297.538a4.83,4.83,0,1,0,4.83,4.83A4.83,4.83,0,0,0,918.976,297.538Z" transform="translate(-829.512 -269.327)" fill="#00bdda" />
      <path id="Path_37571" data-name="Path 37571" d="M929.8,297.538a4.83,4.83,0,1,0,4.831,4.83A4.832,4.832,0,0,0,929.8,297.538Z" transform="translate(-812.125 -269.327)" fill="#00bdda" />
      <path id="Path_37572" data-name="Path 37572" d="M940.619,297.538a4.83,4.83,0,1,0,4.83,4.83A4.832,4.832,0,0,0,940.619,297.538Z" transform="translate(-794.736 -269.327)" fill="#00bdda" />
      <path id="Path_37573" data-name="Path 37573" d="M951.441,297.538a4.83,4.83,0,1,0,4.831,4.83A4.832,4.832,0,0,0,951.441,297.538Z" transform="translate(-777.347 -269.327)" fill="#00bdda" />
      <path id="Path_37574" data-name="Path 37574" d="M886.51,308.36a4.83,4.83,0,1,0,4.83,4.83A4.832,4.832,0,0,0,886.51,308.36Z" transform="translate(-881.68 -251.938)" fill="#00bdda" />
      <path id="Path_37575" data-name="Path 37575" d="M897.332,308.36a4.83,4.83,0,1,0,4.831,4.83A4.832,4.832,0,0,0,897.332,308.36Z" transform="translate(-864.291 -251.938)" fill="#00bdda" />
      <path id="Path_37576" data-name="Path 37576" d="M908.155,308.36a4.83,4.83,0,1,0,4.831,4.83A4.832,4.832,0,0,0,908.155,308.36Z" transform="translate(-846.902 -251.938)" fill="#00bdda" />
      <path id="Path_37577" data-name="Path 37577" d="M918.976,308.36a4.83,4.83,0,1,0,4.83,4.83A4.83,4.83,0,0,0,918.976,308.36Z" transform="translate(-829.512 -251.938)" fill="#00bdda" />
      <path id="Path_37578" data-name="Path 37578" d="M929.8,308.36a4.83,4.83,0,1,0,4.831,4.83A4.832,4.832,0,0,0,929.8,308.36Z" transform="translate(-812.125 -251.938)" fill="#00bdda" />
      <path id="Path_37579" data-name="Path 37579" d="M940.619,308.36a4.83,4.83,0,1,0,4.83,4.83A4.832,4.832,0,0,0,940.619,308.36Z" transform="translate(-794.736 -251.938)" fill="#00bdda" />
      <path id="Path_37580" data-name="Path 37580" d="M951.441,308.36a4.83,4.83,0,1,0,4.831,4.83A4.832,4.832,0,0,0,951.441,308.36Z" transform="translate(-777.347 -251.938)" fill="#00bdda" />
      <path id="Path_37581" data-name="Path 37581" d="M886.51,319.182a4.83,4.83,0,1,0,4.83,4.831A4.83,4.83,0,0,0,886.51,319.182Z" transform="translate(-881.68 -234.549)" fill="#00bdda" />
      <path id="Path_37582" data-name="Path 37582" d="M897.332,319.182a4.83,4.83,0,1,0,4.831,4.831A4.83,4.83,0,0,0,897.332,319.182Z" transform="translate(-864.291 -234.549)" fill="#00bdda" />
      <path id="Path_37583" data-name="Path 37583" d="M908.155,319.182a4.83,4.83,0,1,0,4.831,4.831A4.83,4.83,0,0,0,908.155,319.182Z" transform="translate(-846.902 -234.549)" fill="#00bdda" />
      <path id="Path_37584" data-name="Path 37584" d="M918.976,319.182a4.83,4.83,0,1,0,4.83,4.831A4.828,4.828,0,0,0,918.976,319.182Z" transform="translate(-829.512 -234.549)" fill="#00bdda" />
      <path id="Path_37585" data-name="Path 37585" d="M929.8,319.182a4.83,4.83,0,1,0,4.831,4.831A4.831,4.831,0,0,0,929.8,319.182Z" transform="translate(-812.125 -234.549)" fill="#00bdda" />
      <path id="Path_37586" data-name="Path 37586" d="M940.619,319.182a4.83,4.83,0,1,0,4.83,4.831A4.83,4.83,0,0,0,940.619,319.182Z" transform="translate(-794.736 -234.549)" fill="#00bdda" />
      <path id="Path_37587" data-name="Path 37587" d="M951.441,319.182a4.83,4.83,0,1,0,4.831,4.831A4.83,4.83,0,0,0,951.441,319.182Z" transform="translate(-777.347 -234.549)" fill="#00bdda" />
      <path id="Path_37588" data-name="Path 37588" d="M966.267,332.133a4.843,4.843,0,0,0-1.3-1.3,4.831,4.831,0,0,0-7.531,4h0v0a4.83,4.83,0,0,0,9.661,0v0h0A4.811,4.811,0,0,0,966.267,332.133Z" transform="translate(-759.957 -217.161)" fill="#00bdda" />
      <path id="Path_37589" data-name="Path 37589" d="M975.786,330.829a4.83,4.83,0,0,0-7.531,4h0v0a4.83,4.83,0,0,0,9.661,0v0h0A4.824,4.824,0,0,0,975.786,330.829Z" transform="translate(-742.569 -217.161)" fill="#00bdda" />
      <path id="Path_37590" data-name="Path 37590" d="M986.607,330.829a4.831,4.831,0,0,0-7.531,4h0v0a4.83,4.83,0,1,0,9.661,0v0h0A4.825,4.825,0,0,0,986.607,330.829Z" transform="translate(-725.181 -217.161)" fill="#00bdda" />
      <path id="Path_37591" data-name="Path 37591" d="M997.429,330.829a4.831,4.831,0,0,0-7.531,4h0v0a4.83,4.83,0,1,0,9.661,0v0h0A4.824,4.824,0,0,0,997.429,330.829Z" transform="translate(-707.792 -217.161)" fill="#00bdda" />
      <path id="Path_37592" data-name="Path 37592" d="M1008.251,330.829a4.831,4.831,0,0,0-7.531,4h0v0a4.831,4.831,0,1,0,9.661,0v0h0A4.825,4.825,0,0,0,1008.251,330.829Z" transform="translate(-690.403 -217.161)" fill="#00bdda" />
      <path id="Path_37593" data-name="Path 37593" d="M1019.073,330.829a4.831,4.831,0,0,0-7.531,4h0v0a4.83,4.83,0,0,0,9.661,0v0h0A4.824,4.824,0,0,0,1019.073,330.829Z" transform="translate(-673.013 -217.161)" fill="#00bdda" />
      <path id="Path_37594" data-name="Path 37594" d="M1029.9,330.829a4.832,4.832,0,0,0-7.534,4h0v0a4.832,4.832,0,0,0,9.664,0v0h0A4.831,4.831,0,0,0,1029.9,330.829Z" transform="translate(-655.626 -217.161)" fill="#00bdda" />
      <path id="Path_37595" data-name="Path 37595" d="M1040.716,330.829a4.83,4.83,0,0,0-7.531,4h0v0a4.83,4.83,0,1,0,9.661,0v0h0A4.824,4.824,0,0,0,1040.716,330.829Z" transform="translate(-638.237 -217.161)" fill="#00bdda" />
      <path id="Path_37596" data-name="Path 37596" d="M963.236,340.924a4.773,4.773,0,0,0-.973-.1,4.83,4.83,0,0,0,0,9.661,4.961,4.961,0,0,0,.973-.1,4.832,4.832,0,0,0,0-9.465Z" transform="translate(-759.957 -199.772)" fill="#00bdda" />
      <path id="Path_37597" data-name="Path 37597" d="M973.085,340.825a4.83,4.83,0,1,0,4.83,4.83A4.83,4.83,0,0,0,973.085,340.825Z" transform="translate(-742.569 -199.772)" fill="#00bdda" />
      <path id="Path_37598" data-name="Path 37598" d="M983.907,340.825a4.83,4.83,0,1,0,4.83,4.83A4.832,4.832,0,0,0,983.907,340.825Z" transform="translate(-725.181 -199.772)" fill="#00bdda" />
      <path id="Path_37599" data-name="Path 37599" d="M994.728,340.825a4.83,4.83,0,1,0,4.831,4.83A4.832,4.832,0,0,0,994.728,340.825Z" transform="translate(-707.792 -199.772)" fill="#00bdda" />
      <path id="Path_37600" data-name="Path 37600" d="M1005.551,340.825a4.83,4.83,0,1,0,4.83,4.83A4.832,4.832,0,0,0,1005.551,340.825Z" transform="translate(-690.403 -199.772)" fill="#00bdda" />
      <path id="Path_37601" data-name="Path 37601" d="M1016.372,340.825a4.83,4.83,0,1,0,4.83,4.83A4.83,4.83,0,0,0,1016.372,340.825Z" transform="translate(-673.013 -199.772)" fill="#00bdda" />
      <path id="Path_37602" data-name="Path 37602" d="M1027.2,340.825a4.83,4.83,0,1,0,4.831,4.83A4.832,4.832,0,0,0,1027.2,340.825Z" transform="translate(-655.626 -199.772)" fill="#00bdda" />
      <path id="Path_37603" data-name="Path 37603" d="M1038.015,340.825a4.83,4.83,0,1,0,4.831,4.83A4.832,4.832,0,0,0,1038.015,340.825Z" transform="translate(-638.237 -199.772)" fill="#00bdda" />
      <path id="Path_37604" data-name="Path 37604" d="M963.236,351.746a4.775,4.775,0,0,0-.973-.1,4.83,4.83,0,0,0,0,9.661,4.83,4.83,0,0,0,.973-9.562Z" transform="translate(-759.957 -182.383)" fill="#00bdda" />
      <path id="Path_37605" data-name="Path 37605" d="M973.085,351.647a4.83,4.83,0,1,0,4.83,4.83A4.83,4.83,0,0,0,973.085,351.647Z" transform="translate(-742.569 -182.383)" fill="#00bdda" />
      <path id="Path_37606" data-name="Path 37606" d="M983.907,351.647a4.83,4.83,0,1,0,4.83,4.83A4.832,4.832,0,0,0,983.907,351.647Z" transform="translate(-725.181 -182.383)" fill="#00bdda" />
      <path id="Path_37607" data-name="Path 37607" d="M994.728,351.647a4.83,4.83,0,1,0,4.831,4.83A4.832,4.832,0,0,0,994.728,351.647Z" transform="translate(-707.792 -182.383)" fill="#00bdda" />
      <path id="Path_37608" data-name="Path 37608" d="M1005.551,351.647a4.83,4.83,0,1,0,4.83,4.83A4.832,4.832,0,0,0,1005.551,351.647Z" transform="translate(-690.403 -182.383)" fill="#00bdda" />
      <path id="Path_37609" data-name="Path 37609" d="M1016.372,351.647a4.83,4.83,0,1,0,4.83,4.83A4.83,4.83,0,0,0,1016.372,351.647Z" transform="translate(-673.013 -182.383)" fill="#00bdda" />
      <path id="Path_37610" data-name="Path 37610" d="M1027.2,351.647a4.83,4.83,0,1,0,4.831,4.83A4.832,4.832,0,0,0,1027.2,351.647Z" transform="translate(-655.626 -182.383)" fill="#00bdda" />
      <path id="Path_37611" data-name="Path 37611" d="M1038.015,351.647a4.83,4.83,0,1,0,4.831,4.83A4.832,4.832,0,0,0,1038.015,351.647Z" transform="translate(-638.237 -182.383)" fill="#00bdda" />
      <path id="Path_37612" data-name="Path 37612" d="M963.236,362.566a4.959,4.959,0,0,0-.973-.1,4.83,4.83,0,0,0,0,9.661,4.775,4.775,0,0,0,.973-.1,4.832,4.832,0,0,0,0-9.465Z" transform="translate(-759.957 -164.994)" fill="#00bdda" />
      <path id="Path_37613" data-name="Path 37613" d="M973.085,362.469a4.83,4.83,0,1,0,4.83,4.831A4.828,4.828,0,0,0,973.085,362.469Z" transform="translate(-742.569 -164.994)" fill="#00bdda" />
      <path id="Path_37614" data-name="Path 37614" d="M983.907,362.469a4.83,4.83,0,1,0,4.83,4.831A4.83,4.83,0,0,0,983.907,362.469Z" transform="translate(-725.181 -164.994)" fill="#00bdda" />
      <path id="Path_37615" data-name="Path 37615" d="M994.728,362.469a4.83,4.83,0,1,0,4.831,4.831A4.83,4.83,0,0,0,994.728,362.469Z" transform="translate(-707.792 -164.994)" fill="#00bdda" />
      <path id="Path_37616" data-name="Path 37616" d="M1005.551,362.469a4.83,4.83,0,1,0,4.83,4.831A4.83,4.83,0,0,0,1005.551,362.469Z" transform="translate(-690.403 -164.994)" fill="#00bdda" />
      <path id="Path_37617" data-name="Path 37617" d="M1016.372,362.469a4.83,4.83,0,1,0,4.83,4.831A4.829,4.829,0,0,0,1016.372,362.469Z" transform="translate(-673.013 -164.994)" fill="#00bdda" />
      <path id="Path_37618" data-name="Path 37618" d="M1027.2,362.469a4.83,4.83,0,1,0,4.831,4.831A4.831,4.831,0,0,0,1027.2,362.469Z" transform="translate(-655.626 -164.994)" fill="#00bdda" />
      <path id="Path_37619" data-name="Path 37619" d="M1038.015,362.469a4.83,4.83,0,1,0,4.831,4.831A4.83,4.83,0,0,0,1038.015,362.469Z" transform="translate(-638.237 -164.994)" fill="#00bdda" />
      <path id="Path_37620" data-name="Path 37620" d="M963.236,373.389a4.773,4.773,0,0,0-.973-.1,4.832,4.832,0,0,0,0,9.664,4.766,4.766,0,0,0,.973-.1,4.832,4.832,0,0,0,0-9.465Z" transform="translate(-759.957 -147.606)" fill="#00bdda" />
      <path id="Path_37621" data-name="Path 37621" d="M973.085,373.29a4.832,4.832,0,1,0,4.83,4.833A4.83,4.83,0,0,0,973.085,373.29Z" transform="translate(-742.569 -147.606)" fill="#00bdda" />
      <path id="Path_37622" data-name="Path 37622" d="M983.907,373.29a4.832,4.832,0,1,0,4.83,4.833A4.832,4.832,0,0,0,983.907,373.29Z" transform="translate(-725.181 -147.606)" fill="#00bdda" />
      <path id="Path_37623" data-name="Path 37623" d="M994.728,373.29a4.832,4.832,0,1,0,4.831,4.833A4.832,4.832,0,0,0,994.728,373.29Z" transform="translate(-707.792 -147.606)" fill="#00bdda" />
      <path id="Path_37624" data-name="Path 37624" d="M1005.551,373.29a4.832,4.832,0,1,0,4.83,4.833A4.832,4.832,0,0,0,1005.551,373.29Z" transform="translate(-690.403 -147.606)" fill="#00bdda" />
      <path id="Path_37625" data-name="Path 37625" d="M1016.372,373.29a4.832,4.832,0,1,0,4.83,4.833A4.831,4.831,0,0,0,1016.372,373.29Z" transform="translate(-673.013 -147.606)" fill="#00bdda" />
      <path id="Path_37626" data-name="Path 37626" d="M1027.2,373.29a4.832,4.832,0,1,0,4.831,4.833A4.833,4.833,0,0,0,1027.2,373.29Z" transform="translate(-655.626 -147.606)" fill="#00bdda" />
      <path id="Path_37627" data-name="Path 37627" d="M1038.015,373.29a4.832,4.832,0,1,0,4.831,4.833A4.832,4.832,0,0,0,1038.015,373.29Z" transform="translate(-638.237 -147.606)" fill="#00bdda" />
      <path id="Path_37628" data-name="Path 37628" d="M963.236,286.815a4.773,4.773,0,0,0-.973-.1,4.83,4.83,0,0,0,0,9.661,4.964,4.964,0,0,0,.973-.1,4.832,4.832,0,0,0,0-9.465Z" transform="translate(-759.957 -286.716)" fill="#00bdda" />
      <path id="Path_37629" data-name="Path 37629" d="M973.085,286.716a4.83,4.83,0,1,0,4.83,4.831A4.83,4.83,0,0,0,973.085,286.716Z" transform="translate(-742.569 -286.716)" fill="#00bdda" />
      <path id="Path_37630" data-name="Path 37630" d="M983.907,286.716a4.83,4.83,0,1,0,4.83,4.831A4.832,4.832,0,0,0,983.907,286.716Z" transform="translate(-725.181 -286.716)" fill="#00bdda" />
      <path id="Path_37631" data-name="Path 37631" d="M994.728,286.716a4.83,4.83,0,1,0,4.831,4.831A4.832,4.832,0,0,0,994.728,286.716Z" transform="translate(-707.792 -286.716)" fill="#00bdda" />
      <path id="Path_37632" data-name="Path 37632" d="M1005.551,286.716a4.83,4.83,0,1,0,4.83,4.831A4.832,4.832,0,0,0,1005.551,286.716Z" transform="translate(-690.403 -286.716)" fill="#00bdda" />
      <path id="Path_37633" data-name="Path 37633" d="M1016.372,286.716a4.83,4.83,0,1,0,4.83,4.831A4.83,4.83,0,0,0,1016.372,286.716Z" transform="translate(-673.013 -286.716)" fill="#00bdda" />
      <path id="Path_37634" data-name="Path 37634" d="M1027.2,286.716a4.83,4.83,0,1,0,4.831,4.831A4.832,4.832,0,0,0,1027.2,286.716Z" transform="translate(-655.626 -286.716)" fill="#00bdda" />
      <path id="Path_37635" data-name="Path 37635" d="M1038.015,296.377a4.83,4.83,0,1,0-4.83-4.83A4.828,4.828,0,0,0,1038.015,296.377Z" transform="translate(-638.237 -286.716)" fill="#00bdda" />
      <path id="Path_37636" data-name="Path 37636" d="M963.236,297.637a4.766,4.766,0,0,0-.973-.1,4.83,4.83,0,0,0,0,9.661,4.966,4.966,0,0,0,.973-.1,4.832,4.832,0,0,0,0-9.465Z" transform="translate(-759.957 -269.327)" fill="#00bdda" />
      <path id="Path_37637" data-name="Path 37637" d="M973.085,297.538a4.83,4.83,0,1,0,4.83,4.83A4.83,4.83,0,0,0,973.085,297.538Z" transform="translate(-742.569 -269.327)" fill="#00bdda" />
      <path id="Path_37638" data-name="Path 37638" d="M983.907,297.538a4.83,4.83,0,1,0,4.83,4.83A4.832,4.832,0,0,0,983.907,297.538Z" transform="translate(-725.181 -269.327)" fill="#00bdda" />
      <path id="Path_37639" data-name="Path 37639" d="M994.728,297.538a4.83,4.83,0,1,0,4.831,4.83A4.832,4.832,0,0,0,994.728,297.538Z" transform="translate(-707.792 -269.327)" fill="#00bdda" />
      <path id="Path_37640" data-name="Path 37640" d="M1005.551,297.538a4.83,4.83,0,1,0,4.83,4.83A4.832,4.832,0,0,0,1005.551,297.538Z" transform="translate(-690.403 -269.327)" fill="#00bdda" />
      <path id="Path_37641" data-name="Path 37641" d="M1016.372,297.538a4.83,4.83,0,1,0,4.83,4.83A4.83,4.83,0,0,0,1016.372,297.538Z" transform="translate(-673.013 -269.327)" fill="#00bdda" />
      <path id="Path_37642" data-name="Path 37642" d="M1027.2,297.538a4.83,4.83,0,1,0,4.831,4.83A4.833,4.833,0,0,0,1027.2,297.538Z" transform="translate(-655.626 -269.327)" fill="#00bdda" />
      <path id="Path_37643" data-name="Path 37643" d="M1038.015,297.538a4.83,4.83,0,1,0,4.831,4.83A4.832,4.832,0,0,0,1038.015,297.538Z" transform="translate(-638.237 -269.327)" fill="#00bdda" />
      <path id="Path_37644" data-name="Path 37644" d="M963.236,308.459a4.766,4.766,0,0,0-.973-.1,4.83,4.83,0,0,0,0,9.661,4.771,4.771,0,0,0,.973-.1,4.83,4.83,0,0,0,0-9.463Z" transform="translate(-759.957 -251.938)" fill="#00bdda" />
      <path id="Path_37645" data-name="Path 37645" d="M973.085,308.36a4.83,4.83,0,1,0,4.83,4.83A4.83,4.83,0,0,0,973.085,308.36Z" transform="translate(-742.569 -251.938)" fill="#00bdda" />
      <path id="Path_37646" data-name="Path 37646" d="M983.907,308.36a4.83,4.83,0,1,0,4.83,4.83A4.832,4.832,0,0,0,983.907,308.36Z" transform="translate(-725.181 -251.938)" fill="#00bdda" />
      <path id="Path_37647" data-name="Path 37647" d="M994.728,308.36a4.83,4.83,0,1,0,4.831,4.83A4.832,4.832,0,0,0,994.728,308.36Z" transform="translate(-707.792 -251.938)" fill="#00bdda" />
      <path id="Path_37648" data-name="Path 37648" d="M1005.551,308.36a4.83,4.83,0,1,0,4.83,4.83A4.832,4.832,0,0,0,1005.551,308.36Z" transform="translate(-690.403 -251.938)" fill="#00bdda" />
      <path id="Path_37649" data-name="Path 37649" d="M1016.372,308.36a4.83,4.83,0,1,0,4.83,4.83A4.83,4.83,0,0,0,1016.372,308.36Z" transform="translate(-673.013 -251.938)" fill="#00bdda" />
      <path id="Path_37650" data-name="Path 37650" d="M1027.2,308.36a4.83,4.83,0,1,0,4.831,4.83A4.833,4.833,0,0,0,1027.2,308.36Z" transform="translate(-655.626 -251.938)" fill="#00bdda" />
      <path id="Path_37651" data-name="Path 37651" d="M1038.015,308.36a4.83,4.83,0,1,0,4.831,4.83A4.832,4.832,0,0,0,1038.015,308.36Z" transform="translate(-638.237 -251.938)" fill="#00bdda" />
      <path id="Path_37652" data-name="Path 37652" d="M963.236,319.278a4.966,4.966,0,0,0-.973-.1,4.83,4.83,0,0,0,0,9.661,4.775,4.775,0,0,0,.973-.1,4.832,4.832,0,0,0,0-9.465Z" transform="translate(-759.957 -234.549)" fill="#00bdda" />
      <path id="Path_37653" data-name="Path 37653" d="M973.085,319.182a4.83,4.83,0,1,0,4.83,4.831A4.828,4.828,0,0,0,973.085,319.182Z" transform="translate(-742.569 -234.549)" fill="#00bdda" />
      <path id="Path_37654" data-name="Path 37654" d="M983.907,319.182a4.83,4.83,0,1,0,4.83,4.831A4.83,4.83,0,0,0,983.907,319.182Z" transform="translate(-725.181 -234.549)" fill="#00bdda" />
      <path id="Path_37655" data-name="Path 37655" d="M994.728,319.182a4.83,4.83,0,1,0,4.831,4.831A4.83,4.83,0,0,0,994.728,319.182Z" transform="translate(-707.792 -234.549)" fill="#00bdda" />
      <path id="Path_37656" data-name="Path 37656" d="M1005.551,319.182a4.83,4.83,0,1,0,4.83,4.831A4.83,4.83,0,0,0,1005.551,319.182Z" transform="translate(-690.403 -234.549)" fill="#00bdda" />
      <path id="Path_37657" data-name="Path 37657" d="M1016.372,319.182a4.83,4.83,0,1,0,4.83,4.831A4.828,4.828,0,0,0,1016.372,319.182Z" transform="translate(-673.013 -234.549)" fill="#00bdda" />
      <path id="Path_37658" data-name="Path 37658" d="M1027.2,319.182a4.83,4.83,0,1,0,4.831,4.831A4.831,4.831,0,0,0,1027.2,319.182Z" transform="translate(-655.626 -234.549)" fill="#00bdda" />
      <path id="Path_37659" data-name="Path 37659" d="M1038.015,319.182a4.83,4.83,0,1,0,4.831,4.831A4.83,4.83,0,0,0,1038.015,319.182Z" transform="translate(-638.237 -234.549)" fill="#00bdda" />
    </g>
  </g>
</svg>
