<svg xmlns="http://www.w3.org/2000/svg" width="283.239" height="486.944" viewBox="0 0 283.239 486.944">
  <g id="Group_35871" data-name="Group 35871" transform="translate(6834.239 -883) rotate(90)" opacity="0.1">
    <g id="Group_35647" data-name="Group 35647" transform="translate(883 6551.001)">
      <path id="Path_37525" data-name="Path 37525" d="M890.743,331a5.813,5.813,0,0,0-9.063,4.819h0v0a5.813,5.813,0,1,0,11.627,0v0h0A5.806,5.806,0,0,0,890.743,331Z" transform="translate(-881.68 -194.199)" fill="#2f3a3e" />
      <path id="Path_37526" data-name="Path 37526" d="M901.565,331a5.813,5.813,0,0,0-9.063,4.819h0v0a5.813,5.813,0,1,0,11.627,0v0h0A5.806,5.806,0,0,0,901.565,331Z" transform="translate(-858.55 -194.199)" fill="#2f3a3e" />
      <path id="Path_37527" data-name="Path 37527" d="M912.388,331a5.814,5.814,0,0,0-9.064,4.819h0v0a5.814,5.814,0,1,0,11.627,0v0h0A5.806,5.806,0,0,0,912.388,331Z" transform="translate(-835.42 -194.199)" fill="#2f3a3e" />
      <path id="Path_37528" data-name="Path 37528" d="M923.21,331a5.813,5.813,0,0,0-9.064,4.819h0v0a5.813,5.813,0,0,0,11.627,0v0h0A5.807,5.807,0,0,0,923.21,331Z" transform="translate(-812.29 -194.199)" fill="#2f3a3e" />
      <path id="Path_37529" data-name="Path 37529" d="M934.034,331a5.815,5.815,0,0,0-9.067,4.819h0v0a5.815,5.815,0,0,0,11.63,0v0h0A5.814,5.814,0,0,0,934.034,331Z" transform="translate(-789.162 -194.199)" fill="#2f3a3e" />
      <path id="Path_37530" data-name="Path 37530" d="M944.853,331a5.813,5.813,0,0,0-9.064,4.819h0v0a5.813,5.813,0,1,0,11.627,0v0h0A5.805,5.805,0,0,0,944.853,331Z" transform="translate(-766.033 -194.199)" fill="#2f3a3e" />
      <path id="Path_37531" data-name="Path 37531" d="M955.675,331a5.813,5.813,0,0,0-9.064,4.819h0v0a5.813,5.813,0,1,0,11.627,0v0h0A5.807,5.807,0,0,0,955.675,331Z" transform="translate(-742.903 -194.199)" fill="#2f3a3e" />
      <path id="Path_37532" data-name="Path 37532" d="M887.493,340.825a5.813,5.813,0,1,0,5.813,5.813A5.815,5.815,0,0,0,887.493,340.825Z" transform="translate(-881.68 -171.069)" fill="#2f3a3e" />
      <path id="Path_37533" data-name="Path 37533" d="M898.315,340.825a5.813,5.813,0,1,0,5.813,5.813A5.815,5.815,0,0,0,898.315,340.825Z" transform="translate(-858.55 -171.069)" fill="#2f3a3e" />
      <path id="Path_37534" data-name="Path 37534" d="M909.138,340.825a5.813,5.813,0,1,0,5.813,5.813A5.815,5.815,0,0,0,909.138,340.825Z" transform="translate(-835.42 -171.069)" fill="#2f3a3e" />
      <path id="Path_37535" data-name="Path 37535" d="M919.959,340.825a5.813,5.813,0,1,0,5.813,5.813A5.813,5.813,0,0,0,919.959,340.825Z" transform="translate(-812.29 -171.069)" fill="#2f3a3e" />
      <path id="Path_37536" data-name="Path 37536" d="M930.783,340.825a5.813,5.813,0,1,0,5.814,5.813A5.816,5.816,0,0,0,930.783,340.825Z" transform="translate(-789.162 -171.069)" fill="#2f3a3e" />
      <path id="Path_37537" data-name="Path 37537" d="M941.6,340.825a5.813,5.813,0,1,0,5.813,5.813A5.815,5.815,0,0,0,941.6,340.825Z" transform="translate(-766.033 -171.069)" fill="#2f3a3e" />
      <path id="Path_37538" data-name="Path 37538" d="M952.424,340.825a5.813,5.813,0,1,0,5.814,5.813A5.815,5.815,0,0,0,952.424,340.825Z" transform="translate(-742.903 -171.069)" fill="#2f3a3e" />
      <path id="Path_37539" data-name="Path 37539" d="M887.493,351.647a5.813,5.813,0,1,0,5.813,5.813A5.815,5.815,0,0,0,887.493,351.647Z" transform="translate(-881.68 -147.939)" fill="#2f3a3e" />
      <path id="Path_37540" data-name="Path 37540" d="M898.315,351.647a5.813,5.813,0,1,0,5.813,5.813A5.815,5.815,0,0,0,898.315,351.647Z" transform="translate(-858.55 -147.939)" fill="#2f3a3e" />
      <path id="Path_37541" data-name="Path 37541" d="M909.138,351.647a5.813,5.813,0,1,0,5.813,5.813A5.815,5.815,0,0,0,909.138,351.647Z" transform="translate(-835.42 -147.939)" fill="#2f3a3e" />
      <path id="Path_37542" data-name="Path 37542" d="M919.959,351.647a5.813,5.813,0,1,0,5.813,5.813A5.813,5.813,0,0,0,919.959,351.647Z" transform="translate(-812.29 -147.939)" fill="#2f3a3e" />
      <path id="Path_37543" data-name="Path 37543" d="M930.783,351.647a5.813,5.813,0,1,0,5.814,5.813A5.816,5.816,0,0,0,930.783,351.647Z" transform="translate(-789.162 -147.939)" fill="#2f3a3e" />
      <path id="Path_37544" data-name="Path 37544" d="M941.6,351.647a5.813,5.813,0,1,0,5.813,5.813A5.815,5.815,0,0,0,941.6,351.647Z" transform="translate(-766.033 -147.939)" fill="#2f3a3e" />
      <path id="Path_37545" data-name="Path 37545" d="M952.424,351.647a5.813,5.813,0,1,0,5.814,5.813A5.815,5.815,0,0,0,952.424,351.647Z" transform="translate(-742.903 -147.939)" fill="#2f3a3e" />
      <path id="Path_37546" data-name="Path 37546" d="M887.493,362.469a5.813,5.813,0,1,0,5.813,5.813A5.813,5.813,0,0,0,887.493,362.469Z" transform="translate(-881.68 -124.809)" fill="#2f3a3e" />
      <path id="Path_37547" data-name="Path 37547" d="M898.315,362.469a5.813,5.813,0,1,0,5.813,5.813A5.813,5.813,0,0,0,898.315,362.469Z" transform="translate(-858.55 -124.809)" fill="#2f3a3e" />
      <path id="Path_37548" data-name="Path 37548" d="M909.138,362.469a5.813,5.813,0,1,0,5.813,5.813A5.813,5.813,0,0,0,909.138,362.469Z" transform="translate(-835.42 -124.809)" fill="#2f3a3e" />
      <path id="Path_37549" data-name="Path 37549" d="M919.959,362.469a5.813,5.813,0,1,0,5.813,5.813A5.811,5.811,0,0,0,919.959,362.469Z" transform="translate(-812.29 -124.809)" fill="#2f3a3e" />
      <path id="Path_37550" data-name="Path 37550" d="M930.783,362.469a5.813,5.813,0,1,0,5.814,5.813A5.814,5.814,0,0,0,930.783,362.469Z" transform="translate(-789.162 -124.809)" fill="#2f3a3e" />
      <path id="Path_37551" data-name="Path 37551" d="M941.6,362.469a5.813,5.813,0,1,0,5.813,5.813A5.813,5.813,0,0,0,941.6,362.469Z" transform="translate(-766.033 -124.809)" fill="#2f3a3e" />
      <path id="Path_37552" data-name="Path 37552" d="M952.424,362.469a5.813,5.813,0,1,0,5.814,5.813A5.813,5.813,0,0,0,952.424,362.469Z" transform="translate(-742.903 -124.809)" fill="#2f3a3e" />
      <path id="Path_37553" data-name="Path 37553" d="M887.493,373.29a5.815,5.815,0,1,0,5.813,5.817A5.816,5.816,0,0,0,887.493,373.29Z" transform="translate(-881.68 -101.681)" fill="#2f3a3e" />
      <path id="Path_37554" data-name="Path 37554" d="M898.315,373.29a5.815,5.815,0,1,0,5.813,5.817A5.816,5.816,0,0,0,898.315,373.29Z" transform="translate(-858.55 -101.681)" fill="#2f3a3e" />
      <path id="Path_37555" data-name="Path 37555" d="M909.138,373.29a5.815,5.815,0,1,0,5.813,5.817A5.816,5.816,0,0,0,909.138,373.29Z" transform="translate(-835.42 -101.681)" fill="#2f3a3e" />
      <path id="Path_37556" data-name="Path 37556" d="M919.959,373.29a5.815,5.815,0,1,0,5.813,5.817A5.813,5.813,0,0,0,919.959,373.29Z" transform="translate(-812.29 -101.681)" fill="#2f3a3e" />
      <path id="Path_37557" data-name="Path 37557" d="M930.783,373.29a5.815,5.815,0,1,0,5.814,5.817A5.816,5.816,0,0,0,930.783,373.29Z" transform="translate(-789.162 -101.681)" fill="#2f3a3e" />
      <path id="Path_37558" data-name="Path 37558" d="M941.6,373.29a5.815,5.815,0,1,0,5.813,5.817A5.816,5.816,0,0,0,941.6,373.29Z" transform="translate(-766.033 -101.681)" fill="#2f3a3e" />
      <path id="Path_37559" data-name="Path 37559" d="M952.424,373.29a5.815,5.815,0,1,0,5.814,5.817A5.815,5.815,0,0,0,952.424,373.29Z" transform="translate(-742.903 -101.681)" fill="#2f3a3e" />
      <path id="Path_37560" data-name="Path 37560" d="M887.493,286.716a5.813,5.813,0,1,0,5.813,5.814A5.815,5.815,0,0,0,887.493,286.716Z" transform="translate(-881.68 -286.716)" fill="#2f3a3e" />
      <path id="Path_37561" data-name="Path 37561" d="M898.315,286.716a5.813,5.813,0,1,0,5.813,5.814A5.815,5.815,0,0,0,898.315,286.716Z" transform="translate(-858.55 -286.716)" fill="#2f3a3e" />
      <path id="Path_37562" data-name="Path 37562" d="M909.138,286.716a5.813,5.813,0,1,0,5.813,5.814A5.815,5.815,0,0,0,909.138,286.716Z" transform="translate(-835.42 -286.716)" fill="#2f3a3e" />
      <path id="Path_37563" data-name="Path 37563" d="M919.959,286.716a5.813,5.813,0,1,0,5.813,5.814A5.813,5.813,0,0,0,919.959,286.716Z" transform="translate(-812.29 -286.716)" fill="#2f3a3e" />
      <path id="Path_37564" data-name="Path 37564" d="M930.783,286.716a5.813,5.813,0,1,0,5.814,5.814A5.816,5.816,0,0,0,930.783,286.716Z" transform="translate(-789.162 -286.716)" fill="#2f3a3e" />
      <path id="Path_37565" data-name="Path 37565" d="M941.6,286.716a5.813,5.813,0,1,0,5.813,5.814A5.815,5.815,0,0,0,941.6,286.716Z" transform="translate(-766.033 -286.716)" fill="#2f3a3e" />
      <path id="Path_37566" data-name="Path 37566" d="M952.424,286.716a5.813,5.813,0,1,0,5.814,5.814A5.815,5.815,0,0,0,952.424,286.716Z" transform="translate(-742.903 -286.716)" fill="#2f3a3e" />
      <path id="Path_37567" data-name="Path 37567" d="M887.493,297.538a5.813,5.813,0,1,0,5.813,5.813A5.815,5.815,0,0,0,887.493,297.538Z" transform="translate(-881.68 -263.586)" fill="#2f3a3e" />
      <path id="Path_37568" data-name="Path 37568" d="M898.315,297.538a5.813,5.813,0,1,0,5.813,5.813A5.815,5.815,0,0,0,898.315,297.538Z" transform="translate(-858.55 -263.586)" fill="#2f3a3e" />
      <path id="Path_37569" data-name="Path 37569" d="M909.138,297.538a5.813,5.813,0,1,0,5.813,5.813A5.815,5.815,0,0,0,909.138,297.538Z" transform="translate(-835.42 -263.586)" fill="#2f3a3e" />
      <path id="Path_37570" data-name="Path 37570" d="M919.959,297.538a5.813,5.813,0,1,0,5.813,5.813A5.813,5.813,0,0,0,919.959,297.538Z" transform="translate(-812.29 -263.586)" fill="#2f3a3e" />
      <path id="Path_37571" data-name="Path 37571" d="M930.783,297.538a5.813,5.813,0,1,0,5.814,5.813A5.816,5.816,0,0,0,930.783,297.538Z" transform="translate(-789.162 -263.586)" fill="#2f3a3e" />
      <path id="Path_37572" data-name="Path 37572" d="M941.6,297.538a5.813,5.813,0,1,0,5.813,5.813A5.815,5.815,0,0,0,941.6,297.538Z" transform="translate(-766.033 -263.586)" fill="#2f3a3e" />
      <path id="Path_37573" data-name="Path 37573" d="M952.424,297.538a5.813,5.813,0,1,0,5.814,5.813A5.815,5.815,0,0,0,952.424,297.538Z" transform="translate(-742.903 -263.586)" fill="#2f3a3e" />
      <path id="Path_37574" data-name="Path 37574" d="M887.493,308.36a5.813,5.813,0,1,0,5.813,5.813A5.815,5.815,0,0,0,887.493,308.36Z" transform="translate(-881.68 -240.456)" fill="#2f3a3e" />
      <path id="Path_37575" data-name="Path 37575" d="M898.315,308.36a5.813,5.813,0,1,0,5.813,5.813A5.815,5.815,0,0,0,898.315,308.36Z" transform="translate(-858.55 -240.456)" fill="#2f3a3e" />
      <path id="Path_37576" data-name="Path 37576" d="M909.138,308.36a5.813,5.813,0,1,0,5.813,5.813A5.815,5.815,0,0,0,909.138,308.36Z" transform="translate(-835.42 -240.456)" fill="#2f3a3e" />
      <path id="Path_37577" data-name="Path 37577" d="M919.959,308.36a5.813,5.813,0,1,0,5.813,5.813A5.813,5.813,0,0,0,919.959,308.36Z" transform="translate(-812.29 -240.456)" fill="#2f3a3e" />
      <path id="Path_37578" data-name="Path 37578" d="M930.783,308.36a5.813,5.813,0,1,0,5.814,5.813A5.816,5.816,0,0,0,930.783,308.36Z" transform="translate(-789.162 -240.456)" fill="#2f3a3e" />
      <path id="Path_37579" data-name="Path 37579" d="M941.6,308.36a5.813,5.813,0,1,0,5.813,5.813A5.815,5.815,0,0,0,941.6,308.36Z" transform="translate(-766.033 -240.456)" fill="#2f3a3e" />
      <path id="Path_37580" data-name="Path 37580" d="M952.424,308.36a5.813,5.813,0,1,0,5.814,5.813A5.815,5.815,0,0,0,952.424,308.36Z" transform="translate(-742.903 -240.456)" fill="#2f3a3e" />
      <path id="Path_37581" data-name="Path 37581" d="M887.493,319.182A5.813,5.813,0,1,0,893.307,325,5.813,5.813,0,0,0,887.493,319.182Z" transform="translate(-881.68 -217.326)" fill="#2f3a3e" />
      <path id="Path_37582" data-name="Path 37582" d="M898.315,319.182A5.813,5.813,0,1,0,904.129,325,5.813,5.813,0,0,0,898.315,319.182Z" transform="translate(-858.55 -217.326)" fill="#2f3a3e" />
      <path id="Path_37583" data-name="Path 37583" d="M909.138,319.182A5.813,5.813,0,1,0,914.951,325,5.813,5.813,0,0,0,909.138,319.182Z" transform="translate(-835.42 -217.326)" fill="#2f3a3e" />
      <path id="Path_37584" data-name="Path 37584" d="M919.959,319.182A5.813,5.813,0,1,0,925.773,325,5.811,5.811,0,0,0,919.959,319.182Z" transform="translate(-812.29 -217.326)" fill="#2f3a3e" />
      <path id="Path_37585" data-name="Path 37585" d="M930.783,319.182A5.813,5.813,0,1,0,936.6,325,5.814,5.814,0,0,0,930.783,319.182Z" transform="translate(-789.162 -217.326)" fill="#2f3a3e" />
      <path id="Path_37586" data-name="Path 37586" d="M941.6,319.182A5.813,5.813,0,1,0,947.416,325,5.813,5.813,0,0,0,941.6,319.182Z" transform="translate(-766.033 -217.326)" fill="#2f3a3e" />
      <path id="Path_37587" data-name="Path 37587" d="M952.424,319.182A5.813,5.813,0,1,0,958.238,325,5.813,5.813,0,0,0,952.424,319.182Z" transform="translate(-742.903 -217.326)" fill="#2f3a3e" />
      <path id="Path_37588" data-name="Path 37588" d="M968.065,332.566A5.83,5.83,0,0,0,966.5,331a5.814,5.814,0,0,0-9.064,4.819h0v0a5.813,5.813,0,0,0,11.627,0v0h0A5.79,5.79,0,0,0,968.065,332.566Z" transform="translate(-719.773 -194.199)" fill="#2f3a3e" />
      <path id="Path_37589" data-name="Path 37589" d="M977.319,331a5.813,5.813,0,0,0-9.064,4.819h0v0a5.813,5.813,0,0,0,11.626,0v0h0A5.806,5.806,0,0,0,977.319,331Z" transform="translate(-696.643 -194.199)" fill="#2f3a3e" />
      <path id="Path_37590" data-name="Path 37590" d="M988.14,331a5.814,5.814,0,0,0-9.064,4.819h0v0a5.813,5.813,0,1,0,11.627,0v0h0A5.807,5.807,0,0,0,988.14,331Z" transform="translate(-673.515 -194.199)" fill="#2f3a3e" />
      <path id="Path_37591" data-name="Path 37591" d="M998.962,331a5.813,5.813,0,0,0-9.064,4.819h0v0a5.813,5.813,0,1,0,11.627,0v0h0A5.806,5.806,0,0,0,998.962,331Z" transform="translate(-650.385 -194.199)" fill="#2f3a3e" />
      <path id="Path_37592" data-name="Path 37592" d="M1009.784,331a5.814,5.814,0,0,0-9.064,4.819h0v0a5.814,5.814,0,1,0,11.627,0v0h0A5.807,5.807,0,0,0,1009.784,331Z" transform="translate(-627.255 -194.199)" fill="#2f3a3e" />
      <path id="Path_37593" data-name="Path 37593" d="M1020.605,331a5.814,5.814,0,0,0-9.064,4.819h0v0a5.813,5.813,0,0,0,11.627,0v0h0A5.806,5.806,0,0,0,1020.605,331Z" transform="translate(-604.125 -194.199)" fill="#2f3a3e" />
      <path id="Path_37594" data-name="Path 37594" d="M1031.43,331a5.815,5.815,0,0,0-9.067,4.819h0v0a5.815,5.815,0,0,0,11.63,0v0h0A5.814,5.814,0,0,0,1031.43,331Z" transform="translate(-580.997 -194.199)" fill="#2f3a3e" />
      <path id="Path_37595" data-name="Path 37595" d="M1042.249,331a5.813,5.813,0,0,0-9.063,4.819h0v0a5.813,5.813,0,1,0,11.627,0v0h0A5.807,5.807,0,0,0,1042.249,331Z" transform="translate(-557.868 -194.199)" fill="#2f3a3e" />
      <path id="Path_37596" data-name="Path 37596" d="M964.417,340.944a5.745,5.745,0,0,0-1.17-.119,5.813,5.813,0,0,0,0,11.627,5.974,5.974,0,0,0,1.17-.116,5.815,5.815,0,0,0,0-11.391Z" transform="translate(-719.773 -171.069)" fill="#2f3a3e" />
      <path id="Path_37597" data-name="Path 37597" d="M974.068,340.825a5.813,5.813,0,1,0,5.813,5.813A5.813,5.813,0,0,0,974.068,340.825Z" transform="translate(-696.643 -171.069)" fill="#2f3a3e" />
      <path id="Path_37598" data-name="Path 37598" d="M984.89,340.825a5.813,5.813,0,1,0,5.813,5.813A5.815,5.815,0,0,0,984.89,340.825Z" transform="translate(-673.515 -171.069)" fill="#2f3a3e" />
      <path id="Path_37599" data-name="Path 37599" d="M995.711,340.825a5.813,5.813,0,1,0,5.813,5.813A5.815,5.815,0,0,0,995.711,340.825Z" transform="translate(-650.385 -171.069)" fill="#2f3a3e" />
      <path id="Path_37600" data-name="Path 37600" d="M1006.534,340.825a5.813,5.813,0,1,0,5.813,5.813A5.815,5.815,0,0,0,1006.534,340.825Z" transform="translate(-627.255 -171.069)" fill="#2f3a3e" />
      <path id="Path_37601" data-name="Path 37601" d="M1017.356,340.825a5.813,5.813,0,1,0,5.813,5.813A5.813,5.813,0,0,0,1017.356,340.825Z" transform="translate(-604.125 -171.069)" fill="#2f3a3e" />
      <path id="Path_37602" data-name="Path 37602" d="M1028.179,340.825a5.813,5.813,0,1,0,5.814,5.813A5.816,5.816,0,0,0,1028.179,340.825Z" transform="translate(-580.997 -171.069)" fill="#2f3a3e" />
      <path id="Path_37603" data-name="Path 37603" d="M1039,340.825a5.813,5.813,0,1,0,5.814,5.813A5.815,5.815,0,0,0,1039,340.825Z" transform="translate(-557.868 -171.069)" fill="#2f3a3e" />
      <path id="Path_37604" data-name="Path 37604" d="M964.417,351.766a5.747,5.747,0,0,0-1.17-.119,5.813,5.813,0,0,0,0,11.627,5.813,5.813,0,0,0,1.17-11.508Z" transform="translate(-719.773 -147.939)" fill="#2f3a3e" />
      <path id="Path_37605" data-name="Path 37605" d="M974.068,351.647a5.813,5.813,0,1,0,5.813,5.813A5.813,5.813,0,0,0,974.068,351.647Z" transform="translate(-696.643 -147.939)" fill="#2f3a3e" />
      <path id="Path_37606" data-name="Path 37606" d="M984.89,351.647a5.813,5.813,0,1,0,5.813,5.813A5.815,5.815,0,0,0,984.89,351.647Z" transform="translate(-673.515 -147.939)" fill="#2f3a3e" />
      <path id="Path_37607" data-name="Path 37607" d="M995.711,351.647a5.813,5.813,0,1,0,5.813,5.813A5.815,5.815,0,0,0,995.711,351.647Z" transform="translate(-650.385 -147.939)" fill="#2f3a3e" />
      <path id="Path_37608" data-name="Path 37608" d="M1006.534,351.647a5.813,5.813,0,1,0,5.813,5.813A5.815,5.815,0,0,0,1006.534,351.647Z" transform="translate(-627.255 -147.939)" fill="#2f3a3e" />
      <path id="Path_37609" data-name="Path 37609" d="M1017.356,351.647a5.813,5.813,0,1,0,5.813,5.813A5.813,5.813,0,0,0,1017.356,351.647Z" transform="translate(-604.125 -147.939)" fill="#2f3a3e" />
      <path id="Path_37610" data-name="Path 37610" d="M1028.179,351.647a5.813,5.813,0,1,0,5.814,5.813A5.816,5.816,0,0,0,1028.179,351.647Z" transform="translate(-580.997 -147.939)" fill="#2f3a3e" />
      <path id="Path_37611" data-name="Path 37611" d="M1039,351.647a5.813,5.813,0,1,0,5.814,5.813A5.815,5.815,0,0,0,1039,351.647Z" transform="translate(-557.868 -147.939)" fill="#2f3a3e" />
      <path id="Path_37612" data-name="Path 37612" d="M964.417,362.585a5.967,5.967,0,0,0-1.17-.116,5.813,5.813,0,0,0,0,11.627,5.745,5.745,0,0,0,1.17-.119,5.816,5.816,0,0,0,0-11.391Z" transform="translate(-719.773 -124.809)" fill="#2f3a3e" />
      <path id="Path_37613" data-name="Path 37613" d="M974.068,362.469a5.813,5.813,0,1,0,5.813,5.813A5.811,5.811,0,0,0,974.068,362.469Z" transform="translate(-696.643 -124.809)" fill="#2f3a3e" />
      <path id="Path_37614" data-name="Path 37614" d="M984.89,362.469a5.813,5.813,0,1,0,5.813,5.813A5.813,5.813,0,0,0,984.89,362.469Z" transform="translate(-673.515 -124.809)" fill="#2f3a3e" />
      <path id="Path_37615" data-name="Path 37615" d="M995.711,362.469a5.813,5.813,0,1,0,5.813,5.813A5.813,5.813,0,0,0,995.711,362.469Z" transform="translate(-650.385 -124.809)" fill="#2f3a3e" />
      <path id="Path_37616" data-name="Path 37616" d="M1006.534,362.469a5.813,5.813,0,1,0,5.813,5.813A5.813,5.813,0,0,0,1006.534,362.469Z" transform="translate(-627.255 -124.809)" fill="#2f3a3e" />
      <path id="Path_37617" data-name="Path 37617" d="M1017.356,362.469a5.813,5.813,0,1,0,5.813,5.813A5.811,5.811,0,0,0,1017.356,362.469Z" transform="translate(-604.125 -124.809)" fill="#2f3a3e" />
      <path id="Path_37618" data-name="Path 37618" d="M1028.179,362.469a5.813,5.813,0,1,0,5.814,5.813A5.814,5.814,0,0,0,1028.179,362.469Z" transform="translate(-580.997 -124.809)" fill="#2f3a3e" />
      <path id="Path_37619" data-name="Path 37619" d="M1039,362.469a5.813,5.813,0,1,0,5.814,5.813A5.813,5.813,0,0,0,1039,362.469Z" transform="translate(-557.868 -124.809)" fill="#2f3a3e" />
      <path id="Path_37620" data-name="Path 37620" d="M964.417,373.409a5.747,5.747,0,0,0-1.17-.119,5.815,5.815,0,0,0,0,11.63,5.736,5.736,0,0,0,1.17-.119,5.815,5.815,0,0,0,0-11.391Z" transform="translate(-719.773 -101.681)" fill="#2f3a3e" />
      <path id="Path_37621" data-name="Path 37621" d="M974.068,373.29a5.815,5.815,0,1,0,5.813,5.817A5.813,5.813,0,0,0,974.068,373.29Z" transform="translate(-696.643 -101.681)" fill="#2f3a3e" />
      <path id="Path_37622" data-name="Path 37622" d="M984.89,373.29a5.815,5.815,0,1,0,5.813,5.817A5.816,5.816,0,0,0,984.89,373.29Z" transform="translate(-673.515 -101.681)" fill="#2f3a3e" />
      <path id="Path_37623" data-name="Path 37623" d="M995.711,373.29a5.815,5.815,0,1,0,5.813,5.817A5.816,5.816,0,0,0,995.711,373.29Z" transform="translate(-650.385 -101.681)" fill="#2f3a3e" />
      <path id="Path_37624" data-name="Path 37624" d="M1006.534,373.29a5.815,5.815,0,1,0,5.813,5.817A5.816,5.816,0,0,0,1006.534,373.29Z" transform="translate(-627.255 -101.681)" fill="#2f3a3e" />
      <path id="Path_37625" data-name="Path 37625" d="M1017.356,373.29a5.815,5.815,0,1,0,5.813,5.817A5.814,5.814,0,0,0,1017.356,373.29Z" transform="translate(-604.125 -101.681)" fill="#2f3a3e" />
      <path id="Path_37626" data-name="Path 37626" d="M1028.179,373.29a5.815,5.815,0,1,0,5.814,5.817A5.816,5.816,0,0,0,1028.179,373.29Z" transform="translate(-580.997 -101.681)" fill="#2f3a3e" />
      <path id="Path_37627" data-name="Path 37627" d="M1039,373.29a5.815,5.815,0,1,0,5.814,5.817A5.815,5.815,0,0,0,1039,373.29Z" transform="translate(-557.868 -101.681)" fill="#2f3a3e" />
      <path id="Path_37628" data-name="Path 37628" d="M964.417,286.835a5.745,5.745,0,0,0-1.17-.119,5.813,5.813,0,0,0,0,11.627,5.974,5.974,0,0,0,1.17-.116,5.815,5.815,0,0,0,0-11.392Z" transform="translate(-719.773 -286.716)" fill="#2f3a3e" />
      <path id="Path_37629" data-name="Path 37629" d="M974.068,286.716a5.813,5.813,0,1,0,5.813,5.814A5.813,5.813,0,0,0,974.068,286.716Z" transform="translate(-696.643 -286.716)" fill="#2f3a3e" />
      <path id="Path_37630" data-name="Path 37630" d="M984.89,286.716a5.813,5.813,0,1,0,5.813,5.814A5.815,5.815,0,0,0,984.89,286.716Z" transform="translate(-673.515 -286.716)" fill="#2f3a3e" />
      <path id="Path_37631" data-name="Path 37631" d="M995.711,286.716a5.813,5.813,0,1,0,5.813,5.814A5.815,5.815,0,0,0,995.711,286.716Z" transform="translate(-650.385 -286.716)" fill="#2f3a3e" />
      <path id="Path_37632" data-name="Path 37632" d="M1006.534,286.716a5.813,5.813,0,1,0,5.813,5.814A5.815,5.815,0,0,0,1006.534,286.716Z" transform="translate(-627.255 -286.716)" fill="#2f3a3e" />
      <path id="Path_37633" data-name="Path 37633" d="M1017.356,286.716a5.813,5.813,0,1,0,5.813,5.814A5.813,5.813,0,0,0,1017.356,286.716Z" transform="translate(-604.125 -286.716)" fill="#2f3a3e" />
      <path id="Path_37634" data-name="Path 37634" d="M1028.179,286.716a5.813,5.813,0,1,0,5.814,5.814A5.816,5.816,0,0,0,1028.179,286.716Z" transform="translate(-580.997 -286.716)" fill="#2f3a3e" />
      <path id="Path_37635" data-name="Path 37635" d="M1039,298.343a5.813,5.813,0,1,0-5.813-5.813A5.811,5.811,0,0,0,1039,298.343Z" transform="translate(-557.868 -286.716)" fill="#2f3a3e" />
      <path id="Path_37636" data-name="Path 37636" d="M964.417,297.657a5.736,5.736,0,0,0-1.17-.119,5.813,5.813,0,0,0,0,11.627,5.974,5.974,0,0,0,1.17-.116,5.815,5.815,0,0,0,0-11.391Z" transform="translate(-719.773 -263.586)" fill="#2f3a3e" />
      <path id="Path_37637" data-name="Path 37637" d="M974.068,297.538a5.813,5.813,0,1,0,5.813,5.813A5.813,5.813,0,0,0,974.068,297.538Z" transform="translate(-696.643 -263.586)" fill="#2f3a3e" />
      <path id="Path_37638" data-name="Path 37638" d="M984.89,297.538a5.813,5.813,0,1,0,5.813,5.813A5.815,5.815,0,0,0,984.89,297.538Z" transform="translate(-673.515 -263.586)" fill="#2f3a3e" />
      <path id="Path_37639" data-name="Path 37639" d="M995.711,297.538a5.813,5.813,0,1,0,5.813,5.813A5.815,5.815,0,0,0,995.711,297.538Z" transform="translate(-650.385 -263.586)" fill="#2f3a3e" />
      <path id="Path_37640" data-name="Path 37640" d="M1006.534,297.538a5.813,5.813,0,1,0,5.813,5.813A5.815,5.815,0,0,0,1006.534,297.538Z" transform="translate(-627.255 -263.586)" fill="#2f3a3e" />
      <path id="Path_37641" data-name="Path 37641" d="M1017.356,297.538a5.813,5.813,0,1,0,5.813,5.813A5.813,5.813,0,0,0,1017.356,297.538Z" transform="translate(-604.125 -263.586)" fill="#2f3a3e" />
      <path id="Path_37642" data-name="Path 37642" d="M1028.179,297.538a5.813,5.813,0,1,0,5.814,5.813A5.816,5.816,0,0,0,1028.179,297.538Z" transform="translate(-580.997 -263.586)" fill="#2f3a3e" />
      <path id="Path_37643" data-name="Path 37643" d="M1039,297.538a5.813,5.813,0,1,0,5.814,5.813A5.815,5.815,0,0,0,1039,297.538Z" transform="translate(-557.868 -263.586)" fill="#2f3a3e" />
      <path id="Path_37644" data-name="Path 37644" d="M964.417,308.479a5.736,5.736,0,0,0-1.17-.119,5.813,5.813,0,0,0,0,11.627,5.738,5.738,0,0,0,1.17-.119,5.813,5.813,0,0,0,0-11.388Z" transform="translate(-719.773 -240.456)" fill="#2f3a3e" />
      <path id="Path_37645" data-name="Path 37645" d="M974.068,308.36a5.813,5.813,0,1,0,5.813,5.813A5.813,5.813,0,0,0,974.068,308.36Z" transform="translate(-696.643 -240.456)" fill="#2f3a3e" />
      <path id="Path_37646" data-name="Path 37646" d="M984.89,308.36a5.813,5.813,0,1,0,5.813,5.813A5.815,5.815,0,0,0,984.89,308.36Z" transform="translate(-673.515 -240.456)" fill="#2f3a3e" />
      <path id="Path_37647" data-name="Path 37647" d="M995.711,308.36a5.813,5.813,0,1,0,5.813,5.813A5.815,5.815,0,0,0,995.711,308.36Z" transform="translate(-650.385 -240.456)" fill="#2f3a3e" />
      <path id="Path_37648" data-name="Path 37648" d="M1006.534,308.36a5.813,5.813,0,1,0,5.813,5.813A5.815,5.815,0,0,0,1006.534,308.36Z" transform="translate(-627.255 -240.456)" fill="#2f3a3e" />
      <path id="Path_37649" data-name="Path 37649" d="M1017.356,308.36a5.813,5.813,0,1,0,5.813,5.813A5.813,5.813,0,0,0,1017.356,308.36Z" transform="translate(-604.125 -240.456)" fill="#2f3a3e" />
      <path id="Path_37650" data-name="Path 37650" d="M1028.179,308.36a5.813,5.813,0,1,0,5.814,5.813A5.816,5.816,0,0,0,1028.179,308.36Z" transform="translate(-580.997 -240.456)" fill="#2f3a3e" />
      <path id="Path_37651" data-name="Path 37651" d="M1039,308.36a5.813,5.813,0,1,0,5.814,5.813A5.815,5.815,0,0,0,1039,308.36Z" transform="translate(-557.868 -240.456)" fill="#2f3a3e" />
      <path id="Path_37652" data-name="Path 37652" d="M964.417,319.3a5.976,5.976,0,0,0-1.17-.116,5.813,5.813,0,0,0,0,11.627,5.749,5.749,0,0,0,1.17-.119,5.816,5.816,0,0,0,0-11.392Z" transform="translate(-719.773 -217.326)" fill="#2f3a3e" />
      <path id="Path_37653" data-name="Path 37653" d="M974.068,319.182A5.813,5.813,0,1,0,979.882,325,5.811,5.811,0,0,0,974.068,319.182Z" transform="translate(-696.643 -217.326)" fill="#2f3a3e" />
      <path id="Path_37654" data-name="Path 37654" d="M984.89,319.182A5.813,5.813,0,1,0,990.7,325,5.813,5.813,0,0,0,984.89,319.182Z" transform="translate(-673.515 -217.326)" fill="#2f3a3e" />
      <path id="Path_37655" data-name="Path 37655" d="M995.711,319.182a5.813,5.813,0,1,0,5.813,5.813A5.813,5.813,0,0,0,995.711,319.182Z" transform="translate(-650.385 -217.326)" fill="#2f3a3e" />
      <path id="Path_37656" data-name="Path 37656" d="M1006.534,319.182a5.813,5.813,0,1,0,5.813,5.813A5.813,5.813,0,0,0,1006.534,319.182Z" transform="translate(-627.255 -217.326)" fill="#2f3a3e" />
      <path id="Path_37657" data-name="Path 37657" d="M1017.356,319.182a5.813,5.813,0,1,0,5.813,5.813A5.811,5.811,0,0,0,1017.356,319.182Z" transform="translate(-604.125 -217.326)" fill="#2f3a3e" />
      <path id="Path_37658" data-name="Path 37658" d="M1028.179,319.182a5.813,5.813,0,1,0,5.814,5.813A5.814,5.814,0,0,0,1028.179,319.182Z" transform="translate(-580.997 -217.326)" fill="#2f3a3e" />
      <path id="Path_37659" data-name="Path 37659" d="M1039,319.182a5.813,5.813,0,1,0,5.814,5.813A5.813,5.813,0,0,0,1039,319.182Z" transform="translate(-557.868 -217.326)" fill="#2f3a3e" />
    </g>
  </g>
</svg>
