<svg xmlns="http://www.w3.org/2000/svg" width="59.486" height="59.486" viewBox="0 0 59.486 59.486">
  <g id="settings" transform="translate(0.5 0.5)">
    <g id="Group_23" data-name="Group 23">
      <g id="Group_22" data-name="Group 22">
        <path id="Path_26" data-name="Path 26" d="M55.879,23.595c-1.1-.165-2.229-.323-3.356-.47a.332.332,0,0,1-.282-.236A23.737,23.737,0,0,0,50,17.476a.333.333,0,0,1,.031-.368c.693-.9,1.38-1.811,2.042-2.706a3.083,3.083,0,0,0-.3-3.989l-3.7-3.7a3.083,3.083,0,0,0-3.989-.3c-.893.66-1.8,1.347-2.706,2.042a.333.333,0,0,1-.368.031A23.738,23.738,0,0,0,35.6,6.245a.332.332,0,0,1-.236-.282c-.147-1.129-.305-2.258-.469-3.356A3.083,3.083,0,0,0,31.857,0H26.629A3.082,3.082,0,0,0,23.6,2.607c-.164,1.1-.322,2.227-.469,3.356a.332.332,0,0,1-.236.282,23.746,23.746,0,0,0-5.413,2.243.334.334,0,0,1-.368-.031c-.9-.694-1.813-1.381-2.706-2.042a3.083,3.083,0,0,0-3.989.3l-3.7,3.7a3.083,3.083,0,0,0-.3,3.989c.663.9,1.35,1.807,2.042,2.706a.334.334,0,0,1,.031.368A23.74,23.74,0,0,0,6.245,22.89a.332.332,0,0,1-.282.236c-1.126.147-2.255.3-3.356.47A3.083,3.083,0,0,0,0,26.628v5.229a3.083,3.083,0,0,0,2.607,3.034c1.1.165,2.23.323,3.356.469a.332.332,0,0,1,.282.236A23.741,23.741,0,0,0,8.488,41.01a.334.334,0,0,1-.031.368c-.694.9-1.381,1.812-2.042,2.706a3.083,3.083,0,0,0,.3,3.989l3.7,3.7a3.083,3.083,0,0,0,3.989.3c.893-.66,1.8-1.347,2.706-2.042A.334.334,0,0,1,17.476,50a23.743,23.743,0,0,0,5.413,2.243.332.332,0,0,1,.236.282c.147,1.129.305,2.258.469,3.356a3.083,3.083,0,0,0,3.034,2.607h5.229a3.083,3.083,0,0,0,3.033-2.608c.164-1.1.322-2.228.469-3.356a.332.332,0,0,1,.236-.282A23.749,23.749,0,0,0,41.009,50a.335.335,0,0,1,.368.031c.9.694,1.813,1.381,2.706,2.042a3.083,3.083,0,0,0,3.989-.3l3.7-3.7a3.083,3.083,0,0,0,.3-3.989c-.662-.895-1.349-1.805-2.042-2.706A.333.333,0,0,1,50,41.009,23.742,23.742,0,0,0,52.241,35.6a.332.332,0,0,1,.282-.236c1.127-.147,2.256-.3,3.356-.469a3.083,3.083,0,0,0,2.607-3.033V26.628A3.083,3.083,0,0,0,55.879,23.595Zm-.124,8.263a.335.335,0,0,1-.28.333c-1.083.162-2.2.317-3.3.462a3.057,3.057,0,0,0-2.562,2.218,21.013,21.013,0,0,1-1.985,4.79,3.059,3.059,0,0,0,.241,3.383c.683.887,1.359,1.784,2.011,2.665a.335.335,0,0,1-.037.433l-3.7,3.7a.335.335,0,0,1-.433.037c-.879-.651-1.776-1.327-2.665-2.011a3.058,3.058,0,0,0-3.382-.241,21.016,21.016,0,0,1-4.79,1.985,3.057,3.057,0,0,0-2.218,2.562c-.145,1.111-.3,2.222-.462,3.3a.335.335,0,0,1-.333.28H26.629a.335.335,0,0,1-.333-.28c-.162-1.081-.317-2.193-.462-3.3a3.057,3.057,0,0,0-2.218-2.562,21.007,21.007,0,0,1-4.79-1.985,3.057,3.057,0,0,0-3.382.242c-.889.684-1.786,1.36-2.665,2.011a.335.335,0,0,1-.433-.037l-3.7-3.7a.335.335,0,0,1-.037-.433c.651-.88,1.328-1.777,2.011-2.665a3.059,3.059,0,0,0,.241-3.382,21.011,21.011,0,0,1-1.985-4.79,3.057,3.057,0,0,0-2.562-2.218c-1.109-.145-2.221-.3-3.305-.462a.335.335,0,0,1-.28-.333V26.629a.335.335,0,0,1,.28-.333c1.084-.162,2.2-.318,3.3-.462a3.057,3.057,0,0,0,2.562-2.218,21,21,0,0,1,1.985-4.79,3.059,3.059,0,0,0-.241-3.382c-.681-.886-1.358-1.782-2.011-2.665a.335.335,0,0,1,.037-.433l3.7-3.7a.335.335,0,0,1,.433-.037c.879.65,1.776,1.327,2.665,2.011a3.059,3.059,0,0,0,3.382.241,21.01,21.01,0,0,1,4.79-1.985,3.057,3.057,0,0,0,2.219-2.562c.145-1.112.3-2.223.462-3.305a.335.335,0,0,1,.333-.28h5.229a.335.335,0,0,1,.333.28c.162,1.081.317,2.193.462,3.3a3.057,3.057,0,0,0,2.218,2.562,21.018,21.018,0,0,1,4.79,1.985,3.059,3.059,0,0,0,3.382-.241c.889-.684,1.786-1.36,2.665-2.011a.335.335,0,0,1,.433.037l3.7,3.7a.335.335,0,0,1,.037.433c-.652.881-1.328,1.778-2.011,2.665a3.059,3.059,0,0,0-.241,3.383,21.01,21.01,0,0,1,1.985,4.79,3.057,3.057,0,0,0,2.562,2.218c1.11.145,2.222.3,3.305.462a.335.335,0,0,1,.28.333v5.229Z" fill="#2f3a3e" stroke="#2f3a3e" stroke-width="1" />
      </g>
    </g>
    <g id="Group_25" data-name="Group 25" transform="translate(16.548 16.548)">
      <g id="Group_24" data-name="Group 24">
        <path id="Path_27" data-name="Path 27" d="M157.561,144.866a12.695,12.695,0,1,0,12.695,12.695A12.709,12.709,0,0,0,157.561,144.866Zm0,22.659a9.964,9.964,0,1,1,9.964-9.964A9.975,9.975,0,0,1,157.561,167.525Z" transform="translate(-144.866 -144.866)" fill="#2f3a3e" stroke="#2f3a3e" stroke-width="1" />
      </g>
    </g>
  </g>
</svg>
