<svg xmlns="http://www.w3.org/2000/svg" width="68.951" height="68.97" viewBox="0 0 68.951 68.97">
  <g id="hand" transform="translate(0.108 0.5)">
    <path id="Path_19" data-name="Path 19" d="M220.987,332.456a1.326,1.326,0,1,0-1.875,0A1.327,1.327,0,0,0,220.987,332.456Zm0,0" transform="translate(-189.3 -286.43)" fill="#2f3a3e" stroke="#2f3a3e" stroke-width="1" />
    <path id="Path_20" data-name="Path 20" d="M188.449,14.575A14.575,14.575,0,1,0,203.024,0,14.592,14.592,0,0,0,188.449,14.575Zm26.5,0A11.925,11.925,0,1,1,203.024,2.65,11.939,11.939,0,0,1,214.95,14.575Zm0,0" transform="translate(-163.037)" fill="#2f3a3e" stroke="#2f3a3e" stroke-width="1" />
    <path id="Path_21" data-name="Path 21" d="M15.763,251.647a1.325,1.325,0,0,0,1.87.011l6.424-6.329A4,4,0,0,0,25,241.217l1.382-1.333a3.951,3.951,0,0,1,2.759-1.115H46.756a11.863,11.863,0,0,0,8.318-3.379c.092-.09-.7.843,12.017-14.356a5.3,5.3,0,0,0-8.065-6.879l-7.819,8.036a5.325,5.325,0,0,0-4.12-1.973H32.312a17.1,17.1,0,0,0-6.635-1.325c-6.381,0-11.952,2.947-14.942,8.472a3.958,3.958,0,0,0-3.544,1.1l-6.3,6.322a1.325,1.325,0,0,0,0,1.869Zm9.913-30.1a14.465,14.465,0,0,1,5.833,1.214,1.323,1.323,0,0,0,.531.111H47.088a2.65,2.65,0,1,1,0,5.3H36.277a1.325,1.325,0,0,0,0,2.65H47.088a5.292,5.292,0,0,0,5.253-5.993c7.564-7.775,8.63-8.867,8.676-8.922a2.651,2.651,0,1,1,4.047,3.424L53.179,233.537a9.226,9.226,0,0,1-6.422,2.583H29.141a6.588,6.588,0,0,0-4.6,1.858l-1.126,1.087-10.381-10.38c2.426-4.551,6.979-7.14,12.641-7.14Zm-16.61,8.793a1.322,1.322,0,0,1,1.641-.186c.229.14-.429-.46,11.477,11.429a1.328,1.328,0,0,1,.007,1.867l-5.477,5.4L3.695,235.724Zm0,0" transform="translate(0 -184.178)" fill="#2f3a3e" stroke="#2f3a3e" stroke-width="1" />
    <path id="Path_22" data-name="Path 22" d="M268.522,41.314v1.553a3.975,3.975,0,0,0,1.325,7.723,1.325,1.325,0,1,1,0,2.65,2.4,2.4,0,0,1-1.72-1,1.325,1.325,0,1,0-2.028,1.705,5.5,5.5,0,0,0,2.424,1.726v1.546a1.325,1.325,0,0,0,2.65,0V55.661a3.975,3.975,0,0,0-1.325-7.723,1.325,1.325,0,0,1,0-2.65,2.128,2.128,0,0,1,1.433.693,1.325,1.325,0,1,0,1.843-1.9,5.119,5.119,0,0,0-1.951-1.22V41.314a1.325,1.325,0,1,0-2.65,0Zm0,0" transform="translate(-230.125 -34.688)" fill="#2f3a3e" stroke="#2f3a3e" stroke-width="1" />
  </g>
</svg>
