<svg xmlns="http://www.w3.org/2000/svg" width="56.5" height="65.664" viewBox="0 0 56.5 65.664">
  <g id="call-center" transform="translate(0.25 0.25)">
    <path id="Path_13" data-name="Path 13" d="M261.3,222.545a1.273,1.273,0,1,0-1.273-1.273A1.273,1.273,0,0,0,261.3,222.545Zm0,0" transform="translate(-226.936 -192)" fill="#2f3a3e" stroke="#2f3a3e" stroke-width="0.5" />
    <path id="Path_14" data-name="Path 14" d="M161.3,222.545a1.273,1.273,0,1,0-1.273-1.273A1.273,1.273,0,0,0,161.3,222.545Zm0,0" transform="translate(-139.663 -192)" fill="#2f3a3e" stroke="#2f3a3e" stroke-width="0.5" />
    <path id="Path_15" data-name="Path 15" d="M0,61.1v2.794a1.273,1.273,0,0,0,1.273,1.273H54.727A1.273,1.273,0,0,0,56,63.891V61.1a12.137,12.137,0,0,0-8.105-11.66,8.93,8.93,0,0,0,3.058-6.725,1.273,1.273,0,0,0-1.273-1.273A6.422,6.422,0,0,1,43.416,36.4h3.678a3.821,3.821,0,0,0,3.814-3.818V26.727a3.824,3.824,0,0,0-2.545-3.6V20.364a20.364,20.364,0,0,0-40.727,0V23.13a3.827,3.827,0,0,0-2.545,3.6v5.855A3.824,3.824,0,0,0,8.913,36.4h3.671a6.416,6.416,0,0,1-6.257,5.037A1.273,1.273,0,0,0,5.054,42.71,8.93,8.93,0,0,0,8.12,49.442,12.221,12.221,0,0,0,0,61.1ZM48.3,43.876a6.378,6.378,0,0,1-3.917,4.76l-7.71-1-.824-3.22a15.222,15.222,0,0,0,5.6-5.852A9,9,0,0,0,48.3,43.876ZM38.2,22.909a6.424,6.424,0,0,1-6.377-6.457,1.273,1.273,0,0,0-2.545,0,6.425,6.425,0,0,1-6.378,6.457H15.277a12.727,12.727,0,0,1,25.455,0ZM15.273,25.455H22.9a8.911,8.911,0,0,0,7.65-4.373A8.91,8.91,0,0,0,38.2,25.455h2.523v5.855a12.727,12.727,0,0,1-25.455,0Zm7.244,20.112a15.326,15.326,0,0,0,11-.01l.808,3.159a6.363,6.363,0,0,1-12.609,0ZM48.363,32.582a1.272,1.272,0,0,1-1.269,1.273H43.273v-8.4h3.822a1.272,1.272,0,0,1,1.269,1.273ZM28,2.546A17.836,17.836,0,0,1,45.818,20.364v2.545H43.277a15.273,15.273,0,0,0-30.545,0H10.182V20.364A17.813,17.813,0,0,1,28,2.546ZM7.636,32.582V26.727a1.277,1.277,0,0,1,1.277-1.273h3.814v8.4H8.913a1.276,1.276,0,0,1-1.277-1.273Zm6.914,5.978a15.374,15.374,0,0,0,5.63,5.867l-.82,3.208-7.732,1a6.383,6.383,0,0,1-3.922-4.762,8.992,8.992,0,0,0,6.844-5.317ZM11.494,51.222l.14-.018h0l7.779-1.009a8.912,8.912,0,0,0,17.2,0l7.923,1.029A9.75,9.75,0,0,1,53.454,61.1v1.523H2.545V61.1a9.82,9.82,0,0,1,8.949-9.875Zm0,0" transform="translate(0 0)" fill="#2f3a3e" stroke="#2f3a3e" stroke-width="0.5" />
    <path id="Path_16" data-name="Path 16" d="M188.289,292.111a8,8,0,0,0,6.738.031,1.273,1.273,0,0,0-1.062-2.313,5.46,5.46,0,0,1-4.591-.02,1.273,1.273,0,0,0-1.085,2.3Zm0,0" transform="translate(-163.687 -252.817)" fill="#2f3a3e" stroke="#2f3a3e" stroke-width="0.5" />
    <path id="Path_17" data-name="Path 17" d="M301.3,448.545h5.091a1.273,1.273,0,0,0,0-2.545H301.3a1.273,1.273,0,0,0,0,2.545Zm0,0" transform="translate(-261.845 -389.236)" fill="#2f3a3e" stroke="#2f3a3e" stroke-width="0.5" />
    <path id="Path_18" data-name="Path 18" d="M381.273,446A1.273,1.273,0,1,1,380,447.273,1.273,1.273,0,0,1,381.273,446Zm0,0" transform="translate(-331.637 -389.236)" fill="#2f3a3e" stroke="#2f3a3e" stroke-width="0.5" />
  </g>
</svg>
