<svg xmlns="http://www.w3.org/2000/svg" width="78.797" height="47.894" viewBox="0 0 78.797 47.894">
  <g id="Group_35879" data-name="Group 35879" transform="translate(0 -12.56)">
    <path id="Path_37812" data-name="Path 37812" d="M78.8,39.511c0-10.305-10.281-18.7-22.925-18.7a26.7,26.7,0,0,0-12.053,2.783C40.223,17.1,32.233,12.56,22.95,12.56,10.293,12.56,0,20.944,0,31.25a17.111,17.111,0,0,0,6.575,13.1l-.259,6a1.766,1.766,0,0,0,2.6,1.638l5.922-3.213a27.143,27.143,0,0,0,8.089,1.207,26.681,26.681,0,0,0,12.029-2.807C38.6,53.842,46.724,58.225,55.86,58.225a27.517,27.517,0,0,0,8.077-1.194l5.922,3.213a1.691,1.691,0,0,0,.837.209,1.766,1.766,0,0,0,1.761-1.834l-.246-6A17.167,17.167,0,0,0,78.8,39.511ZM22.937,46.43a23.379,23.379,0,0,1-7.683-1.256,1.727,1.727,0,0,0-1.416.123L9.985,47.391l.16-3.78a1.738,1.738,0,0,0-.7-1.477c-3.8-2.881-5.91-6.747-5.91-10.872,0-8.36,8.7-15.168,19.4-15.168,8.618,0,15.944,4.432,18.456,10.539.012.025.025.037.025.062a12.014,12.014,0,0,1,.911,4.58C42.316,39.622,33.624,46.43,22.937,46.43Zm46.416,3.94a1.77,1.77,0,0,0-.7,1.477l.148,3.78-3.854-2.093a1.776,1.776,0,0,0-1.416-.123,23.433,23.433,0,0,1-7.683,1.256c-7.917,0-14.9-3.706-17.889-9.345,4.814-3.435,7.88-8.458,7.88-14.073a15.467,15.467,0,0,0-.665-4.408A23.106,23.106,0,0,1,55.86,24.318c10.7,0,19.4,6.809,19.4,15.181C75.263,43.636,73.17,47.489,69.354,50.37Z" transform="translate(0 0)" fill="#2f3a3e" />
    <path id="Path_37813" data-name="Path 37813" d="M19.972,34.125a1.008,1.008,0,0,0-.492-.271,2.569,2.569,0,0,0-.751-.086,2.846,2.846,0,0,0-.788.086,1.024,1.024,0,0,0-.48.271,1.141,1.141,0,0,0-.259.517,4.542,4.542,0,0,0-.062.788,4.65,4.65,0,0,0,.062.788,1.051,1.051,0,0,0,.259.492,1.024,1.024,0,0,0,.48.271,2.789,2.789,0,0,0,.788.086,2.624,2.624,0,0,0,.751-.086,1.008,1.008,0,0,0,.492-.271,1.051,1.051,0,0,0,.259-.492,3.492,3.492,0,0,0,.074-.788,3.569,3.569,0,0,0-.074-.788A1.141,1.141,0,0,0,19.972,34.125Zm2.5-11.413a4.306,4.306,0,0,0-1.539-.985,6.48,6.48,0,0,0-2.265-.357,6.663,6.663,0,0,0-1.12.086,8.194,8.194,0,0,0-.973.222,5.39,5.39,0,0,0-.763.271,1.556,1.556,0,0,0-.419.259.562.562,0,0,0-.148.3,3.5,3.5,0,0,0-.025.579,4.755,4.755,0,0,0,.025.628,1.3,1.3,0,0,0,.074.382.338.338,0,0,0,.111.185.185.185,0,0,0,.135.049.754.754,0,0,0,.32-.111,5.254,5.254,0,0,1,.517-.246,5.379,5.379,0,0,1,.751-.246,4.225,4.225,0,0,1,1.01-.111,3.249,3.249,0,0,1,1.1.172,2.145,2.145,0,0,1,.788.492,2.307,2.307,0,0,1,.456.776,3.255,3.255,0,0,1,.148,1,3.135,3.135,0,0,1-.135.911,1.893,1.893,0,0,1-.406.739,1.92,1.92,0,0,1-.714.5,2.568,2.568,0,0,1-1.022.185h-.16a1.953,1.953,0,0,0-.419.049.608.608,0,0,0-.3.185.738.738,0,0,0-.16.357,2.686,2.686,0,0,0-.037.591l.1,2.647a.361.361,0,0,0,.086.2.468.468,0,0,0,.209.123,2.213,2.213,0,0,0,.394.062c.16.012.369.012.628.012a3.2,3.2,0,0,0,.886-.1c.209-.062.308-.172.32-.3l.086-2.192a4.3,4.3,0,0,0,1.477-.419,3.428,3.428,0,0,0,1.145-.862,3.97,3.97,0,0,0,.739-1.28,4.959,4.959,0,0,0,.259-1.662,5.048,5.048,0,0,0-.271-1.687A4.112,4.112,0,0,0,22.472,22.712ZM52.895,35.7h0a1.761,1.761,0,1,0,1.761,1.761A1.763,1.763,0,0,0,52.895,35.7Zm-7.646,0h0a1.761,1.761,0,1,0,1.761,1.761A1.763,1.763,0,0,0,45.249,35.7Zm15.8,0h0a1.761,1.761,0,1,0,1.761,1.761A1.763,1.763,0,0,0,61.045,35.7Z" transform="translate(3.519 2.037)" fill="#2f3a3e" />
  </g>
</svg>
