<svg xmlns="http://www.w3.org/2000/svg" width="498.466" height="400.204" viewBox="0 0 498.466 400.204">
  <g id="Group_35888" data-name="Group 35888" transform="translate(-45.782)">
    <circle id="Ellipse_31" data-name="Ellipse 31" cx="30.969" cy="30.969" r="30.969" transform="translate(259.465 337.97)" fill="#00bdda" />
    <path id="Path_37840" data-name="Path 37840" d="M693.513,565.861c17.326-5.2,35.745-10.629,49.486-23,12.278-11.053,20.568-27.932,15.481-44.509C753.4,481.81,738.2,470.78,722.5,465.293c-8.9-3.112-18.219-4.838-27.53-6.194-10.122-1.474-20.289-2.682-30.451-3.844Q602.8,448.2,540.613,446.63c-20.456-.515-40.909-.5-61.368-.206-18.271.265-37.515.259-54.465-7.507-13.181-6.039-25.144-17.026-28.817-31.463-4.24-16.666,3.58-33.638,14.8-45.708A119.814,119.814,0,0,1,430.713,345.1c7.734-5.342,15.737-10.3,23.914-14.938a333.012,333.012,0,0,1,50.337-23.206c8.581-3.12,17.289-5.812,26.073-8.3a223.1,223.1,0,0,0,22.026-7.054c13.858-5.523,27.038-14.879,30.562-30.216,3.339-14.536-2.291-30.317-12.162-41.116-11.42-12.493-28.64-17.97-45.148-18.856-18.533-.995-36.64,3.644-54.06,9.53-18.579,6.279-36.758,13.5-55.73,18.584A374.969,374.969,0,0,1,359.167,240.2c-9.481,1.01-19.248,2.15-28.786,1.377-7.993-.648-15.945-3-21.836-8.671-5.051-4.864-8.06-11.549-7.026-18.6.188-1.281,2.134-.737,1.948.537-1.259,8.587,4.578,16.5,11.771,20.554,8.313,4.685,18.43,4.691,27.685,4.155a362.1,362.1,0,0,0,59.592-8.615c19.25-4.4,37.812-10.682,56.353-17.4,17.609-6.377,35.613-12.6,54.425-13.982,16.324-1.2,33.5,1.18,47.716,9.71a52.786,52.786,0,0,1,24.617,34.348c2.862,14.02-1.1,28.132-11.715,37.915-10.988,10.13-26.055,14.461-40.1,18.449a367.346,367.346,0,0,0-52.1,18.651A327.083,327.083,0,0,0,432.7,346.184c-14.977,10.235-29.758,23.113-34.495,41.372a38.113,38.113,0,0,0,1.893,25.56A46.708,46.708,0,0,0,415.085,430.9c15.027,11.058,33.967,13.328,52.119,13.554,20.387.254,40.774-.434,61.168-.1q62.342,1.023,124.429,7.589,15.557,1.647,31.076,3.64a280.985,280.985,0,0,1,27.791,4.507c16.267,3.776,32.1,11.036,42.207,24.828a39.261,39.261,0,0,1,3.344,42.931c-7.764,15.276-22.307,24.993-37.751,31.376a267.849,267.849,0,0,1-25.416,8.581,1.011,1.011,0,0,1-.537-1.948Z" transform="translate(-218.067 -167.693)" fill="#f2f2f2" />
    <circle id="Ellipse_32" data-name="Ellipse 32" cx="16.158" cy="16.158" r="16.158" transform="translate(68.599 30.633)" fill="#f2f2f2" />
    <circle id="Ellipse_33" data-name="Ellipse 33" cx="16.158" cy="16.158" r="16.158" transform="translate(180.695 61.265)" fill="#f2f2f2" />
    <circle id="Ellipse_34" data-name="Ellipse 34" cx="16.158" cy="16.158" r="16.158" transform="translate(275.623)" fill="#f2f2f2" />
    <circle id="Ellipse_35" data-name="Ellipse 35" cx="16.158" cy="16.158" r="16.158" transform="translate(334.868 68.671)" fill="#f2f2f2" />
    <circle id="Ellipse_36" data-name="Ellipse 36" cx="16.158" cy="16.158" r="16.158" transform="translate(254.752 148.114)" fill="#f2f2f2" />
    <circle id="Ellipse_37" data-name="Ellipse 37" cx="16.158" cy="16.158" r="16.158" transform="translate(153.092 186.489)" fill="#f2f2f2" />
    <circle id="Ellipse_38" data-name="Ellipse 38" cx="16.158" cy="16.158" r="16.158" transform="translate(260.811 246.408)" fill="#f2f2f2" />
    <circle id="Ellipse_39" data-name="Ellipse 39" cx="16.158" cy="16.158" r="16.158" transform="translate(376.61 280.071)" fill="#f2f2f2" />
    <circle id="Ellipse_40" data-name="Ellipse 40" cx="16.158" cy="16.158" r="16.158" transform="translate(511.932 272.665)" fill="#f2f2f2" />
    <path id="Path_37841" data-name="Path 37841" d="M561.065,220.371a89.621,89.621,0,0,0-88.719,88.072c-.006.447-.009,3.589-.009,7.7a22.72,22.72,0,0,0,22.717,22.719h0a22.733,22.733,0,0,0,22.73-22.749c0-2.8,0-4.735,0-4.854a43.088,43.088,0,1,1,66.329,36.274l.008.01s-32.335,20.816-42.193,49.373l.008,0a63.287,63.287,0,0,0-2.608,18.021c0,2.508.147,24.453.433,42.265a23.42,23.42,0,0,0,23.422,23.04h0A23.426,23.426,0,0,0,586.6,456.672c-.1-16.312-.153-35.306-.153-36.685,0-17.535,16.915-35.005,30.81-46.4A93.449,93.449,0,0,0,649.4,322.422a58.412,58.412,0,0,0,1.683-12.68,89.373,89.373,0,0,0-90.019-89.371Z" transform="translate(-273.948 -174.588)" fill="#00bdda" />
    <circle id="Ellipse_41" data-name="Ellipse 41" cx="20.197" cy="20.197" r="20.197" transform="translate(402.904 143.399)" fill="#2f2e41" />
    <path id="Path_37843" data-name="Path 37843" d="M567.1,566.677h-8.253l-3.927-31.836H567.1Z" transform="translate(-181.322 -174.761)" fill="#a0616a" />
    <path id="Path_37844" data-name="Path 37844" d="M547.131,578.626h15.918v10.023H537.109A10.022,10.022,0,0,1,547.131,578.626Z" transform="translate(-175.502 -189.068)" fill="#2f2e41" />
    <path id="Path_37845" data-name="Path 37845" d="M662.1,566.677h-8.253l-3.927-31.836H662.1Z" transform="translate(-212.363 -174.761)" fill="#a0616a" />
    <path id="Path_37846" data-name="Path 37846" d="M642.131,578.626h15.918v10.023H632.109A10.022,10.022,0,0,1,642.131,578.626Z" transform="translate(-206.543 -189.068)" fill="#2f2e41" />
    <circle id="Ellipse_42" data-name="Ellipse 42" cx="16.536" cy="16.536" r="16.536" transform="translate(403.496 150.84)" fill="#a0616a" />
    <path id="Path_37847" data-name="Path 37847" d="M787.5,481.873l7.4-17a21.128,21.128,0,0,0-4.679-23.968,21.452,21.452,0,0,0-2.067-1.8,20.827,20.827,0,0,0-12.785-4.423,21.666,21.666,0,0,0-9.021,2.006c-.243.108-.478.222-.721.337-.464.222-.922.465-1.367.714a21.327,21.327,0,0,0-10.57,16.077l-3.265,27.361c-.821,2.148-30.121,79.706-19.874,138.918a3.007,3.007,0,0,0,2.572,2.471l10.388,1.414a3.027,3.027,0,0,0,3.373-2.377l17.43-83.085a2.359,2.359,0,0,1,4.578-.155l24.627,87.374a3.011,3.011,0,0,0,2.9,2.208,3.447,3.447,0,0,0,.586-.054l12.69-2.444a3.01,3.01,0,0,0,2.444-3.238C810.273,601.415,800.363,497.243,787.5,481.873Z" transform="translate(-357.61 -244.617)" fill="#2f2e41" />
    <path id="Path_37848" data-name="Path 37848" d="M706.079,418.477a6.77,6.77,0,0,0,7.133,7.543l9.243,22.212,6.992-10.364-9.849-19.5a6.807,6.807,0,0,0-13.518.113Z" transform="translate(-350.309 -237.34)" fill="#a0616a" />
    <path id="Path_37849" data-name="Path 37849" d="M796.473,524.774a6.77,6.77,0,0,0,5.673-8.694l19.447-14.164-11.708-4.384-16.672,14.123a6.807,6.807,0,0,0,3.26,13.12Z" transform="translate(-377.358 -265.152)" fill="#a0616a" />
    <path id="Path_37850" data-name="Path 37850" d="M741.5,471.527a11.483,11.483,0,0,1-2.221-.219,10.978,10.978,0,0,1-8.044-6.474l-12.95-15.79a3.03,3.03,0,0,1,.748-4.5l9.213-5.7a3.03,3.03,0,0,1,4.184,1l9.127,15.036,17.478-12.917a6.545,6.545,0,0,1,7.614,10.477l-17.445,15.913A10.942,10.942,0,0,1,741.5,471.527Z" transform="translate(-354.089 -245.827)" fill="#2f2e41" />
    <path id="Path_37851" data-name="Path 37851" d="M817.806,497.671h-.071a3.035,3.035,0,0,1-2.229-1.057l-8.191-9.556a3.029,3.029,0,0,1,.62-4.492l15.338-10.225-13.895-16.7a6.545,6.545,0,0,1,10.023-8.2l16.887,16.5a11.125,11.125,0,0,1-2.474,18.138l-13.8,14.646a3.035,3.035,0,0,1-2.2.951Z" transform="translate(-383.165 -248.224)" fill="#2f2e41" />
    <path id="Path_37852" data-name="Path 37852" d="M790.868,458.037a3.113,3.113,0,0,1-.393-.025,3,3,0,0,1-2.5-2.066l-6.155-18.871a2.075,2.075,0,0,1,1.073-2.508l.2-.094c.181-.086.36-.171.544-.253a21.93,21.93,0,0,1,9.158-2.035,21.091,21.091,0,0,1,11.554,3.472,2.107,2.107,0,0,1,.607,2.891L793.41,456.637A3,3,0,0,1,790.868,458.037Z" transform="translate(-375.04 -243.8)" fill="#e6e6e6" />
    <circle id="Ellipse_43" data-name="Ellipse 43" cx="6.609" cy="6.609" r="6.609" transform="translate(432.416 141.361)" fill="#2f2e41" />
    <path id="Path_37853" data-name="Path 37853" d="M787.616,361.365h0a17.5,17.5,0,0,0-17.5,17.5v7.406h9.109l4.356-7.406,1.307,7.406h27.643l-7.406-7.406a17.5,17.5,0,0,0-17.5-17.5Z" transform="translate(-371.247 -220.659)" fill="#2f2e41" />
    <path id="Path_37854" data-name="Path 37854" d="M834.809,361.989a10.2,10.2,0,0,1,11.1-7c4.212.7,7.542,4.09,9.526,7.871s2.9,8.013,4.234,12.07,3.226,8.135,6.593,10.761,8.535,3.338,11.842.637a13.544,13.544,0,0,1-25.231,4.835c-1.745-3.1-2.2-6.744-2.713-10.268s-1.19-7.17-3.273-10.059-5.984-4.775-9.293-3.46Z" transform="translate(-392.387 -218.545)" fill="#2f2e41" />
    <path id="Path_37855" data-name="Path 37855" d="M501.315,346.069h0A22.72,22.72,0,0,1,478.6,323.353c0-4.112,0-7.254.009-7.7a88.536,88.536,0,0,1,10.34-40.333,88.736,88.736,0,0,0-17.073,51.105c-.006.447-.009,3.589-.009,7.7a22.72,22.72,0,0,0,22.717,22.719h0a22.738,22.738,0,0,0,21.872-16.556A22.636,22.636,0,0,1,501.315,346.069Z" transform="translate(-273.794 -192.543)" fill="#3f3d56" />
    <path id="Path_37856" data-name="Path 37856" d="M589.5,286.226a43.09,43.09,0,0,1,37.472,60.2,43.086,43.086,0,1,0-72.324-45.1,43,43,0,0,1,34.852-15.1Z" transform="translate(-300.844 -192.572)" fill="#3f3d56" />
    <path id="Path_37857" data-name="Path 37857" d="M601.952,545.815h0a23.421,23.421,0,0,1-23.422-23.045c-.285-17.806-.433-39.752-.433-42.26a63.287,63.287,0,0,1,2.608-18.021l-.008,0a63.991,63.991,0,0,1,3.7-8.551,74.09,74.09,0,0,0-10.431,19.323l.008,0a63.287,63.287,0,0,0-2.608,18.021c0,2.508.148,24.453.433,42.265a23.42,23.42,0,0,0,23.422,23.04h0a23.43,23.43,0,0,0,22.487-16.86,23.334,23.334,0,0,1-15.754,6.088Z" transform="translate(-306.306 -250.907)" fill="#3f3d56" />
    <path id="Path_37858" data-name="Path 37858" d="M126.54,567.133h8.253L138.72,535.3H126.538Z" transform="translate(-41.347 -174.909)" fill="#ffb8b8" />
    <path id="Path_37859" data-name="Path 37859" d="M0,0H25.941V10.023H10.023A10.022,10.022,0,0,1,0,0H0Z" transform="translate(109.363 399.888) rotate(179.997)" fill="#2f2e41" />
    <path id="Path_37860" data-name="Path 37860" d="M82.54,567.133h8.253L94.72,535.3H82.538Z" transform="translate(-26.97 -174.909)" fill="#ffb8b8" />
    <path id="Path_37861" data-name="Path 37861" d="M0,0H25.941V10.023H10.023A10.022,10.022,0,0,1,0,0H0Z" transform="translate(79.74 399.888) rotate(179.997)" fill="#2f2e41" />
    <path id="Path_37862" data-name="Path 37862" d="M265.557,666.8l-8.062-.424a3.146,3.146,0,0,1-2.975-3.344l9.636-106.687,44.374,11.974,4.275-1.166L299.436,661.6a3.162,3.162,0,0,1-2.934,2.656l-8.691.4a3.147,3.147,0,0,1-3.32-3.229l1.575-56.685a1.049,1.049,0,0,0-2.076-.242L268.8,664.3a3.128,3.128,0,0,1-3.076,2.508C265.671,666.807,265.614,666.806,265.557,666.8Z" transform="translate(-202.774 -284.37)" fill="#2f2e41" />
    <circle id="Ellipse_44" data-name="Ellipse 44" cx="16.536" cy="16.536" r="16.536" transform="translate(70.14 151.614)" fill="#ffb8b8" />
    <path id="Path_37863" data-name="Path 37863" d="M265.5,461.572l1.818,39.228.657,14.272a3.125,3.125,0,0,0,2.07,2.811l42.641,15.447a3.015,3.015,0,0,0,1.077.189,3.126,3.126,0,0,0,3.14-3.224l-1.748-70.534a24.863,24.863,0,0,0-20.7-24.02c-.412-.063-.832-.126-1.252-.182a24.4,24.4,0,0,0-19.635,6.356,25.069,25.069,0,0,0-8.07,19.656Z" transform="translate(-206.353 -244.842)" fill="#ccc" />
    <path id="Path_37864" data-name="Path 37864" d="M357.082,554.563a6.775,6.775,0,0,1-3.615-10.251l-14.46-19.228,12.478-.772L363.3,542.689a6.807,6.807,0,0,1-6.222,11.874Z" transform="translate(-230.382 -273.902)" fill="#ffb8b8" />
    <path id="Path_37865" data-name="Path 37865" d="M339.031,517.187a3.127,3.127,0,0,1-1.711-1.7l-21.785-51.9a8.391,8.391,0,1,1,15.474-6.495L352.795,509a3.15,3.15,0,0,1-1.683,4.119l-9.671,4.059a3.125,3.125,0,0,1-2.408.012Z" transform="translate(-222.498 -250.257)" fill="#ccc" />
    <path id="Path_37866" data-name="Path 37866" d="M298.327,525.831l20.924-40.064a3.284,3.284,0,0,1,4.427-1.389l30.371,15.862a3.284,3.284,0,0,1,1.389,4.427L334.514,544.73a3.284,3.284,0,0,1-4.427,1.389l-30.371-15.862A3.284,3.284,0,0,1,298.327,525.831Z" transform="translate(-216.968 -260.732)" fill="#3f3d56" />
    <path id="Path_37867" data-name="Path 37867" d="M304.534,511.031a6.775,6.775,0,0,0-10.447-3l-20.048-13.3L274,507.23l19.043,10.713a6.807,6.807,0,0,0,11.486-6.912Z" transform="translate(-209.142 -264.236)" fill="#ffb8b8" />
    <path id="Path_37868" data-name="Path 37868" d="M269.925,497.281,253.541,484.3a11.555,11.555,0,0,1-5.267-18.269l14.877-19.5a6.8,6.8,0,0,1,11.532,6.924l-11.771,19.255,17.3,8.2a3.146,3.146,0,0,1,1.312,4.524l-6.983,11.051a3.152,3.152,0,0,1-2.132,1.421l-.052.008A3.161,3.161,0,0,1,269.925,497.281Z" transform="translate(-199.882 -247.675)" fill="#ccc" />
    <path id="Path_37869" data-name="Path 37869" d="M283.9,401.9a1.437,1.437,0,0,1,1.25-1.9,3.32,3.32,0,0,1,2.34,1.155,9.315,9.315,0,0,0,2.068,1.775,1.779,1.779,0,0,0,2.341-.423,3.256,3.256,0,0,0-.124-2.527,24.845,24.845,0,0,1-1.1-6.578,11.582,11.582,0,0,1,1.656-7.034c1.78-2.508,4.963-3.46,7.975-3.391s5.975,1,8.959,1.587c1.03.2,2.241.307,2.93-.492.733-.849.463-2.223.152-3.369-.809-2.974-1.666-6.049-3.545-8.451a12.723,12.723,0,0,0-8.12-4.571,19.482,19.482,0,0,0-9.063,1.029,24.3,24.3,0,0,0-11.9,8.294,19.683,19.683,0,0,0-3.755,14.542,17.953,17.953,0,0,0,6.656,11.347Z" transform="translate(-209.719 -222.674)" fill="#2f2e41" />
    <path id="Path_37870" data-name="Path 37870" d="M587.175,711.79a30.965,30.965,0,0,1-11.493-48.13,30.967,30.967,0,1,0,42.124,44.747,30.949,30.949,0,0,1-30.632,3.383Z" transform="translate(-303.564 -319.435)" fill="#3f3d56" />
  </g>
</svg>
