<svg xmlns="http://www.w3.org/2000/svg" width="32.276" height="37" viewBox="0 0 32.276 37">
  <path fill="#F0F0F0" id="Path_1" data-name="Path 1" d="M41.191,10.678a1.165,1.165,0,0,0-.849-.359,3.2,3.2,0,0,0-1.027.4c-.522.264-1.076.558-1.659.886a12.033,12.033,0,0,1-2.074.885,7.1,7.1,0,0,1-2.215.4,3.656,3.656,0,0,1-1.659-.359,33.648,33.648,0,0,0-4.128-1.659,12.608,12.608,0,0,0-3.771-.547,17.907,17.907,0,0,0-7.936,2.264c-.612.305-1.051.542-1.335.715l-.282-2.067a3.013,3.013,0,1,0-3.543.295l4.076,29.885a1.775,1.775,0,0,0,1.757,1.535,1.872,1.872,0,0,0,.242-.016,1.775,1.775,0,0,0,1.519-2L16.669,28.92A17.97,17.97,0,0,1,24.375,26.7a8.827,8.827,0,0,1,2.686.414,11.692,11.692,0,0,1,2.178.9,12.77,12.77,0,0,0,2.045.9,6.975,6.975,0,0,0,2.328.415,15.269,15.269,0,0,0,6.955-2.187,2.747,2.747,0,0,0,.745-.519,1.029,1.029,0,0,0,.236-.725V11.527A1.164,1.164,0,0,0,41.191,10.678Z" transform="translate(-9.271 -5.946)" opacity="0.8" />
</svg>
