<svg xmlns="http://www.w3.org/2000/svg" xmlns:xlink="http://www.w3.org/1999/xlink" width="51.32" height="52.53" viewBox="0 0 51.32 52.53">
  <defs>
    <filter id="Ellipse_2" x="0" y="0" width="51.32" height="52.53" filterUnits="userSpaceOnUse">
      <feOffset dx="1" dy="2" input="SourceAlpha" />
      <feGaussianBlur stdDeviation="3" result="blur" />
      <feFlood flood-opacity="0.161" />
      <feComposite operator="in" in2="blur" />
      <feComposite in="SourceGraphic" />
    </filter>
  </defs>
  <g id="Group_12" data-name="Group 12" transform="translate(8 7)">
    <g transform="matrix(1, 0, 0, 1, -8, -7)" filter="url(#Ellipse_2)">
      <ellipse id="Ellipse_2-2" data-name="Ellipse 2" cx="16.66" cy="17.265" rx="16.66" ry="17.265" transform="translate(8 7)" fill="#fff" />
    </g>
    <g id="Icons" transform="translate(9.503 9.849)">
      <g id="Black" transform="translate(0)">
        <path id="Instagram" d="M507.128,160c-1.936,0-2.178.009-2.939.044a5.075,5.075,0,0,0-1.73.343,3.48,3.48,0,0,0-1.262.852,3.633,3.633,0,0,0-.822,1.308,5.591,5.591,0,0,0-.331,1.793c-.034.788-.043,1.039-.043,3.045s.008,2.257.043,3.045a5.6,5.6,0,0,0,.331,1.793,3.632,3.632,0,0,0,.822,1.308,3.485,3.485,0,0,0,1.262.853,5.086,5.086,0,0,0,1.73.343c.76.036,1,.044,2.939.044s2.178-.009,2.939-.044a5.076,5.076,0,0,0,1.73-.343,3.48,3.48,0,0,0,1.262-.852,3.639,3.639,0,0,0,.823-1.308,5.611,5.611,0,0,0,.331-1.793c.034-.788.043-1.039.043-3.045s-.008-2.257-.043-3.045a5.6,5.6,0,0,0-.331-1.793,3.633,3.633,0,0,0-.822-1.308,3.481,3.481,0,0,0-1.262-.852,5.07,5.07,0,0,0-1.73-.343C509.306,160.009,509.063,160,507.128,160Zm0,1.331c1.9,0,2.128.008,2.88.043a3.825,3.825,0,0,1,1.324.255,2.2,2.2,0,0,1,.82.552,2.3,2.3,0,0,1,.533.849,4.2,4.2,0,0,1,.246,1.371c.034.779.042,1.013.042,2.985s-.008,2.206-.042,2.985a4.216,4.216,0,0,1-.246,1.372,2.3,2.3,0,0,1-.533.849,2.205,2.205,0,0,1-.82.552,3.812,3.812,0,0,1-1.323.255c-.751.035-.977.043-2.88.043s-2.129-.008-2.88-.043a3.825,3.825,0,0,1-1.324-.255,2.2,2.2,0,0,1-.82-.552,2.3,2.3,0,0,1-.533-.849,4.2,4.2,0,0,1-.246-1.371c-.034-.779-.042-1.013-.042-2.985s.007-2.206.042-2.985a4.218,4.218,0,0,1,.246-1.372,2.3,2.3,0,0,1,.533-.849,2.2,2.2,0,0,1,.82-.552,3.811,3.811,0,0,1,1.323-.255C505,161.338,505.224,161.331,507.128,161.331Zm0,2.263a3.8,3.8,0,1,0,3.66,3.793A3.728,3.728,0,0,0,507.128,163.593Zm0,6.255a2.464,2.464,0,1,1,2.376-2.462A2.42,2.42,0,0,1,507.128,169.849Zm4.66-6.4a.856.856,0,1,1-.855-.886A.871.871,0,0,1,511.787,163.444Z" transform="translate(-500 -160)" fill="#262626" fill-rule="evenodd" />
      </g>
    </g>
  </g>
</svg>
