<svg xmlns="http://www.w3.org/2000/svg" width="111.253" height="111.253" viewBox="0 0 111.253 111.253">
  <g id="Group_817" data-name="Group 817" transform="translate(-1 -1)">
    <path id="Path_37547" data-name="Path 37547" d="M22.907,16.442a1.857,1.857,0,0,0,2.626,0l6.36-6.356a1.854,1.854,0,1,0-2.622-2.622L22.907,13.82A1.852,1.852,0,0,0,22.907,16.442Z" transform="translate(57.861 16.039)" fill="#fff" />
    <path id="Path_37548" data-name="Path 37548" d="M31.417,18.834a7.417,7.417,0,1,1,7.417-7.417A7.422,7.422,0,0,1,31.417,18.834Zm0-11.125a3.708,3.708,0,1,0,3.708,3.708A3.71,3.71,0,0,0,31.417,7.708ZM42.542,41.084A7.417,7.417,0,1,1,35.125,48.5,7.422,7.422,0,0,1,42.542,41.084Zm0,3.708A3.708,3.708,0,1,0,46.251,48.5,3.712,3.712,0,0,0,42.542,44.793Z" transform="translate(62.294 8.125)" fill="#fff" />
    <path id="Path_37549" data-name="Path 37549" d="M90,21.417a1.855,1.855,0,0,0,1.854,1.854h5.563a1.854,1.854,0,0,0,0-3.708H91.857A1.855,1.855,0,0,0,90,21.417Zm-74.169,0A7.417,7.417,0,1,1,8.417,14,7.422,7.422,0,0,1,15.834,21.417Zm-11.125,0a3.708,3.708,0,1,0,3.708-3.708A3.712,3.712,0,0,0,4.708,21.417Z" transform="translate(0 35.21)" fill="#fff" />
    <path id="Path_37550" data-name="Path 37550" d="M11.917,17.354a1.855,1.855,0,0,1-1.854,1.854H6.354a1.854,1.854,0,1,1,0-3.708h3.708A1.855,1.855,0,0,1,11.917,17.354ZM71.422,41.633a1.855,1.855,0,0,1,2.622,0L80.4,47.99a1.854,1.854,0,0,1-2.622,2.622l-6.36-6.36A1.851,1.851,0,0,1,71.422,41.633Z" transform="translate(9.48 39.272)" fill="#fff" />
    <path id="Path_37551" data-name="Path 37551" d="M31.417,38.834a7.417,7.417,0,1,1,7.417-7.417A7.422,7.422,0,0,1,31.417,38.834Zm0-11.125a3.708,3.708,0,1,0,3.708,3.708A3.712,3.712,0,0,0,31.417,27.708Z" transform="translate(62.294 62.294)" fill="#fff" />
    <g id="Group_807" data-name="Group 807" transform="translate(12.125 80.226)">
      <path id="Path_37552" data-name="Path 37552" d="M16.449,22.91a1.859,1.859,0,0,1,0,2.622l-6.364,6.356a1.854,1.854,0,1,1-2.622-2.622l6.364-6.356A1.845,1.845,0,0,1,16.449,22.91Z" transform="translate(3.911 -22.364)" fill="#fff" />
      <path id="Path_37553" data-name="Path 37553" d="M11.417,38.834a7.417,7.417,0,1,1,7.417-7.417A7.422,7.422,0,0,1,11.417,38.834Zm0-11.125a3.708,3.708,0,1,0,3.708,3.708A3.71,3.71,0,0,0,11.417,27.708Z" transform="translate(-4 -17.932)" fill="#fff" />
    </g>
    <g id="Group_808" data-name="Group 808" transform="translate(12.125 12.125)">
      <path id="Path_37554" data-name="Path 37554" d="M16.445,16.442a1.849,1.849,0,0,1-2.622,0l-6.36-6.356a1.854,1.854,0,0,1,2.622-2.622l6.36,6.36A1.844,1.844,0,0,1,16.445,16.442Z" transform="translate(3.911 3.913)" fill="#fff" />
      <path id="Path_37555" data-name="Path 37555" d="M11.417,18.834a7.417,7.417,0,1,1,7.417-7.417A7.422,7.422,0,0,1,11.417,18.834Zm0-11.125a3.708,3.708,0,1,0,3.708,3.708A3.71,3.71,0,0,0,11.417,7.708Z" transform="translate(-4 -4)" fill="#fff" />
    </g>
    <g id="Group_809" data-name="Group 809" transform="translate(49.21 90.002)">
      <path id="Path_37556" data-name="Path 37556" d="M21.417,27A7.417,7.417,0,1,1,14,34.417,7.424,7.424,0,0,1,21.417,27Zm0,11.125a3.708,3.708,0,1,0-3.708-3.708A3.712,3.712,0,0,0,21.417,38.125Z" transform="translate(-14 -19.583)" fill="#fff" />
      <path id="Path_37557" data-name="Path 37557" d="M17.354,25a1.855,1.855,0,0,1,1.854,1.854v5.563a1.854,1.854,0,1,1-3.708,0V26.854A1.855,1.855,0,0,1,17.354,25Z" transform="translate(-9.937 -25)" fill="#fff" />
    </g>
    <g id="Group_810" data-name="Group 810" transform="translate(49.21 1)">
      <path id="Path_37558" data-name="Path 37558" d="M21.417,15.834a7.417,7.417,0,1,1,7.417-7.417A7.422,7.422,0,0,1,21.417,15.834Zm0-11.125a3.708,3.708,0,1,0,3.708,3.708A3.71,3.71,0,0,0,21.417,4.708Z" transform="translate(-14 -1)" fill="#fff" />
      <path id="Path_37559" data-name="Path 37559" d="M17.354,13.771A1.855,1.855,0,0,1,15.5,11.917V6.354a1.854,1.854,0,1,1,3.708,0v5.563A1.855,1.855,0,0,1,17.354,13.771Z" transform="translate(-9.937 8.48)" fill="#fff" />
    </g>
    <g id="Group_811" data-name="Group 811" transform="translate(26.959 26.959)">
      <path id="Path_37560" data-name="Path 37560" d="M37.667,67.335A29.667,29.667,0,1,1,67.335,37.667,29.7,29.7,0,0,1,37.667,67.335Zm0-55.626A25.959,25.959,0,1,0,63.626,37.667,25.992,25.992,0,0,0,37.667,11.708Z" transform="translate(-8 -8)" fill="#fff" />
      <path id="Path_37561" data-name="Path 37561" d="M12.137,52.17a1.854,1.854,0,0,1-.816-3.519,50.345,50.345,0,0,1,40.867-1.417,1.852,1.852,0,1,1-1.4,3.43,46.652,46.652,0,0,0-37.83,1.313A1.834,1.834,0,0,1,12.137,52.17Zm21.2-34.57a50.069,50.069,0,0,1-15.549-2.462,1.855,1.855,0,0,1,1.153-3.527,46.7,46.7,0,0,0,31.21-.864A1.853,1.853,0,0,1,51.5,14.2,49.813,49.813,0,0,1,33.339,17.6Z" transform="translate(-1.817 -0.912)" fill="#fff" />
      <path id="Path_37562" data-name="Path 37562" d="M28.184,67.212a1.832,1.832,0,0,1-1.031-.315,35.215,35.215,0,0,1,0-58.564,1.854,1.854,0,0,1,2.066,0,35.208,35.208,0,0,1,0,58.564A1.832,1.832,0,0,1,28.184,67.212Zm0-55.081a31.513,31.513,0,0,0,0,50.969,31.5,31.5,0,0,0,0-50.969Z" transform="translate(1.48 -7.948)" fill="#fff" />
      <path id="Path_37563" data-name="Path 37563" d="M58.461,19.249H11.875a1.854,1.854,0,1,1,0-3.708H58.461a1.854,1.854,0,0,1,0,3.708Z" transform="translate(-2.526 12.424)" fill="#fff" />
    </g>
    <g id="Group_816" data-name="Group 816" transform="translate(7.16 7.16)">
      <circle id="Ellipse_10" data-name="Ellipse 10" cx="1.854" cy="1.854" r="1.854" transform="translate(63.084)" fill="#fff" />
      <circle id="Ellipse_11" data-name="Ellipse 11" cx="1.854" cy="1.854" r="1.854" transform="translate(32.141 95.225)" fill="#fff" />
      <circle id="Ellipse_12" data-name="Ellipse 12" cx="1.854" cy="1.854" r="1.854" transform="translate(70.342 3.004)" fill="#fff" />
      <circle id="Ellipse_13" data-name="Ellipse 13" cx="1.854" cy="1.854" r="1.854" transform="translate(24.884 92.221)" fill="#fff" />
      <circle id="Ellipse_14" data-name="Ellipse 14" cx="1.854" cy="1.854" r="1.854" transform="translate(92.221 24.884)" fill="#fff" />
      <circle id="Ellipse_15" data-name="Ellipse 15" cx="1.854" cy="1.854" r="1.854" transform="translate(3.004 70.342)" fill="#fff" />
      <circle id="Ellipse_16" data-name="Ellipse 16" cx="1.854" cy="1.854" r="1.854" transform="translate(95.225 32.141)" fill="#fff" />
      <circle id="Ellipse_17" data-name="Ellipse 17" cx="1.854" cy="1.854" r="1.854" transform="translate(0 63.084)" fill="#fff" />
      <g id="Group_812" data-name="Group 812" transform="translate(0 32.141)">
        <circle id="Ellipse_18" data-name="Ellipse 18" cx="1.854" cy="1.854" r="1.854" transform="translate(95.225 30.943)" fill="#fff" />
        <circle id="Ellipse_19" data-name="Ellipse 19" cx="1.854" cy="1.854" r="1.854" fill="#fff" />
      </g>
      <g id="Group_813" data-name="Group 813" transform="translate(3.004 24.884)">
        <circle id="Ellipse_20" data-name="Ellipse 20" cx="1.854" cy="1.854" r="1.854" transform="translate(89.217 45.458)" fill="#fff" />
        <circle id="Ellipse_21" data-name="Ellipse 21" cx="1.854" cy="1.854" r="1.854" fill="#fff" />
      </g>
      <g id="Group_814" data-name="Group 814" transform="translate(24.884 3.004)">
        <circle id="Ellipse_22" data-name="Ellipse 22" cx="1.854" cy="1.854" r="1.854" transform="translate(45.458 89.217)" fill="#fff" />
        <circle id="Ellipse_23" data-name="Ellipse 23" cx="1.854" cy="1.854" r="1.854" fill="#fff" />
      </g>
      <g id="Group_815" data-name="Group 815" transform="translate(32.141)">
        <circle id="Ellipse_24" data-name="Ellipse 24" cx="1.854" cy="1.854" r="1.854" transform="translate(30.943 95.225)" fill="#fff" />
        <circle id="Ellipse_25" data-name="Ellipse 25" cx="1.854" cy="1.854" r="1.854" fill="#fff" />
      </g>
    </g>
  </g>
</svg>
