<svg
  xmlns="http://www.w3.org/2000/svg"
  width="19.925"
  height="24"
  viewBox="0 0 19.925 24"
>
  <path
    id="Notifications"
    d="M24.666,15.85l-.5-4.281a8.439,8.439,0,0,0-5.836-7.937V2.563a2.564,2.564,0,0,0-5.127,0V3.631a8.44,8.44,0,0,0-5.836,7.937l-.5,4.28a2.786,2.786,0,0,0-1.068,2.2v.168c0,2.092,2.046,2.092,2.817,2.092h2.829A4.274,4.274,0,0,0,15.6,24a4.274,4.274,0,0,0,4.148-3.687h3.166c.77,0,2.817,0,2.817-2.092v-.168A2.783,2.783,0,0,0,24.666,15.85ZM15.6,21.9a2.094,2.094,0,0,1-1.871-1.245h3.741A2.094,2.094,0,0,1,15.6,21.9Zm8.027-3.723a4.881,4.881,0,0,1-.712.036H8.625a4.825,4.825,0,0,1-.712-.036v-.119a.708.708,0,0,1,.408-.638l.522-.251.627-5.411.007-.121a6.318,6.318,0,0,1,5-6.161l.837-.175V2.564a.459.459,0,0,1,.918,0V5.3l.837.175a6.318,6.318,0,0,1,5,6.161l.634,5.532.522.252a.708.708,0,0,1,.408.638v.119Z"
    transform="translate(-5.808)"
    fill="#354052"
  />
</svg>
