<svg id="Group_3" data-name="Group 3" xmlns="http://www.w3.org/2000/svg" width="25.089" height="26" viewBox="0 0 25.089 26">
  <path id="Path_9" data-name="Path 9" d="M0,0H25.089V26H0Z" fill="none" />
  <path id="Path_10" data-name="Path 10" d="M19.965,16.281l-2.655-.314a2.038,2.038,0,0,0-1.714.618l-1.923,1.993a16.025,16.025,0,0,1-6.889-7.139l1.934-2a2.2,2.2,0,0,0,.6-1.777l-.3-2.73A2.12,2.12,0,0,0,6.929,3.01H5.121A2.117,2.117,0,0,0,3.03,5.252,18.094,18.094,0,0,0,19.641,22.467,2.11,2.11,0,0,0,21.8,20.3V18.426A2.122,2.122,0,0,0,19.965,16.281Z" transform="translate(0.137 0.251)" fill="#fff" />
</svg>
