<svg xmlns="http://www.w3.org/2000/svg" xmlns:xlink="http://www.w3.org/1999/xlink" width="35" height="35" viewBox="0 0 35 35">
  <defs>
    <clipPath id="clip-path">
      <rect id="Rectangle_2255" data-name="Rectangle 2255" width="35" height="35" transform="translate(0 0.078)" fill="#2f3a3e" />
    </clipPath>
  </defs>
  <g id="Group_35952" data-name="Group 35952" transform="translate(0 -0.078)" opacity="0.5" clip-path="url(#clip-path)">
    <path id="Path_38081" data-name="Path 38081" d="M21.854,34.676a15,15,0,0,1-4.7.048,1.081,1.081,0,0,1-.782-.7l-.886-3.05a1.771,1.771,0,0,0-.708-.9l-3.211-1.854a1.715,1.715,0,0,0-1.132-.149l-3.025.811a1.061,1.061,0,0,1-1-.312A14.943,14.943,0,0,1,4.173,24.7a1.082,1.082,0,0,1,.214-1.026l2.275-2.372a1.773,1.773,0,0,0,.428-1.064V16.535a1.714,1.714,0,0,0-.437-1.055L4.384,13.213A1.051,1.051,0,0,1,4.161,12.2,18,18,0,0,1,6.386,8.358a1.083,1.083,0,0,1,1-.326l3.236.795a1.774,1.774,0,0,0,1.136-.162l3.211-1.854a1.714,1.714,0,0,0,.7-.906l.818-3.052a1.048,1.048,0,0,1,.77-.7,14.935,14.935,0,0,1,4.408.021,1.061,1.061,0,0,1,.768.706l.811,3.025a1.716,1.716,0,0,0,.695.906l3.211,1.854a1.715,1.715,0,0,0,1.132.149L31.3,8a1.061,1.061,0,0,1,1,.312A14.992,14.992,0,0,1,34.6,12.333a1.066,1.066,0,0,1-.229,1.019L32.245,15.48a1.714,1.714,0,0,0-.437,1.055v3.708a1.713,1.713,0,0,0,.437,1.055l2.16,2.16a1.071,1.071,0,0,1,.231,1.02,16.428,16.428,0,0,1-1.064,2.172,16.712,16.712,0,0,1-1.246,1.877,1.058,1.058,0,0,1-.994.314l-2.874-.77a1.715,1.715,0,0,0-1.132.149l-3.211,1.854a1.713,1.713,0,0,0-.695.906l-.8,2.983A1.079,1.079,0,0,1,21.854,34.676ZM11.979,18.442a7.416,7.416,0,1,1,7.416,7.416A7.419,7.419,0,0,1,11.979,18.442Z" transform="translate(-1.858 -0.904)" fill="#2f3a3e" fill-rule="evenodd" />
  </g>
</svg>
