<svg xmlns="http://www.w3.org/2000/svg" width="764.887" height="258.46" viewBox="0 0 764.887 258.46">
  <g id="Group_35885" data-name="Group 35885" transform="translate(-20.981)">
    <path id="Path_37827" data-name="Path 37827" d="M744.5,402.181V381a48,48,0,0,1,96,0v21.181A10.831,10.831,0,0,1,829.681,413H764.8l-5.3-11.263V413h-4.181A10.831,10.831,0,0,1,744.5,402.181Z" transform="translate(-198.5 -320.5)" fill="#2f2e41" />
    <path id="Path_37816" data-name="Path 37816" d="M979.756,552.5H950.244a4.57,4.57,0,0,0-3.5,1.617,7,7,0,1,0,1.806,13.173L951,575.245a4.611,4.611,0,0,0,4.408,3.255h19.188A4.611,4.611,0,0,0,979,575.245l5.163-16.777a4.612,4.612,0,0,0-4.408-5.968ZM945.5,566a5,5,0,0,1,0-10c.091,0,.176.022.267.027a4.563,4.563,0,0,0,.07,2.441l2.112,6.865A4.936,4.936,0,0,1,945.5,566Z" transform="translate(-198.5 -320.5)" fill="#f0f0f0" />
    <path id="Path_37817" data-name="Path 37817" d="M260.756,531.5H231.244a4.57,4.57,0,0,0-3.5,1.617,7,7,0,1,0,1.806,13.173L233,575.245a4.611,4.611,0,0,0,4.408,3.255h19.188A4.611,4.611,0,0,0,261,575.245l4.163-37.777a4.612,4.612,0,0,0-4.408-5.968ZM226.5,545a5,5,0,0,1,0-10c.091,0,.176.022.267.027a4.564,4.564,0,0,0,.07,2.441l2.112,6.865A4.936,4.936,0,0,1,226.5,545Z" transform="translate(-198.5 -320.5)" fill="#f0f0f0" />
    <path id="Path_37818" data-name="Path 37818" d="M609.414,507.5a8,8,0,1,0-8,8c.1,0,.2-.011.295-.015a71.179,71.179,0,0,1,3.139,19.835,63.036,63.036,0,0,1-.573,10.031c-.348,2.358-1,5.063-3.339,6.164-1.746.821-.225,3.409,1.514,2.59,2.64-1.242,3.924-4.026,4.5-6.747a53.321,53.321,0,0,0,.9-10.643,74.068,74.068,0,0,0-3.215-21.9,8,8,0,0,0,4.775-7.318Z" transform="translate(-198.5 -320.5)" fill="#e6e6e6" />
    <path id="Path_482" data-name="Path 482" d="M606.97,555.707s-10.727-26.4,21.453-46.207Z" transform="translate(-198.5 -320.5)" fill="#e6e6e6" />
    <path id="Path_483" data-name="Path 483" d="M606.395,555.227s-3.272-18.82-28.6-18.658Z" transform="translate(-198.5 -320.5)" fill="#e6e6e6" />
    <path id="Path_37819" data-name="Path 37819" d="M624.34,578.34H580.36a4.5,4.5,0,0,1-4.045-2.531l-9.576-19.683a4.5,4.5,0,0,1,4.045-6.466h63.131a4.5,4.5,0,0,1,4.045,6.466l-9.575,19.683a4.5,4.5,0,0,1-4.045,2.531Z" transform="translate(-198.5 -320.5)" fill="#f0f0f0" />
    <path id="Path_37821" data-name="Path 37821" d="M167.075,203.41,147.64,128.134l-2.25-8.69,2.11-2.007,36.222-18.382,51.76,1.32,30.387,15.98.164,11.778,1.5,106.116L273.6,260.3H162.419l8.632-41.483Z" transform="translate(0 -3.86)" fill="#00bdda" />
    <path id="Path_37822" data-name="Path 37822" d="M493.429,580.8H464.455l-8-59.337,2.094-73.2.289-9.959,5.531-1.854a35.792,35.792,0,0,1,10.093,11.813c3.555,6.356,6.507,15.464,5.773,27.71,0,0,.656,14.461.031,24.091C479.836,506.638,487.312,548.231,493.429,580.8Z" transform="translate(-198.5 -324.36)" fill="#00bdda" />
    <path id="Path_37823" data-name="Path 37823" d="M365.676,522.976l-.1.755L357.888,580.8H324.571c2.672-32.334,5.812-72.759,5.39-79.237-.625-9.625.031-24.1.031-24.1-.8-13.269,2.742-22.838,6.671-29.243a38.629,38.629,0,0,1,7.226-8.718,20.225,20.225,0,0,1,1.969-1.565l5.531,1.846,1.445,8.437Z" transform="translate(-198.5 -324.36)" fill="#00bdda" />
    <path id="Path_37824" data-name="Path 37824" d="M369.517,371.266a35.88,35.88,0,1,0,35.88-35.879h0a35.79,35.79,0,0,0-35.879,35.7Q369.517,371.177,369.517,371.266Z" transform="translate(-198.5 -320.5)" fill="#ffb7b7" />
    <path id="Path_37825" data-name="Path 37825" d="M520,571.238h0a7.722,7.722,0,0,1-7.722,7.722H305.722A7.722,7.722,0,0,1,298,571.238h0a7.722,7.722,0,0,1,7.722-7.722h2.293a5.3,5.3,0,0,1-.2-1.414V456.649a6.706,6.706,0,0,1,6.706-6.706H503.482a6.706,6.706,0,0,1,6.706,6.706V562.1a4.99,4.99,0,0,1-.2,1.414h2.293A7.722,7.722,0,0,1,520,571.238Z" transform="translate(-198.5 -320.5)" fill="#3f3d56" />
    <path id="Path_37826" data-name="Path 37826" d="M413,510.171a11.936,11.936,0,1,1,11.936-11.936A11.936,11.936,0,0,1,413,510.171Zm0-21.873a9.936,9.936,0,1,0,9.936,9.936A9.936,9.936,0,0,0,413,488.3Z" transform="translate(-198.5 -320.5)" fill="#fff" opacity="0.3" />
    <circle id="Ellipse_28" data-name="Ellipse 28" cx="10.936" cy="10.936" r="10.936" transform="translate(199.564 162.798)" fill="#fff" opacity="0.5" />
    <circle id="Ellipse_29" data-name="Ellipse 29" cx="31.472" cy="31.472" r="31.472" transform="translate(564.47 30.718)" fill="#9e616a" />
    <path id="Path_37829" data-name="Path 37829" d="M836.4,435.143l5.722-1.907s11.444,4.768,11.444,13.352,1.907,42.916,1.907,42.916l-25.75,2.861Z" transform="translate(-198.5 -320.5)" fill="#00bdda" />
    <path id="Path_37830" data-name="Path 37830" d="M714.668,577.96h22.691l7.763-65.049,2.81-23.493.386-3.241,2.075-17.389a12,12,0,0,0-18.267-10.83,11.751,11.751,0,0,0-1.341.962,11.937,11.937,0,0,0-4.347,8.763L724.393,486.8Z" transform="translate(-198.5 -320.5)" fill="#9e616a" />
    <path id="Path_37831" data-name="Path 37831" d="M748.7,489.5l-25.75-2.861s1.907-34.333,1.907-42.916S736.3,430.374,736.3,430.374l5.722,1.907Z" transform="translate(-198.5 -320.5)" fill="#00bdda" />
    <path id="Path_37832" data-name="Path 37832" d="M740.35,577.96H847.993a210.614,210.614,0,0,0-13.9-37.86c-.947-1.931-1.507-2.961-1.507-2.961s-45.774-.9-74.387,10.542a14.026,14.026,0,0,0-4.8,3.423C748.446,556.224,744.115,565.835,740.35,577.96Z" transform="translate(-198.5 -320.5)" fill="#2f2e41" />
    <path id="Path_37833" data-name="Path 37833" d="M762.97,424.652s-.908-.488,53.4,1.491l22.731,6.26,3.021.832s-2.861,57.221-10.491,67.712-5.722,16.213-3.815,17.166,6.676-.954,3.815,3.815-6.676,1.907-2.861,4.768,5.722,13.352,5.722,13.352l-83.925,11.444s-2.861-37.194-10.491-56.268-9.537-26.7-9.537-26.7l5.722-38.148Z" transform="translate(-198.5 -320.5)" fill="#00bdda" />
    <path id="Path_37834" data-name="Path 37834" d="M760.5,365a31,31,0,1,1,62,0v14h-62Z" transform="translate(-198.5 -320.5)" fill="#2f2e41" />
    <path id="Path_37835" data-name="Path 37835" d="M897,570.091v2.764a6.105,6.105,0,0,1-6.1,6.1H687.872a6.105,6.105,0,0,1-6.1-6.1v-2.766a6.105,6.105,0,0,1,6.1-6.1h3.606a5.133,5.133,0,0,1-.2-1.371V459a5.123,5.123,0,0,1,5.12-5.12H882.368a5.123,5.123,0,0,1,5.12,5.12V562.616a4.842,4.842,0,0,1-.2,1.371h3.6a6.105,6.105,0,0,1,6.1,6.1Z" transform="translate(-198.5 -320.5)" fill="#3f3d56" />
    <path id="Path_37836" data-name="Path 37836" d="M793.384,512.42a11.6,11.6,0,1,1,11.6-11.6,11.6,11.6,0,0,1-11.6,11.6Zm0-21.206a9.6,9.6,0,1,0,9.6,9.6,9.6,9.6,0,0,0-9.6-9.6Z" transform="translate(-198.5 -320.5)" fill="#fff" opacity="0.3" />
    <path id="Path_37837" data-name="Path 37837" d="M446.039,341.462a24.292,24.292,0,0,1-6.878-8.359,11.3,11.3,0,0,0-2.376-3.321L430,335l4.146-7.221c-10.619-6.419-31.354-3.01-31.354-3.01-21.57-11.486-29.491,2.852-32.252,11.945a20.041,20.041,0,0,1-5.6,8.563C359.621,350.35,368,360.219,368,360.219v.7l2,13.584s2-9,7.278-15.324c3.328-3.987,8.743-6.358,11.259-6.309,32.463.633,38.609,1.919,38.609,1.919s5.5,2.953,7.923,4.193C442.913,362.987,441,377.5,441,377.5l5.861-25.759C448.214,345.5,447.463,342.632,446.039,341.462Z" transform="translate(-198.5 -320.5)" fill="#2f2e41" />
  </g>
</svg>
