<svg id="thumbs-up" xmlns="http://www.w3.org/2000/svg" width="39.46" height="39.46" viewBox="0 0 39.46 39.46">
  <path id="Path_1080" data-name="Path 1080" d="M0,0H39.46V39.46H0Z" fill="none" />
  <path id="Path_1081" data-name="Path 1081" d="M2,34.883H8.577V15.153H2ZM38.172,16.8a3.287,3.287,0,0,0-3.288-3.288H24.5L26.071,6a2.629,2.629,0,0,0,.058-.518A2.46,2.46,0,0,0,25.4,3.735L23.654,2,12.827,12.827a3.309,3.309,0,0,0-.962,2.326V31.595a3.287,3.287,0,0,0,3.288,3.288h14.8a3.279,3.279,0,0,0,3.025-2.006l4.957-11.591a3.288,3.288,0,0,0,.238-1.2V16.937l-.016-.016Z" transform="translate(-0.356 -0.356)" fill="#b3b3b3" />
</svg>
