<svg xmlns="http://www.w3.org/2000/svg" xmlns:xlink="http://www.w3.org/1999/xlink" width="51.32" height="52.53" viewBox="0 0 51.32 52.53">
  <defs>
    <filter id="Ellipse_1" x="0" y="0" width="51.32" height="52.53" filterUnits="userSpaceOnUse">
      <feOffset dx="1" dy="2" input="SourceAlpha" />
      <feGaussianBlur stdDeviation="3" result="blur" />
      <feFlood flood-opacity="0.161" />
      <feComposite operator="in" in2="blur" />
      <feComposite in="SourceGraphic" />
    </filter>
  </defs>
  <g id="Group_13" data-name="Group 13" transform="translate(8 7)">
    <g transform="matrix(1, 0, 0, 1, -8, -7)" filter="url(#Ellipse_1)">
      <ellipse id="Ellipse_1-2" data-name="Ellipse 1" cx="16.66" cy="17.265" rx="16.66" ry="17.265" transform="translate(8 7)" fill="#fff" />
    </g>
    <g id="Group_11" data-name="Group 11" transform="translate(7.455 10.473)">
      <path id="Path_16" data-name="Path 16" d="M44.513,35.963a7.729,7.729,0,0,1-2.287.649,4.115,4.115,0,0,0,1.751-2.283,7.8,7.8,0,0,1-2.529,1,3.915,3.915,0,0,0-2.907-1.3,4.057,4.057,0,0,0-3.982,4.127,4.263,4.263,0,0,0,.1.941,11.178,11.178,0,0,1-8.208-4.312,4.224,4.224,0,0,0-.539,2.075,4.168,4.168,0,0,0,1.771,3.435,3.849,3.849,0,0,1-1.8-.517c0,.018,0,.035,0,.052a4.1,4.1,0,0,0,3.195,4.046,3.862,3.862,0,0,1-1.8.071A4.007,4.007,0,0,0,31,46.812a7.809,7.809,0,0,1-5.9,1.709,10.979,10.979,0,0,0,6.1,1.854c7.325,0,11.33-6.288,11.33-11.742,0-.179,0-.357-.012-.534a8.244,8.244,0,0,0,1.987-2.136Z" transform="translate(-25.103 -34.028)" fill="#262626" />
    </g>
  </g>
</svg>
