<svg id="Layer_2" data-name="Layer 2" xmlns="http://www.w3.org/2000/svg" width="89.997" height="89.997" viewBox="0 0 89.997 89.997">
  <g id="_ÎÓÈ_1" data-name="—ÎÓÈ 1" transform="translate(0 0)">
    <circle id="Ellipse_151" data-name="Ellipse 151" cx="44.999" cy="44.999" r="44.999" fill="#00bdda"/>
    <path id="Path_38071" data-name="Path 38071" d="M72.511,61.933A44.992,44.992,0,0,1,8.92,61.509,13.406,13.406,0,0,1,14.8,54.473a28.833,28.833,0,0,1,5.934-3.381c-3.2-11,5.5-16.406,8.829-17.963,0,5.078,4.755,1.708,10.656,1.772,4.858.054,14.465,4.944,14.465-1.507,5.345,1.582,11.17,11.767,7.16,18.024a25.636,25.636,0,0,1,4.632,2.915,14.842,14.842,0,0,1,6.035,7.6Z" transform="translate(4.07 15.115)" fill="#677079" fill-rule="evenodd"/>
    <path id="Path_38072" data-name="Path 38072" d="M24.034,38.68l21.728.131v5.005l-.01.077a4.054,4.054,0,0,1-.1.673l-.073.5-.044.1C44.126,52.555,37.97,55.411,34.169,57.4c-4-2.181-9.667-6.112-10.117-13.066l-.019-.086v-.291q0-.151-.006-.3c0,.052,0,.1.006.154Z" transform="translate(10.963 17.649)" fill="#f9dca4" fill-rule="evenodd"/>
    <path id="Path_38073" data-name="Path 38073" d="M45.906,38.617v5.832a10.436,10.436,0,0,1-.138,1.614,8.752,8.752,0,0,1-.553,1.924c-7.549,5.7-19.578,1.025-21.5-8.713Z" transform="translate(10.82 17.62)" fill-rule="evenodd" opacity="0.11"/>
    <path id="Path_38074" data-name="Path 38074" d="M19.141,25.235c-7.194,1.849-1.078,10.616,3.447,10.578a28.841,28.841,0,0,1-3.447-10.578Z" transform="translate(7.224 11.514)" fill="#f9dca4" fill-rule="evenodd"/>
    <path id="Path_38075" data-name="Path 38075" d="M44.917,25.235C52.111,27.084,46,35.851,41.469,35.812a28.834,28.834,0,0,0,3.448-10.577Z" transform="translate(18.921 11.514)" fill="#f9dca4" fill-rule="evenodd"/>
    <path id="Path_38076" data-name="Path 38076" d="M36.365,11.361c29.887,0,18.24,47.25,0,47.25C19.138,58.611,6.478,11.361,36.365,11.361Z" transform="translate(8.39 5.184)" fill="#ffe8be" fill-rule="evenodd"/>
    <path id="Path_38077" data-name="Path 38077" d="M23.1,30.473a2.531,2.531,0,0,1-.6,3.9c-2.112,1.737-2.189,7.8-2.189,7.8-.816-.81-.8-5.146-2.564-7.653S14.784,14.47,24.671,8.093a6.212,6.212,0,0,0-1.359,5.243S30.18,3.487,41.574,3.771a7.324,7.324,0,0,0-3.622,4.747s9.961-4.11,18.262.779a19.77,19.77,0,0,0-6.036,2.835c4.031.111,7.926.859,10.864,3.472a4.969,4.969,0,0,0-3.169,6.378c1.247,5.1,1.363,9.847.156,12.4s-1.777.9-2.532,6.255A2.343,2.343,0,0,1,54.375,42.4c-.029.387.556-5.47-.954-7.029s-.561-3.473.042-4.606c4.209-7.9-8.4-11.484-15.285-11.475C32.2,19.3,17.79,22.017,23.1,30.473Z" transform="translate(7.551 1.718)" fill="#2f3a3e" fill-rule="evenodd"/>
    <path id="Path_38078" data-name="Path 38078" d="M19.79,49.253c.044.055,15.171,19.635,32.955-.291-2.148,5.9-11.413,10.587-16.712,10.573-10.121-.029-15.722-8.155-16.243-10.281Z" transform="translate(9.03 22.34)" fill="#434955" fill-rule="evenodd"/>
    <path id="Path_38079" data-name="Path 38079" d="M41.381,65.549c-.6.1-1.2.2-1.8.28V52.814a.916.916,0,0,1,1.8,0Zm-14.3.242q-.906-.13-1.8-.291V52.814a.916.916,0,0,1,1.8,0Z" transform="translate(11.534 23.754)" fill="#e6e6e6" fill-rule="evenodd"/>
  </g>
</svg>
