<svg xmlns="http://www.w3.org/2000/svg" width="30.546" height="28" viewBox="0 0 30.546 28">
  <path id="Path_38128" data-name="Path 38128" d="M18.933,3.128a4.211,4.211,0,0,0-7.321,0L.527,22.878a4.045,4.045,0,0,0,.037,4.059A4.154,4.154,0,0,0,4.187,29h22.17a4.154,4.154,0,0,0,3.623-2.063,4.045,4.045,0,0,0,.037-4.059Zm-3.66,20.781a1.273,1.273,0,1,1,1.273-1.273A1.273,1.273,0,0,1,15.272,23.909Zm1.273-6.363a1.273,1.273,0,1,1-2.545,0V9.909a1.273,1.273,0,0,1,2.545,0Z" transform="translate(0.001 -0.999)" fill="#f1a83b" />
</svg>
