<svg xmlns="http://www.w3.org/2000/svg" width="135" height="135" viewBox="0 0 135 135">
  <g id="Group_35966" data-name="Group 35966" transform="translate(-156 -2616)">
    <rect id="Rectangle_667" data-name="Rectangle 667" width="113" height="113" rx="10" transform="translate(167 2627)" fill="#fff" />
    <rect id="Rectangle_2258" data-name="Rectangle 2258" width="135" height="135" rx="17" transform="translate(156 2616)" fill="#fff" opacity="0.4" />
    <g id="Group_35964" data-name="Group 35964" transform="translate(164 2596.1)">
      <path id="Path_38123" data-name="Path 38123" d="M312.571,144.329c-5.131-1.946-4.821-1.165-4.821-4.771,0-2.33,1.153-1.475,1.884-5.911.285-1.747.52-.582,1.128-3.383.322-1.462-.223-1.574-.149-2.268s.124-1.326.248-2.751c.149-1.785-1.438-6.444-7.113-6.444s-7.262,4.66-7.113,6.444c.112,1.438.186,2.057.248,2.751s-.471.806-.149,2.268c.607,2.8.843,1.623,1.128,3.383.731,4.437,1.871,3.594,1.871,5.911,0,1.661.384,2.355-1.846,3.408.669.235,1.45.52,2.392.88,6.742,2.565,6.581,5.056,6.754,6.233.124.806.186,7.225.211,9.518h12.108s0-9.976-.186-11.141C319.027,147.538,317.8,146.324,312.571,144.329Z" transform="translate(-231.83 -48.096)" fill="#00bdda" />
      <path id="Path_38124" data-name="Path 38124" d="M72.276,111.5s0-1.747-.025-3.767c-.025-2.305-.087-4.957-.211-5.75-.186-1.177-1.772-2.751-8.5-5.316-.929-.347-1.71-.632-2.392-.88-4.127-1.462-3.829-1.946-3.829-5.948,0-3.011,1.487-1.053,2.429-6.766.372-2.255.669-.756,1.45-4.362.421-1.884-.285-2.032-.2-2.937s.173-1.71.322-3.557c.2-2.293-1.846-8.315-9.183-8.315s-9.369,6.01-9.183,8.315c.149,1.846.235,2.652.335,3.557s-.62,1.041-.2,2.937c.793,3.606,1.091,2.107,1.462,4.362.942,5.713,2.417,3.755,2.417,6.766,0,4.66.409,4.313-6.221,6.828-6.729,2.565-8.315,4.139-8.5,5.316C32,103.482,32,111.5,32,111.5Z" fill="#00bdda" />
    </g>
  </g>
</svg>
