<svg xmlns="http://www.w3.org/2000/svg" width="135" height="135" viewBox="0 0 135 135">
  <g id="Group_35968" data-name="Group 35968" transform="translate(-960 -2616)">
    <rect id="Rectangle_2260" data-name="Rectangle 2260" width="135" height="135" rx="17" transform="translate(960 2616)" fill="#fff" opacity="0.4" />
    <rect id="Rectangle_669" data-name="Rectangle 669" width="113" height="113" rx="10" transform="translate(971 2627)" fill="#fff" />
    <path id="shield_7" data-name="shield 7" d="M43.039,13.9a2.379,2.379,0,0,0-2.522-2.379h-.452a16.392,16.392,0,0,1-14.489-8.4V2.975a2.212,2.212,0,0,0-.309-.357,2.07,2.07,0,0,0-.357-.309l-.167-.143h-.238L23.982,2H23.1a1.808,1.808,0,0,0-.476.143h-.381a2.212,2.212,0,0,0-.357.309,1.546,1.546,0,0,0-.309.381.809.809,0,0,0-.143.143,16.654,16.654,0,0,1-14.679,8.66H6.448A2.379,2.379,0,0,0,3.76,13.9v8.137A27.431,27.431,0,0,0,22.793,49.511a1.784,1.784,0,0,0,.619.071,2.546,2.546,0,0,0,.595,0A27.622,27.622,0,0,0,43.182,22.151C43.182,19.2,43.182,16.489,43.039,13.9Zm-9.517,8.922L22.531,33.809a2.117,2.117,0,0,1-.9.547,2.332,2.332,0,0,1-3.212-.1L13.657,29.5a2.379,2.379,0,1,1,3.355-3.355l3.14,3.14,9.921-9.921a2.379,2.379,0,0,1,3.355,3.355Z" transform="translate(1004.274 2658)" fill="#00bdda" />
  </g>
</svg>
