<svg xmlns="http://www.w3.org/2000/svg" width="135" height="135" viewBox="0 0 135 135">
  <g id="Group_35969" data-name="Group 35969" transform="translate(-1373 -2616)">
    <rect id="Rectangle_2261" data-name="Rectangle 2261" width="135" height="135" rx="17" transform="translate(1373 2616)" fill="#fff" opacity="0.4" />
    <rect id="Rectangle_670" data-name="Rectangle 670" width="113" height="113" rx="10" transform="translate(1384 2627)" fill="#fff" />
    <g id="Group_35965" data-name="Group 35965" transform="translate(1406 2648.3)">
      <path id="Path_38125" data-name="Path 38125" d="M64.86,74.559a7.467,7.467,0,0,0,2.65,2.65,7.083,7.083,0,0,0,2.067.848,7.26,7.26,0,0,0,1.908.212,11.678,11.678,0,0,0,1.908-.212,7.083,7.083,0,0,0,2.067-.848,7.467,7.467,0,0,0,2.65-2.65,7.083,7.083,0,0,0,.848-2.067,7.26,7.26,0,0,0,.212-1.908,11.679,11.679,0,0,0-.212-1.908,7.083,7.083,0,0,0-.848-2.067,7.467,7.467,0,0,0-2.65-2.65,7.083,7.083,0,0,0-2.067-.848,7.26,7.26,0,0,0-1.908-.212,11.678,11.678,0,0,0-1.908.212,7.083,7.083,0,0,0-2.067.848,7.467,7.467,0,0,0-2.65,2.65,7.083,7.083,0,0,0-.848,2.067,7.26,7.26,0,0,0-.212,1.908,11.678,11.678,0,0,0,.212,1.908A7.083,7.083,0,0,0,64.86,74.559Z" transform="translate(-29.049 -28.297)" fill="#00bdda" />
      <path id="Path_38126" data-name="Path 38126" d="M77.718,51.54H76.181a20.333,20.333,0,0,0-3.551-8.532l1.06-1.06a3.448,3.448,0,0,0-4.876-4.876l-1.06,1.06a19.838,19.838,0,0,0-8.479-3.551V33.045A3.438,3.438,0,0,0,55.831,29.6a3.3,3.3,0,0,0-2.544,1.166,4.977,4.977,0,0,1,.636,2.491A5.22,5.22,0,0,1,49.9,38.291a12.618,12.618,0,0,1-1.325,3.127,5.158,5.158,0,0,1,.583,1.219,14.149,14.149,0,0,1,3.233-1.272,14.206,14.206,0,0,1,6.889,0,12.758,12.758,0,0,1,3.71,1.537,13.859,13.859,0,0,1,4.876,4.876,13.393,13.393,0,0,1,1.537,3.71,14.206,14.206,0,0,1,0,6.889,12.758,12.758,0,0,1-1.537,3.71,13.859,13.859,0,0,1-4.876,4.876,13.393,13.393,0,0,1-3.71,1.537,14.206,14.206,0,0,1-6.889,0,12.758,12.758,0,0,1-3.71-1.537A13.859,13.859,0,0,1,43.8,62.086a13.393,13.393,0,0,1-1.537-3.71,14.206,14.206,0,0,1,0-6.889,17.251,17.251,0,0,1,.795-2.332,5.357,5.357,0,0,1-1.59-.689,23.04,23.04,0,0,1-3.127,1.325,5.077,5.077,0,0,1-5.034,4.028,5.283,5.283,0,0,1-2.385-.583,3.434,3.434,0,0,0,3.021,5.087h1.537a20.333,20.333,0,0,0,3.551,8.532l-1.06,1.06a3.487,3.487,0,0,0,0,4.876,3.454,3.454,0,0,0,4.876,0l1.06-1.06a21.04,21.04,0,0,0,8.532,3.551v1.537a3.445,3.445,0,0,0,6.889,0V75.281a20.333,20.333,0,0,0,8.532-3.551l1.06,1.06a3.454,3.454,0,0,0,4.876,0,3.487,3.487,0,0,0,0-4.876l-1.06-1.06a21.04,21.04,0,0,0,3.551-8.532h1.537a3.438,3.438,0,0,0,3.445-3.445A3.586,3.586,0,0,0,77.718,51.54Z" transform="translate(-13.397 -12.644)" fill="#00bdda" />
      <path id="Path_38127" data-name="Path 38127" d="M17.421,36.087a2.438,2.438,0,1,0,4.876,0v-1.06a14.216,14.216,0,0,0,6.041-2.491l.742.742a2.406,2.406,0,0,0,1.7.689,2.32,2.32,0,0,0,1.7-.689,2.431,2.431,0,0,0,0-3.445l-.742-.742a14.217,14.217,0,0,0,2.491-6.041h1.06a2.438,2.438,0,1,0,0-4.876h-1.06a14.918,14.918,0,0,0-2.491-6.041l.742-.742a2.436,2.436,0,0,0-3.445-3.445l-.689.742A14.217,14.217,0,0,0,22.3,6.2V5.138a2.438,2.438,0,0,0-4.876,0V6.2a15,15,0,0,0-5.988,2.491l-.742-.742a2.436,2.436,0,0,0-3.445,3.445l.742.742A14.217,14.217,0,0,0,5.5,18.174H4.438a2.438,2.438,0,1,0,0,4.876H5.5a14.217,14.217,0,0,0,2.491,6.041l-.742.742a2.431,2.431,0,0,0,0,3.445,2.406,2.406,0,0,0,1.7.689,2.239,2.239,0,0,0,1.7-.689l.742-.742a14.216,14.216,0,0,0,6.041,2.491v1.06ZM15.832,27.4a8.066,8.066,0,0,1-2.756-2.756,6.835,6.835,0,0,1-.848-2.12,7.882,7.882,0,0,1-.265-1.908,7.212,7.212,0,0,1,.265-1.908,10.417,10.417,0,0,1,.848-2.12,8.066,8.066,0,0,1,2.756-2.756,6.835,6.835,0,0,1,2.12-.848,7.882,7.882,0,0,1,1.908-.265,7.212,7.212,0,0,1,1.908.265,10.417,10.417,0,0,1,2.12.848,8.066,8.066,0,0,1,2.756,2.756,6.835,6.835,0,0,1,.848,2.12,7.882,7.882,0,0,1,.265,1.908,7.212,7.212,0,0,1-.265,1.908,10.417,10.417,0,0,1-.848,2.12A8.066,8.066,0,0,1,23.887,27.4a6.835,6.835,0,0,1-2.12.848,7.882,7.882,0,0,1-1.908.265,7.212,7.212,0,0,1-1.908-.265A8.065,8.065,0,0,1,15.832,27.4Z" transform="translate(0 0)" fill="#00bdda" />
    </g>
  </g>
</svg>
